<?xml version="1.0" encoding="UTF-8"?><svg id="uuid-1a3065b7-f449-4fae-9ba2-b28712fff01e" xmlns="http://www.w3.org/2000/svg" viewBox="0 0 595.28 368.5"><defs><style>.uuid-cacf5dcf-8363-4db2-bbd7-24d07df722d1{fill:#f1f2f2;}.uuid-4675d60d-3487-45b3-b4a9-17c6936f52cf{fill:#847a6f;}</style></defs><path class="uuid-4675d60d-3487-45b3-b4a9-17c6936f52cf" d="M595.28,0H0v368.5h595.28V0ZM212.59,148.8c0-20.57,16.67-37.24,37.24-37.24s37.24,16.67,37.24,37.24-16.67,37.24-37.24,37.24-37.24-16.67-37.24-37.24ZM133.14,183.45c0-20.57,16.67-37.24,37.24-37.24s37.24,16.67,37.24,37.24-16.67,37.24-37.24,37.24-37.24-16.67-37.24-37.24ZM69.46,242c0-20.57,16.67-37.24,37.24-37.24s37.24,16.67,37.24,37.24-16.67,37.24-37.24,37.24-37.24-16.67-37.24-37.24Z"/><path class="uuid-cacf5dcf-8363-4db2-bbd7-24d07df722d1" d="M231.85,208.65l-.72-.19v-.41h2.57c.1,0,.17.02.22.07.04.04.07.11.07.21v.22h-.72v5.82l2.07-.12.62-1.36c.09-.18.21-.27.35-.27.12,0,.22.05.3.14l-.35,2.07h-5.11v-.41l.71-.19v-5.58Z"/><path class="uuid-cacf5dcf-8363-4db2-bbd7-24d07df722d1" d="M240.25,214.89l-.3-.97c-.18.35-.42.62-.71.79-.29.18-.58.26-.87.26s-.53-.06-.73-.18c-.19-.12-.34-.28-.44-.47-.1-.2-.15-.41-.15-.64s.04-.42.11-.59c.07-.17.13-.31.18-.4l2.49-.78v-.78c0-.28-.08-.49-.23-.63-.15-.14-.35-.21-.59-.21-.08,0-.17,0-.27.02-.1.01-.18.03-.26.04l-.09,1.13h-.38c-.26,0-.45-.05-.56-.15-.11-.1-.17-.22-.17-.35,0-.18.07-.34.22-.49.15-.15.32-.27.5-.38.27-.15.55-.25.84-.32.29-.07.55-.1.79-.1.25,0,.46.03.63.08s.31.12.43.23c.16.13.28.29.34.49.07.2.1.46.1.78v2.97h.67s.01.07.01.12c0,.04,0,.08,0,.12,0,.13-.04.21-.13.25s-.17.06-.25.07l-1.23.11ZM239.84,212.41l-.77.2c-.29.07-.5.2-.61.37s-.17.35-.17.54c0,.18.06.34.18.48.12.14.27.21.47.21.15,0,.28-.04.39-.12.1-.08.19-.17.26-.28.07-.11.12-.21.16-.3.05-.12.08-.25.08-.41.01-.15.02-.27.02-.35v-.33Z"/><path class="uuid-cacf5dcf-8363-4db2-bbd7-24d07df722d1" d="M245.87,207.92l-.67-.09v-.16c0-.11.03-.19.08-.25.05-.06.13-.09.24-.1l1.67-.08v6.99h.67s.01.08.01.13c0,.05,0,.08,0,.1,0,.11-.03.18-.1.23-.07.05-.16.08-.27.09l-1.23.11-.24-.93c-.15.3-.38.54-.68.74-.3.19-.63.28-.99.28s-.65-.07-.91-.2c-.26-.13-.46-.31-.62-.53s-.28-.46-.36-.74c-.08-.27-.12-.54-.12-.81,0-.55.11-1.05.33-1.5.22-.45.53-.82.94-1.1.41-.28.88-.42,1.43-.42.11,0,.23.01.37.04s.29.07.45.12v-1.93ZM245.87,210.54c-.11-.05-.23-.09-.37-.15-.14-.05-.3-.07-.48-.07-.29,0-.53.09-.72.27-.19.18-.33.42-.42.72-.09.3-.13.65-.13,1.03,0,.4.04.75.14,1.05s.22.53.38.7c.16.17.36.25.58.25.16,0,.3-.04.42-.12.12-.08.23-.18.32-.3.09-.14.17-.31.21-.5s.07-.42.07-.67v-2.21Z"/><path class="uuid-cacf5dcf-8363-4db2-bbd7-24d07df722d1" d="M252.6,214.89l-.27-.95c-.05.09-.13.21-.25.35-.12.14-.27.27-.45.38-.18.11-.36.18-.52.21-.17.04-.34.05-.5.05-.28,0-.52-.05-.73-.16-.21-.11-.38-.24-.5-.39-.12-.15-.21-.34-.27-.55s-.09-.51-.09-.9v-2.49h-.67v-.26c0-.09.02-.17.07-.22.05-.05.12-.08.23-.09l1.67-.1v3.07c0,.16,0,.33.03.52.02.18.07.34.14.46.07.15.17.25.3.33.12.07.26.1.4.1.21,0,.4-.08.57-.25.17-.17.28-.36.35-.58.05-.14.09-.3.1-.49.01-.19.02-.38.02-.57v-1.92h-.67v-.27c0-.07.02-.14.06-.2.04-.06.12-.09.24-.1l1.68-.1v4.45h.65s.01.07.01.12c0,.04,0,.08,0,.11,0,.14-.04.23-.13.27s-.16.06-.24.07l-1.23.1Z"/><path class="uuid-cacf5dcf-8363-4db2-bbd7-24d07df722d1" d="M258.05,214.83v-.41l.67-.19v-2.39c0-.13,0-.27-.02-.44-.01-.17-.04-.31-.08-.42-.06-.18-.15-.33-.28-.45-.13-.12-.29-.18-.47-.18-.14,0-.28.04-.41.12s-.25.19-.36.34c-.13.19-.22.41-.25.65-.03.24-.05.51-.05.8v2.05h.6v.24c0,.09-.02.16-.06.21-.04.05-.12.08-.23.08h-2.32v-.41l.7-.19v-3.78h-.69v-.27c0-.09.03-.17.08-.21.05-.05.13-.08.24-.08l1.44-.1.15.85c.17-.29.4-.51.69-.68.3-.17.61-.26.95-.26.28,0,.53.05.77.15.23.1.43.25.57.46.12.17.21.36.26.57.05.21.08.49.08.82v2.63h.63v.24c0,.09-.02.16-.06.21s-.11.08-.22.08h-2.33Z"/><path class="uuid-cacf5dcf-8363-4db2-bbd7-24d07df722d1" d="M261.94,207.92l-.68-.09v-.15c0-.11.03-.2.08-.26.05-.06.13-.09.24-.1l1.67-.08v3.81c0,.23,0,.46-.01.68,0,.22,0,.44,0,.65l1.65-1.91-.81-.18v-.42h2.54v.26c0,.08-.02.15-.06.21s-.11.08-.21.08h-.43l-1.3,1.28,1.75,2.51h.6v.23c0,.13-.04.22-.11.26-.07.04-.15.06-.22.07l-1.35.17-1.55-2.38-.06.05c-.09.1-.17.2-.24.3s-.11.21-.14.34c-.03.13-.04.3-.04.5v.56h.62v.24c0,.09-.02.16-.06.21s-.11.08-.22.08h-2.35v-.41l.69-.19v-6.31Z"/><path class="uuid-cacf5dcf-8363-4db2-bbd7-24d07df722d1" d="M270.53,214.89l-.3-.97c-.18.35-.42.62-.71.79-.29.18-.58.26-.87.26s-.53-.06-.73-.18c-.19-.12-.34-.28-.44-.47-.1-.2-.15-.41-.15-.64s.04-.42.11-.59c.07-.17.13-.31.18-.4l2.49-.78v-.78c0-.28-.08-.49-.23-.63-.15-.14-.35-.21-.59-.21-.08,0-.17,0-.27.02-.1.01-.18.03-.26.04l-.09,1.13h-.38c-.26,0-.45-.05-.56-.15-.11-.1-.17-.22-.17-.35,0-.18.07-.34.22-.49.15-.15.32-.27.5-.38.27-.15.55-.25.84-.32.29-.07.55-.1.79-.1.25,0,.46.03.63.08s.31.12.43.23c.16.13.28.29.34.49.07.2.1.46.1.78v2.97h.67s.01.07.01.12c0,.04,0,.08,0,.12,0,.13-.04.21-.13.25s-.17.06-.25.07l-1.23.11ZM270.13,212.41l-.77.2c-.29.07-.5.2-.61.37s-.17.35-.17.54c0,.18.06.34.18.48.12.14.27.21.47.21.15,0,.28-.04.39-.12.1-.08.19-.17.26-.28.07-.11.12-.21.16-.3.05-.12.08-.25.08-.41.01-.15.02-.27.02-.35v-.33Z"/><path class="uuid-cacf5dcf-8363-4db2-bbd7-24d07df722d1" d="M154.68,250.19v-.41l.71-.19v-5.58l-.71-.19v-.41h5.15v1.75s-.07.05-.12.07c-.05.02-.09.03-.14.03-.07,0-.13-.02-.18-.07-.04-.04-.08-.1-.1-.17l-.32-1.04-2.18-.11v2.82h1.4l.34-.79h.38v1.83c0,.07-.02.13-.06.19s-.11.08-.21.08h-.19l-.18-.78h-1.49v2.45h1.11v.24c0,.09-.03.16-.08.21-.05.05-.12.07-.21.07h-2.94Z"/><path class="uuid-cacf5dcf-8363-4db2-bbd7-24d07df722d1" d="M160.29,250.19v-.41l.69-.19v-3.78h-.68v-.27c0-.09.03-.17.08-.22.05-.05.13-.08.23-.08l1.41-.1.15,1.01c.14-.33.34-.6.6-.8.26-.2.52-.3.8-.3.22,0,.4.04.54.13s.25.2.31.34c.07.14.1.27.1.4,0,.23-.08.41-.23.54-.15.13-.34.19-.56.19h-.22l-.46-.85c-.12.07-.24.18-.35.33-.11.16-.2.32-.25.5-.03.1-.06.21-.09.33s-.04.27-.05.43c-.01.16-.02.36-.02.59v1.67h.99v.23c0,.09-.02.16-.07.21-.04.06-.12.08-.23.08h-2.7Z"/><path class="uuid-cacf5dcf-8363-4db2-bbd7-24d07df722d1" d="M167.88,250.25l-.3-.97c-.18.35-.42.62-.71.79-.29.18-.58.27-.87.27s-.53-.06-.73-.18c-.19-.12-.34-.28-.44-.48-.1-.2-.15-.41-.15-.63s.04-.42.11-.59c.07-.17.13-.31.18-.4l2.49-.78v-.78c0-.28-.08-.49-.23-.64-.15-.14-.35-.21-.59-.21-.08,0-.17,0-.27.02-.1.01-.18.03-.26.04l-.09,1.13h-.38c-.26,0-.45-.05-.56-.15-.11-.1-.17-.22-.17-.35,0-.18.07-.34.22-.49.15-.15.32-.27.5-.38.27-.15.55-.25.84-.32.29-.07.55-.1.79-.1.25,0,.46.02.63.08.17.05.31.12.43.22.16.13.28.29.34.5s.1.46.1.78v2.97h.67s.01.07.01.12c0,.04,0,.08,0,.11,0,.13-.04.21-.13.25s-.17.06-.25.07l-1.23.11ZM167.48,247.77l-.77.2c-.29.07-.5.2-.61.37s-.17.35-.17.54c0,.18.06.34.18.47.12.14.27.21.47.21.15,0,.28-.04.39-.12.1-.08.19-.17.26-.28.07-.11.12-.21.16-.31.05-.12.08-.25.08-.4.01-.15.02-.27.02-.36v-.33Z"/><path class="uuid-cacf5dcf-8363-4db2-bbd7-24d07df722d1" d="M173.29,250.19v-.41l.67-.19v-2.39c0-.13,0-.27-.02-.44s-.04-.31-.08-.42c-.06-.18-.15-.33-.28-.45-.13-.12-.29-.18-.47-.18-.14,0-.28.04-.41.12s-.25.19-.36.34c-.13.19-.22.41-.25.65-.03.24-.05.51-.05.8v2.05h.6v.24c0,.09-.02.15-.06.2-.04.05-.12.08-.23.08h-2.32v-.41l.7-.19v-3.78h-.69v-.27c0-.09.03-.17.08-.22s.13-.08.24-.08l1.44-.1.15.85c.17-.29.4-.51.69-.68.3-.17.61-.25.95-.25.28,0,.53.05.77.14.23.1.43.25.57.46.12.17.21.36.26.57.05.21.08.49.08.82v2.63h.63v.24c0,.09-.02.15-.06.2-.04.05-.11.08-.22.08h-2.33Z"/><path class="uuid-cacf5dcf-8363-4db2-bbd7-24d07df722d1" d="M177.03,245.81h-.67v-.53l.71-.19.46-1.22s.1-.01.15-.02c.05,0,.1,0,.15,0,.15,0,.27.04.34.12.07.08.11.2.11.36v.91h1.51v.23c0,.13-.03.22-.08.27-.05.05-.13.08-.25.08h-1.14v2.85c0,.24.03.42.1.55.06.13.15.21.25.25s.21.06.31.06c.14,0,.28-.02.41-.07.13-.05.27-.1.42-.16.07.08.11.15.11.22,0,.13-.1.26-.3.4-.15.11-.33.2-.56.29-.22.09-.46.13-.7.13-.12,0-.25-.01-.4-.04-.14-.03-.28-.08-.41-.17-.13-.09-.24-.22-.34-.39-.07-.13-.12-.28-.15-.45-.03-.17-.05-.39-.05-.66v-2.82Z"/><path class="uuid-cacf5dcf-8363-4db2-bbd7-24d07df722d1" d="M180.3,250.19v-.41l.75-.19v-3.78h-.75v-.27c0-.09.02-.15.07-.2s.11-.07.2-.08l1.77-.1v4.51h.72v.24c0,.09-.02.15-.06.2-.04.05-.12.08-.23.08h-2.49ZM182.35,243.53c0,.19-.07.36-.22.51-.15.14-.33.21-.55.21-.21,0-.38-.07-.53-.21-.14-.14-.22-.31-.22-.5s.08-.36.23-.5c.15-.14.34-.22.54-.22s.38.07.53.22c.14.14.22.31.22.49Z"/><path class="uuid-cacf5dcf-8363-4db2-bbd7-24d07df722d1" d="M183.74,248.51h.51l.32,1.05c.11.07.24.12.41.17.16.05.32.08.47.08.25,0,.45-.05.6-.17.15-.11.23-.25.23-.43,0-.09-.03-.18-.09-.28s-.17-.21-.33-.34-.4-.27-.71-.42c-.27-.14-.5-.28-.71-.43-.2-.15-.36-.32-.48-.51-.11-.19-.17-.42-.17-.68,0-.33.09-.6.28-.82s.42-.38.72-.5c.29-.11.61-.17.96-.17.17,0,.36.02.55.04.19.03.37.07.53.11.16.04.28.07.35.1v1.3s-.08.03-.13.04c-.05.02-.09.02-.14.02-.08,0-.14-.02-.19-.05s-.08-.09-.1-.17l-.17-.63c-.08-.05-.21-.09-.38-.15-.17-.05-.34-.07-.49-.07-.11,0-.21.02-.31.05-.1.03-.18.09-.25.16s-.1.18-.1.31c0,.15.05.28.15.4.1.12.23.23.41.33.17.1.38.22.6.33.27.15.51.29.71.44.2.15.36.31.47.5s.17.41.17.67c0,.29-.08.55-.25.79s-.41.42-.72.56c-.31.14-.68.21-1.1.21-.19,0-.39-.02-.6-.05-.21-.04-.41-.08-.59-.13-.18-.05-.32-.09-.42-.13v-1.53ZM184.96,244.45l-.76-1.21c-.07-.11-.13-.2-.18-.28s-.07-.15-.07-.22c0-.09.04-.17.11-.21.07-.05.16-.08.26-.1l1.22,1.14,1.21-1.14c.11.02.2.06.27.11.07.05.11.13.11.22,0,.07-.02.14-.07.22-.04.08-.1.17-.18.28l-.79,1.2h-1.14Z"/><path class="uuid-cacf5dcf-8363-4db2-bbd7-24d07df722d1" d="M189.41,247.51c.01.42.1.78.25,1.07.15.29.36.52.62.67.26.15.54.23.86.23.14,0,.3-.02.48-.06s.41-.12.68-.25c.03.03.05.07.07.12.02.04.03.08.03.12,0,.07-.02.12-.05.17-.03.05-.08.1-.14.15-.04.03-.13.1-.28.2-.14.1-.34.19-.58.28s-.54.12-.88.12c-.47,0-.88-.11-1.23-.32-.35-.21-.63-.51-.82-.89-.2-.38-.29-.81-.29-1.3,0-.37.06-.72.18-1.04.12-.33.3-.62.52-.88.23-.26.5-.46.81-.61.31-.15.66-.23,1.05-.23.46,0,.84.11,1.14.32.3.21.49.5.58.87.04.12.07.25.08.39.01.14.02.32.02.53v.33h-3.11ZM191.24,247.03c0-.18-.01-.35-.04-.51s-.08-.3-.16-.42c-.07-.13-.17-.22-.28-.29-.11-.07-.24-.1-.39-.1-.22,0-.4.07-.54.21-.14.14-.24.31-.31.51-.07.2-.1.41-.11.61h1.82Z"/><path class="uuid-cacf5dcf-8363-4db2-bbd7-24d07df722d1" d="M193.89,243.28l-.68-.09v-.15c0-.11.03-.2.08-.26.05-.06.13-.09.24-.1l1.67-.08v3.81c0,.23,0,.46-.01.68s0,.44,0,.65l1.65-1.91-.81-.18v-.42h2.54v.26c0,.08-.02.15-.06.21s-.11.08-.21.08h-.43l-1.3,1.28,1.75,2.51h.6v.23c0,.13-.04.22-.11.25-.07.04-.15.06-.22.08l-1.35.17-1.55-2.38-.06.05c-.09.1-.17.2-.24.29s-.11.21-.14.34c-.03.13-.04.3-.04.5v.56h.62v.24c0,.09-.02.15-.06.2-.04.05-.11.08-.22.08h-2.35v-.41l.69-.19v-6.31Z"/><path class="uuid-cacf5dcf-8363-4db2-bbd7-24d07df722d1" d="M87.98,302.11l-.73-.19v-.41h2.57c.1,0,.17.02.22.07s.07.11.07.21v.22h-.72v5.82l2.07-.12.62-1.36c.09-.18.2-.27.35-.27.12,0,.22.05.3.14l-.35,2.07h-5.11v-.41l.71-.19v-5.58Z"/><path class="uuid-cacf5dcf-8363-4db2-bbd7-24d07df722d1" d="M97.28,308.35l-.27-.95c-.05.09-.13.21-.25.35-.12.14-.27.27-.45.38-.18.11-.36.18-.52.21-.17.04-.34.05-.5.05-.28,0-.52-.05-.73-.16-.21-.11-.38-.24-.5-.39-.12-.15-.21-.34-.27-.55s-.09-.51-.09-.9v-2.49h-.67v-.26c0-.09.02-.17.07-.22.05-.05.12-.08.23-.09l1.67-.1v3.07c0,.16,0,.33.03.52.02.18.07.34.14.46.07.15.17.25.3.33.12.07.26.1.4.1.21,0,.4-.08.57-.25.17-.17.28-.36.35-.58.05-.14.09-.3.1-.49.01-.19.02-.38.02-.57v-1.92h-.67v-.27c0-.07.02-.14.06-.2.04-.06.12-.09.24-.1l1.68-.1v4.45h.65s.01.07.01.12c0,.04,0,.08,0,.11,0,.14-.04.23-.13.27s-.16.06-.24.07l-1.23.1Z"/><path class="uuid-cacf5dcf-8363-4db2-bbd7-24d07df722d1" d="M102.6,304.92l-.45-1.06s-.07-.02-.13-.03c-.06-.01-.11-.02-.16-.02-.17,0-.34.06-.5.17-.17.12-.31.3-.42.55-.11.25-.17.57-.17.97s.07.76.21,1.08c.14.31.33.55.57.72.24.17.52.26.83.26.14,0,.29-.02.46-.07s.38-.14.63-.27c.03.04.05.08.08.12.03.04.05.1.05.16,0,.05-.02.11-.05.17s-.09.13-.18.21c-.16.15-.38.28-.64.38-.27.11-.58.17-.94.17-.42,0-.81-.1-1.16-.3-.35-.2-.63-.49-.83-.87-.21-.38-.31-.81-.31-1.31,0-.37.06-.73.18-1.06.12-.33.29-.63.52-.89.22-.26.49-.46.8-.61s.65-.22,1.03-.22c.3,0,.57.04.81.13s.43.21.57.38c.14.16.21.34.21.55s-.06.37-.19.5c-.13.13-.32.2-.57.2h-.25Z"/><path class="uuid-cacf5dcf-8363-4db2-bbd7-24d07df722d1" d="M104.15,308.29v-.41l.75-.19v-3.78h-.75v-.27c0-.09.02-.15.07-.2.05-.05.11-.07.2-.08l1.77-.1v4.51h.72v.24c0,.09-.02.16-.06.21-.04.05-.12.08-.23.08h-2.49ZM106.2,301.63c0,.19-.07.36-.22.5s-.33.21-.55.21c-.21,0-.38-.07-.53-.21-.14-.14-.22-.31-.22-.5s.08-.36.23-.5.34-.21.54-.21.38.07.53.21.22.31.22.5Z"/><path class="uuid-cacf5dcf-8363-4db2-bbd7-24d07df722d1" d="M110.75,308.29v-.41l.67-.19v-2.39c0-.13,0-.27-.02-.44-.01-.17-.04-.31-.08-.42-.06-.18-.15-.33-.28-.45-.13-.12-.29-.18-.47-.18-.14,0-.28.04-.41.12s-.25.19-.36.34c-.13.19-.22.41-.25.65-.03.24-.05.51-.05.8v2.05h.6v.24c0,.09-.02.16-.06.21-.04.05-.12.08-.23.08h-2.32v-.41l.7-.19v-3.78h-.69v-.27c0-.09.03-.17.08-.21.05-.05.13-.08.24-.08l1.44-.1.15.85c.17-.29.4-.51.69-.68.3-.17.61-.26.95-.26.28,0,.53.05.77.15.23.1.43.25.57.46.12.17.21.36.26.57.05.21.08.49.08.82v2.63h.63v.24c0,.09-.02.16-.06.21s-.11.08-.22.08h-2.33Z"/><path class="uuid-cacf5dcf-8363-4db2-bbd7-24d07df722d1" d="M114.63,301.38l-.68-.09v-.15c0-.11.03-.2.08-.26.05-.06.13-.09.24-.1l1.67-.08v3.81c0,.23,0,.46-.01.68,0,.22,0,.44,0,.65l1.65-1.91-.81-.18v-.42h2.54v.26c0,.08-.02.15-.06.21s-.11.08-.21.08h-.43l-1.3,1.28,1.75,2.51h.6v.23c0,.13-.04.22-.11.26-.07.04-.15.06-.22.07l-1.35.17-1.55-2.38-.06.05c-.09.1-.17.2-.24.3s-.11.21-.14.34c-.03.13-.04.3-.04.5v.56h.62v.24c0,.09-.02.16-.06.21s-.11.08-.22.08h-2.35v-.41l.69-.19v-6.31Z"/><path class="uuid-cacf5dcf-8363-4db2-bbd7-24d07df722d1" d="M123.22,308.35l-.3-.97c-.18.35-.42.62-.71.79-.29.18-.58.26-.87.26s-.53-.06-.73-.18c-.19-.12-.34-.28-.44-.47-.1-.2-.15-.41-.15-.64s.04-.42.11-.59c.07-.17.13-.31.18-.4l2.49-.78v-.78c0-.28-.08-.49-.23-.63-.15-.14-.35-.21-.59-.21-.08,0-.17,0-.27.02-.1.01-.18.03-.26.04l-.09,1.13h-.38c-.26,0-.45-.05-.56-.15-.11-.1-.17-.22-.17-.35,0-.18.07-.34.22-.49.15-.15.32-.27.5-.38.27-.15.55-.25.84-.32.29-.07.55-.1.79-.1.25,0,.46.03.63.08s.31.12.43.23c.16.13.28.29.34.49.07.2.1.46.1.78v2.97h.67s.01.07.01.12c0,.04,0,.08,0,.12,0,.13-.04.21-.13.25s-.17.06-.25.07l-1.23.11ZM122.82,305.87l-.77.2c-.29.07-.5.2-.61.37s-.17.35-.17.54c0,.18.06.34.18.48.12.14.27.21.47.21.15,0,.28-.04.39-.12.1-.08.19-.17.26-.28.07-.11.12-.21.16-.3.05-.12.08-.25.08-.41.01-.15.02-.27.02-.35v-.33Z"/><path class="uuid-cacf5dcf-8363-4db2-bbd7-24d07df722d1" d="M459.79,36.83v15.48h.1c1.16-1.49,3.02-2.51,5.12-2.64l.03.36c-2.72,1.42-4.58,4.03-5.51,6.83h-.93c-.9-2.8-2.79-5.41-5.51-6.83l.07-.36c2.06.13,3.92,1.15,5.08,2.64h.1v-15.48h1.46Z"/></svg>