<?xml version="1.0" encoding="UTF-8"?><svg id="uuid-539bed7f-7c37-4934-b69e-7471968cd4e7" xmlns="http://www.w3.org/2000/svg" viewBox="0 0 595.28 368.5"><defs><style>.uuid-bfb7af1a-8f27-45c4-a243-d530e3613afc{fill:#f1f2f2;}.uuid-b21a3a34-769e-46ce-ab8f-5203ec81bbfa{fill:#847a6f;}</style></defs><path class="uuid-b21a3a34-769e-46ce-ab8f-5203ec81bbfa" d="M595.28,0H0v368.5h595.28V0ZM380.42,86.05c0-20.57,16.67-37.24,37.24-37.24s37.24,16.67,37.24,37.24-16.67,37.24-37.24,37.24-37.24-16.67-37.24-37.24ZM474.18,94.44c0-20.57,16.67-37.24,37.24-37.24s37.24,16.67,37.24,37.24-16.67,37.24-37.24,37.24-37.24-16.67-37.24-37.24Z"/><path class="uuid-bfb7af1a-8f27-45c4-a243-d530e3613afc" d="M373.51,161.62l-.73-.19v-.41h2.29l1.48,3.76c.07.19.15.38.22.57.07.19.14.38.21.57l1.98-4.9h1.84c.09,0,.16.02.2.07.04.05.06.11.06.2v.25h-.61v5.74h.76v.24c0,.09-.02.16-.07.21-.04.05-.11.08-.21.08h-2.56v-.44l.77-.19v-3.95c0-.16,0-.32,0-.47,0-.16,0-.32.02-.47l-2.32,5.51c-.17,0-.31-.03-.41-.09-.1-.06-.18-.15-.24-.27s-.13-.28-.2-.47l-1.37-3.34c-.07-.16-.14-.35-.22-.57-.08-.22-.15-.45-.23-.68v4.91h.73v.26c0,.09-.02.15-.07.19-.04.04-.11.07-.21.07h-1.94v-.41l.73-.19.08-.83v-4.75Z"/><path class="uuid-bfb7af1a-8f27-45c4-a243-d530e3613afc" d="M385.07,167.86l-.3-.97c-.18.35-.42.62-.7.79s-.58.26-.87.26-.53-.06-.73-.18-.34-.28-.44-.47c-.1-.2-.15-.41-.15-.64s.04-.42.11-.59c.07-.17.13-.31.18-.4l2.49-.78v-.78c0-.28-.08-.49-.23-.63s-.35-.21-.59-.21c-.08,0-.17,0-.27.02-.1.01-.18.03-.26.04l-.09,1.13h-.38c-.26,0-.45-.05-.56-.15-.11-.1-.17-.22-.17-.35,0-.18.07-.34.22-.49.15-.15.32-.27.5-.38.27-.15.55-.25.84-.32s.55-.1.79-.1c.25,0,.46.03.63.08.17.05.31.12.43.23.16.13.28.29.34.49.07.2.1.46.1.78v2.97h.67s.01.07.02.12c0,.04,0,.08,0,.12,0,.13-.04.21-.13.25s-.17.06-.25.07l-1.23.11ZM384.67,165.38l-.77.2c-.3.07-.5.2-.61.37s-.17.35-.17.54c0,.18.06.34.18.48.12.14.27.21.47.21.15,0,.28-.04.39-.12.1-.08.19-.17.26-.28.07-.11.12-.21.16-.3.05-.12.08-.25.09-.41.01-.15.02-.27.02-.35v-.33Z"/><path class="uuid-bfb7af1a-8f27-45c4-a243-d530e3613afc" d="M390.98,163.22c.19.15.33.33.42.54.09.21.14.42.14.62,0,.34-.09.64-.27.92-.18.27-.43.48-.76.64-.33.16-.73.24-1.2.24-.06,0-.13,0-.21,0-.08,0-.15,0-.21-.02-.11.07-.2.17-.27.29-.07.12-.11.26-.12.41.11,0,.29.02.56.03s.62.02,1.06.02.8.06,1.06.18.44.28.55.47.17.41.17.64c0,.31-.11.62-.33.92s-.54.54-.96.73c-.42.19-.92.29-1.51.29-.66,0-1.18-.12-1.55-.36s-.55-.54-.55-.92c0-.27.09-.49.28-.67s.39-.31.61-.38c-.05-.04-.1-.11-.17-.2-.07-.09-.1-.21-.1-.38s.05-.35.16-.56c.11-.21.26-.44.46-.68-.32-.13-.57-.33-.76-.59s-.28-.57-.28-.92c0-.33.09-.64.28-.92s.44-.5.78-.66c.34-.16.73-.25,1.19-.25.16,0,.33.02.51.06s.34.1.49.17c0-.03,0-.05,0-.08s0-.04,0-.05c0-.25.07-.47.2-.66s.33-.28.58-.28c.2,0,.36.07.48.21.12.14.2.31.25.51l-.99.67ZM390.92,168.71c0-.13-.04-.25-.12-.36-.08-.11-.23-.2-.45-.27-.23-.07-.56-.11-.99-.11h-.33c-.16,0-.31.03-.45.08-.14.05-.25.13-.34.23-.09.1-.13.24-.13.42,0,.14.05.28.15.42.1.14.25.26.46.35.21.09.47.14.8.14.43,0,.77-.09,1.03-.26.25-.17.38-.39.38-.64ZM389.44,165.7c.26,0,.46-.1.6-.29.14-.19.21-.47.21-.83,0-.26-.04-.5-.11-.71-.07-.21-.18-.38-.32-.51-.14-.13-.32-.2-.54-.2-.18,0-.33.05-.44.15-.11.1-.2.23-.25.39-.05.17-.08.36-.08.58,0,.29.04.55.13.76.08.21.2.38.34.49.14.11.3.17.47.17Z"/><path class="uuid-bfb7af1a-8f27-45c4-a243-d530e3613afc" d="M395.9,160.89l-.67-.09v-.16c0-.11.02-.19.08-.25.05-.06.13-.09.24-.1l1.67-.08v6.99h.67s.01.08.02.13c0,.05,0,.08,0,.1,0,.11-.03.18-.1.23-.07.05-.16.08-.27.09l-1.23.11-.24-.93c-.15.3-.38.54-.68.74-.3.19-.63.28-.99.28s-.65-.07-.91-.2c-.26-.13-.46-.31-.62-.53s-.28-.46-.36-.74c-.08-.27-.12-.54-.12-.81,0-.55.11-1.05.33-1.5.22-.45.53-.82.94-1.1.41-.28.88-.42,1.43-.42.11,0,.23.01.37.04.14.02.29.07.45.12v-1.93ZM395.9,163.51c-.11-.05-.23-.09-.37-.15-.14-.05-.3-.07-.48-.07-.29,0-.53.09-.72.27-.19.18-.33.42-.42.72-.09.3-.13.65-.13,1.03,0,.4.05.75.14,1.05.09.3.22.53.38.7.16.17.36.25.58.25.16,0,.3-.04.42-.12.12-.08.23-.18.32-.3.09-.14.16-.31.21-.5s.07-.42.07-.67v-2.21Z"/><path class="uuid-bfb7af1a-8f27-45c4-a243-d530e3613afc" d="M401.65,167.86l-.3-.97c-.18.35-.42.62-.7.79s-.58.26-.87.26-.53-.06-.73-.18-.34-.28-.44-.47c-.1-.2-.15-.41-.15-.64s.04-.42.11-.59c.07-.17.13-.31.18-.4l2.49-.78v-.78c0-.28-.08-.49-.23-.63s-.35-.21-.59-.21c-.08,0-.17,0-.27.02-.1.01-.18.03-.26.04l-.09,1.13h-.38c-.26,0-.45-.05-.56-.15-.11-.1-.17-.22-.17-.35,0-.18.07-.34.22-.49.15-.15.32-.27.5-.38.27-.15.55-.25.84-.32s.55-.1.79-.1c.25,0,.46.03.63.08.17.05.31.12.43.23.16.13.28.29.34.49.07.2.1.46.1.78v2.97h.67s.01.07.02.12c0,.04,0,.08,0,.12,0,.13-.04.21-.13.25s-.17.06-.25.07l-1.23.11ZM401.24,165.38l-.77.2c-.3.07-.5.2-.61.37s-.17.35-.17.54c0,.18.06.34.18.48.12.14.27.21.47.21.15,0,.28-.04.39-.12.1-.08.19-.17.26-.28.07-.11.12-.21.16-.3.05-.12.08-.25.09-.41.01-.15.02-.27.02-.35v-.33Z"/><path class="uuid-bfb7af1a-8f27-45c4-a243-d530e3613afc" d="M406.88,161.62l-.73-.19v-.41h2.29l1.48,3.76c.07.19.15.38.22.57.07.19.14.38.21.57l1.98-4.9h1.84c.09,0,.16.02.2.07.04.05.06.11.06.2v.25h-.61v5.74h.76v.24c0,.09-.02.16-.07.21-.04.05-.11.08-.21.08h-2.56v-.44l.77-.19v-3.95c0-.16,0-.32,0-.47,0-.16,0-.32.02-.47l-2.32,5.51c-.17,0-.31-.03-.41-.09-.1-.06-.18-.15-.24-.27s-.13-.28-.2-.47l-1.37-3.34c-.07-.16-.14-.35-.22-.57-.08-.22-.15-.45-.23-.68v4.91h.73v.26c0,.09-.02.15-.07.19-.04.04-.11.07-.21.07h-1.94v-.41l.73-.19.08-.83v-4.75Z"/><path class="uuid-bfb7af1a-8f27-45c4-a243-d530e3613afc" d="M418.45,167.86l-.3-.97c-.18.35-.42.62-.7.79s-.58.26-.87.26-.53-.06-.73-.18-.34-.28-.44-.47c-.1-.2-.15-.41-.15-.64s.04-.42.11-.59c.07-.17.13-.31.18-.4l2.49-.78v-.78c0-.28-.08-.49-.23-.63s-.35-.21-.59-.21c-.08,0-.17,0-.27.02-.1.01-.18.03-.26.04l-.09,1.13h-.38c-.26,0-.45-.05-.56-.15-.11-.1-.17-.22-.17-.35,0-.18.07-.34.22-.49.15-.15.32-.27.5-.38.27-.15.55-.25.84-.32s.55-.1.79-.1c.25,0,.46.03.63.08.17.05.31.12.43.23.16.13.28.29.34.49.07.2.1.46.1.78v2.97h.67s.01.07.02.12c0,.04,0,.08,0,.12,0,.13-.04.21-.13.25s-.17.06-.25.07l-1.23.11ZM418.05,165.38l-.77.2c-.3.07-.5.2-.61.37s-.17.35-.17.54c0,.18.06.34.18.48.12.14.27.21.47.21.15,0,.28-.04.39-.12.1-.08.19-.17.26-.28.07-.11.12-.21.16-.3.05-.12.08-.25.09-.41.01-.15.02-.27.02-.35v-.33Z"/><path class="uuid-bfb7af1a-8f27-45c4-a243-d530e3613afc" d="M420.59,167.8v-.41l.69-.19v-3.78h-.69v-.27c0-.09.03-.17.08-.21s.13-.08.23-.08l1.41-.1.15,1.01c.14-.33.34-.6.6-.81.26-.2.52-.3.8-.3.22,0,.4.04.54.13.14.09.24.2.31.34.07.14.1.27.1.39,0,.23-.08.42-.23.54s-.34.2-.56.2h-.22l-.46-.85c-.12.07-.24.18-.35.33-.11.16-.2.32-.25.5-.03.1-.06.21-.09.33-.02.12-.04.27-.05.43-.01.16-.02.36-.02.59v1.67h.99v.23c0,.09-.02.16-.07.21-.04.06-.12.08-.23.08h-2.7Z"/><path class="uuid-bfb7af1a-8f27-45c4-a243-d530e3613afc" d="M425.71,160.89l-.68-.09v-.15c0-.11.03-.2.08-.26.05-.06.13-.09.24-.1l1.67-.08v3.81c0,.23,0,.46-.01.68,0,.22-.01.44-.01.65l1.65-1.91-.81-.18v-.42h2.54v.26c0,.08-.02.15-.06.21-.04.06-.11.08-.21.08h-.43l-1.3,1.28,1.75,2.51h.6v.23c0,.13-.04.22-.11.26-.07.04-.15.06-.22.07l-1.35.17-1.55-2.38-.06.05c-.09.1-.17.2-.24.3-.07.1-.11.21-.14.34s-.04.3-.04.5v.56h.62v.24c0,.09-.02.16-.06.21-.04.05-.11.08-.22.08h-2.35v-.41l.69-.19v-6.31Z"/><path class="uuid-bfb7af1a-8f27-45c4-a243-d530e3613afc" d="M431.32,163.43l-.52-.12v-.47h2.81v.27c0,.1-.02.17-.07.21-.05.04-.12.07-.21.07h-.6l.84,2.28c.08.21.15.43.21.65.06.22.12.42.18.61l1.09-3.43-.78-.21v-.45h2v.26c0,.09-.02.16-.06.21-.04.05-.11.08-.22.08h-.25c-.06.16-.14.39-.25.68-.1.3-.22.62-.35.97-.13.35-.25.69-.38,1.02-.12.33-.24.62-.33.88s-.17.42-.22.52c-.09.15-.2.26-.33.33-.13.07-.29.11-.49.11-.07,0-.14,0-.21,0-.07,0-.15-.02-.23-.03l-1.64-4.43Z"/><path class="uuid-bfb7af1a-8f27-45c4-a243-d530e3613afc" d="M439.71,167.86l-.3-.97c-.18.35-.42.62-.7.79s-.58.26-.87.26-.53-.06-.73-.18-.34-.28-.44-.47c-.1-.2-.15-.41-.15-.64s.04-.42.11-.59c.07-.17.13-.31.18-.4l2.49-.78v-.78c0-.28-.08-.49-.23-.63s-.35-.21-.59-.21c-.08,0-.17,0-.27.02-.1.01-.18.03-.26.04l-.09,1.13h-.38c-.26,0-.45-.05-.56-.15-.11-.1-.17-.22-.17-.35,0-.18.07-.34.22-.49.15-.15.32-.27.5-.38.27-.15.55-.25.84-.32s.55-.1.79-.1c.25,0,.46.03.63.08.17.05.31.12.43.23.16.13.28.29.34.49.07.2.1.46.1.78v2.97h.67s.01.07.02.12c0,.04,0,.08,0,.12,0,.13-.04.21-.13.25s-.17.06-.25.07l-1.23.11ZM439.31,165.38l-.77.2c-.3.07-.5.2-.61.37s-.17.35-.17.54c0,.18.06.34.18.48.12.14.27.21.47.21.15,0,.28-.04.39-.12.1-.08.19-.17.26-.28.07-.11.12-.21.16-.3.05-.12.08-.25.09-.41.01-.15.02-.27.02-.35v-.33Z"/><path class="uuid-bfb7af1a-8f27-45c4-a243-d530e3613afc" d="M441.86,167.8v-.41l.69-.19v-3.78h-.69v-.27c0-.09.03-.17.08-.21s.13-.08.23-.08l1.41-.1.15,1.01c.14-.33.34-.6.6-.81.26-.2.52-.3.8-.3.22,0,.4.04.54.13.14.09.24.2.31.34.07.14.1.27.1.39,0,.23-.08.42-.23.54s-.34.2-.56.2h-.22l-.46-.85c-.12.07-.24.18-.35.33-.11.16-.2.32-.25.5-.03.1-.06.21-.09.33-.02.12-.04.27-.05.43-.01.16-.02.36-.02.59v1.67h.99v.23c0,.09-.02.16-.07.21-.04.06-.12.08-.23.08h-2.7Z"/><path class="uuid-bfb7af1a-8f27-45c4-a243-d530e3613afc" d="M447.15,163.42h-.67v-.53l.71-.19.46-1.22s.1-.01.15-.02c.05,0,.1-.01.15-.01.15,0,.27.04.34.12s.11.2.11.36v.91h1.51v.23c0,.13-.03.23-.08.28s-.13.08-.25.08h-1.14v2.85c0,.24.03.42.1.55.06.13.15.21.25.25.1.04.2.07.31.07.14,0,.28-.02.41-.07.13-.05.27-.1.42-.16.07.08.11.15.11.22,0,.13-.1.26-.3.4-.15.11-.33.2-.56.29-.22.09-.46.13-.7.13-.12,0-.25-.01-.4-.04-.14-.03-.28-.08-.41-.17-.13-.09-.24-.22-.34-.39-.07-.13-.12-.28-.15-.45-.03-.17-.05-.39-.05-.66v-2.82Z"/><path class="uuid-bfb7af1a-8f27-45c4-a243-d530e3613afc" d="M452.65,167.98c-.52,0-.96-.12-1.32-.35-.36-.23-.62-.55-.8-.94s-.27-.83-.27-1.32c0-.52.11-.98.33-1.39.22-.41.52-.73.91-.97.39-.24.84-.36,1.34-.36.54,0,.98.12,1.33.34.35.23.62.54.8.94s.27.83.27,1.32c0,.53-.11,1-.33,1.41-.22.41-.53.74-.92.97-.39.23-.84.35-1.34.35ZM452.81,167.4c.26,0,.47-.09.63-.26s.27-.41.34-.72c.07-.31.1-.65.1-1.04,0-.36-.04-.7-.12-1.03-.08-.33-.2-.59-.38-.8-.17-.21-.41-.32-.71-.32-.26,0-.47.09-.62.26-.15.17-.27.41-.33.71-.07.3-.1.64-.1,1.02,0,.28.02.55.07.81.04.26.11.49.21.7.1.21.22.37.37.49.15.12.33.18.54.18Z"/><path class="uuid-bfb7af1a-8f27-45c4-a243-d530e3613afc" d="M456,163.43l-.52-.12v-.47h2.81v.27c0,.1-.02.17-.07.21-.05.04-.12.07-.21.07h-.6l.84,2.28c.08.21.15.43.21.65.06.22.12.42.18.61l1.09-3.43-.78-.21v-.45h2v.26c0,.09-.02.16-.06.21-.04.05-.11.08-.22.08h-.25c-.06.16-.14.39-.25.68-.1.3-.22.62-.35.97-.13.35-.25.69-.38,1.02-.12.33-.24.62-.33.88s-.17.42-.22.52c-.09.15-.2.26-.33.33-.13.07-.29.11-.49.11-.07,0-.14,0-.21,0-.07,0-.15-.02-.23-.03l-1.64-4.43Z"/><path class="uuid-bfb7af1a-8f27-45c4-a243-d530e3613afc" d="M464.4,167.86l-.3-.97c-.18.35-.42.62-.7.79s-.58.26-.87.26-.53-.06-.73-.18-.34-.28-.44-.47c-.1-.2-.15-.41-.15-.64s.04-.42.11-.59c.07-.17.13-.31.18-.4l2.49-.78v-.78c0-.28-.08-.49-.23-.63s-.35-.21-.59-.21c-.08,0-.17,0-.27.02-.1.01-.18.03-.26.04l-.09,1.13h-.38c-.26,0-.45-.05-.56-.15-.11-.1-.17-.22-.17-.35,0-.18.07-.34.22-.49.15-.15.32-.27.5-.38.27-.15.55-.25.84-.32s.55-.1.79-.1c.25,0,.46.03.63.08.17.05.31.12.43.23.16.13.28.29.34.49.07.2.1.46.1.78v2.97h.67s.01.07.02.12c0,.04,0,.08,0,.12,0,.13-.04.21-.13.25s-.17.06-.25.07l-1.23.11ZM464,165.38l-.77.2c-.3.07-.5.2-.61.37s-.17.35-.17.54c0,.18.06.34.18.48.12.14.27.21.47.21.15,0,.28-.04.39-.12.1-.08.19-.17.26-.28.07-.11.12-.21.16-.3.05-.12.08-.25.09-.41.01-.15.02-.27.02-.35v-.33ZM462.9,162.27l-.35-.26.77-1.51c.1-.2.22-.36.35-.49s.29-.19.48-.19c.13,0,.24.03.34.08.1.06.19.14.28.24l.16.17-2.03,1.96Z"/><path class="uuid-bfb7af1a-8f27-45c4-a243-d530e3613afc" d="M474.5,167.8l-.52-.47c-.3.19-.65.35-1.05.46-.4.11-.8.17-1.2.17-.5,0-.91-.06-1.25-.18-.34-.12-.61-.27-.83-.47-.21-.2-.36-.41-.46-.64-.09-.23-.14-.46-.14-.69,0-.42.12-.8.37-1.14.24-.34.59-.63,1.02-.87-.16-.21-.3-.42-.41-.65-.11-.22-.17-.46-.17-.72,0-.32.09-.61.28-.87.18-.26.44-.46.76-.62.32-.15.69-.23,1.1-.23.36,0,.67.05.92.16.25.1.44.24.58.41.13.17.2.35.2.55,0,.21-.08.38-.23.48-.15.11-.34.17-.54.17h-.34l-.28-1.14c-.08-.05-.17-.09-.26-.11-.09-.02-.17-.03-.22-.03-.28,0-.48.09-.62.27-.14.18-.21.38-.21.6,0,.23.07.46.21.68.14.22.32.43.54.64l2.79,2.57c.1-.16.18-.33.24-.51.06-.18.09-.36.09-.55,0-.15-.02-.3-.06-.44-.04-.14-.08-.24-.13-.31h-.97c-.05-.09-.08-.17-.11-.26s-.04-.17-.04-.26c0-.21.07-.37.21-.48.14-.1.29-.15.45-.15.28,0,.5.09.68.27s.31.4.4.67.14.53.14.78c0,.27-.04.54-.12.81-.08.27-.21.54-.39.79l.89.81h.4v.22c0,.19-.09.28-.26.28h-1.42ZM470.88,164.47c-.19.17-.33.36-.39.57-.07.21-.1.39-.1.54,0,.34.07.65.22.92.14.27.35.48.63.64.27.16.6.23.99.23.22,0,.45-.03.69-.1s.46-.17.67-.29l-2.7-2.5Z"/><path class="uuid-bfb7af1a-8f27-45c4-a243-d530e3613afc" d="M481.38,161.62l-.95-.19v-.41h2.72c.11,0,.18.02.23.07.04.05.07.12.07.22v.23h-.68v3.59c0,.4-.02.74-.07,1.03-.04.29-.12.53-.22.73s-.24.38-.42.54c-.27.23-.56.37-.85.43s-.56.09-.8.09c-.42,0-.78-.06-1.06-.17-.29-.12-.5-.27-.63-.46-.14-.19-.21-.39-.21-.6,0-.29.08-.5.25-.62.16-.13.34-.2.52-.2.1,0,.19.01.28.04s.17.06.25.09l.07,1.34c.05.03.13.05.24.08s.21.04.31.04c.26,0,.46-.07.6-.21s.23-.33.28-.56c.05-.23.08-.47.08-.73v-4.35Z"/><path class="uuid-bfb7af1a-8f27-45c4-a243-d530e3613afc" d="M487.23,167.86l-.3-.97c-.18.35-.42.62-.7.79s-.58.26-.87.26-.53-.06-.73-.18-.34-.28-.44-.47c-.1-.2-.15-.41-.15-.64s.04-.42.11-.59c.07-.17.13-.31.18-.4l2.49-.78v-.78c0-.28-.08-.49-.23-.63s-.35-.21-.59-.21c-.08,0-.17,0-.27.02-.1.01-.18.03-.26.04l-.09,1.13h-.38c-.26,0-.45-.05-.56-.15-.11-.1-.17-.22-.17-.35,0-.18.07-.34.22-.49.15-.15.32-.27.5-.38.27-.15.55-.25.84-.32s.55-.1.79-.1c.25,0,.46.03.63.08.17.05.31.12.43.23.16.13.28.29.34.49.07.2.1.46.1.78v2.97h.67s.01.07.02.12c0,.04,0,.08,0,.12,0,.13-.04.21-.13.25s-.17.06-.25.07l-1.23.11ZM486.83,165.38l-.77.2c-.3.07-.5.2-.61.37s-.17.35-.17.54c0,.18.06.34.18.48.12.14.27.21.47.21.15,0,.28-.04.39-.12.1-.08.19-.17.26-.28.07-.11.12-.21.16-.3.05-.12.08-.25.09-.41.01-.15.02-.27.02-.35v-.33Z"/><path class="uuid-bfb7af1a-8f27-45c4-a243-d530e3613afc" d="M490.03,160.89l-.68-.09v-.15c0-.11.03-.2.08-.26.05-.06.13-.09.24-.1l1.67-.08v3.81c0,.23,0,.46-.01.68,0,.22-.01.44-.01.65l1.65-1.91-.81-.18v-.42h2.54v.26c0,.08-.02.15-.06.21-.04.06-.11.08-.21.08h-.43l-1.3,1.28,1.75,2.51h.6v.23c0,.13-.04.22-.11.26-.07.04-.15.06-.22.07l-1.35.17-1.55-2.38-.06.05c-.09.1-.17.2-.24.3-.07.1-.11.21-.14.34s-.04.3-.04.5v.56h.62v.24c0,.09-.02.16-.06.21-.04.05-.11.08-.22.08h-2.35v-.41l.69-.19v-6.31Z"/><path class="uuid-bfb7af1a-8f27-45c4-a243-d530e3613afc" d="M499.6,167.86l-.27-.95c-.05.09-.13.21-.25.35-.12.14-.27.27-.45.38-.18.11-.36.18-.52.21-.17.04-.34.05-.5.05-.28,0-.52-.05-.73-.16-.21-.11-.38-.24-.5-.39s-.21-.34-.27-.55c-.06-.22-.09-.51-.09-.9v-2.49h-.67v-.26c0-.09.02-.17.07-.22.05-.05.12-.08.23-.09l1.67-.1v3.07c0,.16,0,.33.03.52.02.18.07.34.14.46.07.15.17.25.3.33.12.07.26.1.4.1.21,0,.4-.08.57-.25s.28-.36.35-.58c.05-.14.09-.3.1-.49.01-.19.02-.38.02-.57v-1.92h-.67v-.27c0-.07.02-.14.06-.2.04-.06.12-.09.24-.1l1.68-.1v4.45h.65s.01.07.02.12c0,.04,0,.08,0,.11,0,.14-.04.23-.13.27s-.16.06-.24.07l-1.23.1Z"/><path class="uuid-bfb7af1a-8f27-45c4-a243-d530e3613afc" d="M502.31,160.89l-.68-.09v-.15c0-.11.03-.2.08-.26.05-.06.13-.09.24-.1l1.67-.08v3.27c.14-.23.35-.43.62-.58.27-.16.57-.24.89-.24.35,0,.65.07.91.2.25.13.46.31.62.53.16.22.28.46.36.74.08.27.12.54.12.81,0,.53-.11,1.03-.33,1.49-.22.46-.53.83-.94,1.1-.41.28-.88.42-1.43.42-.16,0-.35-.02-.55-.07-.21-.05-.44-.13-.69-.25l-.38.24-.49-.07v-6.91ZM503.62,167.12c.1.04.22.09.35.14s.3.08.51.08c.3,0,.54-.09.73-.27.19-.18.33-.42.41-.72s.13-.65.13-1.03c0-.4-.05-.75-.14-1.05-.09-.3-.22-.53-.38-.7-.16-.17-.35-.25-.57-.25-.15,0-.29.04-.42.11-.12.07-.23.18-.33.31-.1.13-.17.3-.22.5-.05.2-.07.42-.07.66v2.23Z"/><path class="uuid-bfb7af1a-8f27-45c4-a243-d530e3613afc" d="M510.16,167.8v-.41l.71-.19v-5.58l-.71-.19v-.41h2.84c.3,0,.59.02.9.07.3.04.58.12.84.22s.47.26.62.46.24.46.24.79c0,.36-.14.68-.41.96-.28.28-.63.47-1.06.59.36.05.68.15.97.3.29.15.53.34.7.58.17.24.26.54.26.89,0,.37-.11.69-.33.98s-.56.52-1.01.69c-.45.17-1.01.25-1.69.25h-2.87ZM513.12,164.02c.23,0,.41-.04.54-.12s.24-.19.31-.32.12-.27.14-.42c.02-.15.04-.28.04-.41,0-.25-.03-.47-.1-.66-.06-.19-.18-.35-.34-.46-.16-.11-.38-.17-.65-.17-.11,0-.25,0-.41,0s-.28.01-.38.02v2.52h.85ZM512.27,164.48v2.84c.13,0,.29.02.47.03s.36.01.52.01c.44,0,.77-.13.97-.39.2-.26.3-.59.3-1,0-.55-.12-.93-.37-1.16-.25-.22-.6-.33-1.07-.33h-.83Z"/><path class="uuid-bfb7af1a-8f27-45c4-a243-d530e3613afc" d="M516.64,167.8v-.41l.69-.19v-3.78h-.69v-.27c0-.09.03-.17.08-.21s.13-.08.23-.08l1.41-.1.15,1.01c.14-.33.34-.6.6-.81.26-.2.52-.3.8-.3.22,0,.4.04.54.13.14.09.24.2.31.34.07.14.1.27.1.39,0,.23-.08.42-.23.54s-.34.2-.56.2h-.22l-.46-.85c-.12.07-.24.18-.35.33-.11.16-.2.32-.25.5-.03.1-.06.21-.09.33-.02.12-.04.27-.05.43-.01.16-.02.36-.02.59v1.67h.99v.23c0,.09-.02.16-.07.21-.04.06-.12.08-.23.08h-2.7ZM518.18,162.06l-.77-1.21c-.07-.11-.13-.2-.18-.28-.04-.08-.07-.15-.07-.22,0-.09.04-.17.11-.21.07-.05.16-.08.26-.11l1.22,1.14,1.21-1.14c.11.02.2.06.27.11.07.05.11.13.11.22,0,.07-.02.14-.07.22-.04.08-.1.17-.18.28l-.79,1.2h-1.14Z"/><path class="uuid-bfb7af1a-8f27-45c4-a243-d530e3613afc" d="M522.51,165.12c.01.42.1.78.25,1.07.15.29.36.52.62.67s.55.23.86.23c.14,0,.3-.02.48-.06.18-.04.41-.12.68-.25.03.03.05.07.07.12.02.04.03.08.03.12,0,.07-.02.12-.05.17-.03.05-.08.1-.14.16-.04.03-.13.1-.28.2-.14.1-.34.19-.58.27-.25.08-.54.12-.88.12-.47,0-.88-.11-1.23-.32-.35-.21-.63-.51-.82-.89-.19-.38-.29-.81-.29-1.3,0-.37.06-.71.18-1.04.12-.33.3-.62.52-.88s.5-.46.81-.61c.31-.15.66-.22,1.05-.22.46,0,.84.11,1.14.32.3.21.49.5.58.87.04.12.07.25.08.4.01.14.02.32.02.53v.33h-3.11ZM524.34,164.64c0-.18-.02-.35-.05-.51-.03-.16-.08-.31-.16-.43-.07-.13-.17-.22-.28-.29-.11-.07-.24-.1-.39-.1-.22,0-.4.07-.54.21-.14.14-.24.31-.31.51-.07.2-.1.41-.11.62h1.82Z"/><path class="uuid-bfb7af1a-8f27-45c4-a243-d530e3613afc" d="M528.96,163.32h-1.76l-.22,1.06h-.51v-1.59c.15,0,.29,0,.42,0s.3.01.5.02c.2.01.47.02.81.02h2.17s.02.08.02.12,0,.08,0,.12c0,.11-.02.21-.06.32-.04.11-.11.24-.21.39-.14.23-.31.49-.52.79-.21.3-.42.61-.63.92-.22.31-.42.6-.61.88-.19.27-.4.57-.64.9h1.82l.25-.9c.03-.09.07-.16.12-.2.05-.04.11-.05.19-.05.03,0,.07,0,.12.02.05.01.09.03.13.04v1.61h-4s-.02-.09-.03-.15c-.01-.06-.02-.11-.02-.17,0-.09.02-.19.06-.3.04-.12.11-.25.21-.4l2.41-3.46Z"/><path class="uuid-bfb7af1a-8f27-45c4-a243-d530e3613afc" d="M531,167.8v-.41l.76-.19v-3.78h-.75v-.27c0-.09.02-.15.07-.2.05-.05.11-.07.2-.08l1.77-.1v4.51h.73v.24c0,.09-.02.16-.06.21-.04.05-.12.08-.23.08h-2.49ZM533.04,161.14c0,.19-.07.36-.22.5s-.33.21-.55.21c-.21,0-.38-.07-.53-.21-.14-.14-.22-.31-.22-.5s.08-.36.23-.5c.15-.14.34-.21.54-.21s.38.07.53.21c.14.14.22.31.22.5Z"/><path class="uuid-bfb7af1a-8f27-45c4-a243-d530e3613afc" d="M537.59,167.8v-.41l.66-.19v-2.39c0-.13,0-.27-.02-.44-.01-.17-.04-.31-.08-.42-.06-.18-.15-.33-.28-.45-.13-.12-.29-.18-.47-.18-.14,0-.28.04-.41.12s-.25.19-.36.34c-.13.19-.22.41-.25.65s-.05.51-.05.8v2.05h.6v.24c0,.09-.02.16-.06.21-.04.05-.12.08-.23.08h-2.32v-.41l.69-.19v-3.78h-.69v-.27c0-.09.03-.17.08-.21s.13-.08.24-.08l1.44-.1.15.85c.17-.29.4-.51.69-.68.3-.17.61-.26.95-.26.28,0,.53.05.77.15s.43.25.57.46c.12.17.21.36.26.57.05.21.08.49.08.82v2.63h.63v.24c0,.09-.02.16-.06.21-.04.05-.11.08-.22.08h-2.33Z"/><path class="uuid-bfb7af1a-8f27-45c4-a243-d530e3613afc" d="M544.03,167.86l-.3-.97c-.18.35-.42.62-.7.79s-.58.26-.87.26-.53-.06-.73-.18-.34-.28-.44-.47c-.1-.2-.15-.41-.15-.64s.04-.42.11-.59c.07-.17.13-.31.18-.4l2.49-.78v-.78c0-.28-.08-.49-.23-.63s-.35-.21-.59-.21c-.08,0-.17,0-.27.02-.1.01-.18.03-.26.04l-.09,1.13h-.38c-.26,0-.45-.05-.56-.15-.11-.1-.17-.22-.17-.35,0-.18.07-.34.22-.49.15-.15.32-.27.5-.38.27-.15.55-.25.84-.32s.55-.1.79-.1c.25,0,.46.03.63.08.17.05.31.12.43.23.16.13.28.29.34.49.07.2.1.46.1.78v2.97h.67s.01.07.02.12c0,.04,0,.08,0,.12,0,.13-.04.21-.13.25s-.17.06-.25.07l-1.23.11ZM543.62,165.38l-.77.2c-.3.07-.5.2-.61.37s-.17.35-.17.54c0,.18.06.34.18.48.12.14.27.21.47.21.15,0,.28-.04.39-.12.1-.08.19-.17.26-.28.07-.11.12-.21.16-.3.05-.12.08-.25.09-.41.01-.15.02-.27.02-.35v-.33Z"/><path class="uuid-bfb7af1a-8f27-45c4-a243-d530e3613afc" d="M459.52,224.61l.15.07c1.79-2.59,1.79-4.4,3.31-4.4.89,0,1.75.74,1.75,1.63,0,1.55-1.79,1.48-4.43,3.37l.07.15c2.09-.37,3.58-1.22,4.4-1.22,1.01,0,1.56.81,1.56,1.67s-.52,1.59-1.56,1.59c-.82,0-2.31-.81-4.4-1.22l-.07.18c2.61,1.81,4.51,1.74,4.51,3.29,0,.85-.78,1.7-1.68,1.7-1.56,0-1.56-1.78-3.43-4.4l-.15.07c.37,2.07,1.23,3.59,1.23,4.37,0,1-.82,1.55-1.68,1.55s-1.6-.52-1.6-1.55c0-.78.82-2.29,1.19-4.33l-.15-.07c-1.82,2.55-1.75,4.37-3.31,4.37-.86,0-1.75-.74-1.75-1.63,0-1.55,1.79-1.48,4.43-3.33l-.07-.18c-2.05.37-3.58,1.22-4.36,1.22-1.01,0-1.56-.81-1.56-1.67s.52-1.59,1.56-1.59c.78,0,2.31.85,4.36,1.22l.07-.18c-2.57-1.78-4.47-1.74-4.47-3.26,0-.89.78-1.7,1.68-1.7,1.56,0,1.53,1.74,3.39,4.37l.15-.07c-.37-2.07-1.19-3.55-1.19-4.37,0-1,.82-1.55,1.68-1.55s1.6.52,1.6,1.55c0,.81-.86,2.29-1.23,4.37Z"/><path class="uuid-bfb7af1a-8f27-45c4-a243-d530e3613afc" d="M405.66,264v-.41l1.32-.18v-4.82l-1.23.18c-.03-.05-.05-.1-.08-.14s-.04-.08-.04-.11c0-.04,0-.08.03-.11.02-.03.07-.07.14-.1l1.92-1.01h.53v6.18h1.26v.24c0,.09-.02.16-.06.21-.04.05-.11.08-.22.08h-3.58Z"/><path class="uuid-bfb7af1a-8f27-45c4-a243-d530e3613afc" d="M410.41,264v-.41l1.32-.18v-4.82l-1.23.18c-.03-.05-.05-.1-.08-.14s-.04-.08-.04-.11c0-.04,0-.08.03-.11.02-.03.07-.07.14-.1l1.92-1.01h.53v6.18h1.26v.24c0,.09-.02.16-.06.21-.04.05-.11.08-.22.08h-3.58Z"/><path class="uuid-bfb7af1a-8f27-45c4-a243-d530e3613afc" d="M416.76,259.88c0,.21-.08.38-.23.53-.15.15-.34.22-.54.22s-.4-.07-.55-.22c-.15-.15-.23-.32-.23-.53,0-.13.04-.26.11-.38s.16-.21.28-.28c.11-.07.24-.1.38-.1.15,0,.28.03.39.1.11.07.21.16.28.28.07.12.11.24.11.38ZM416.76,263.19c0,.2-.08.38-.23.53-.15.15-.34.22-.54.22s-.4-.07-.55-.22c-.15-.15-.23-.33-.23-.53,0-.13.04-.26.11-.38.07-.12.16-.21.28-.28.11-.07.24-.11.38-.11.15,0,.28.04.39.11.11.07.21.16.28.28.07.12.11.24.11.38Z"/><path class="uuid-bfb7af1a-8f27-45c4-a243-d530e3613afc" d="M420.42,264.15c-.46,0-.84-.09-1.16-.28-.32-.19-.58-.45-.77-.77s-.34-.67-.42-1.05-.13-.76-.13-1.14c0-.69.1-1.31.31-1.87.21-.56.53-1,.95-1.33s.95-.5,1.59-.5c.54,0,1,.14,1.36.43s.64.69.83,1.19.28,1.07.28,1.7c0,.5-.06.97-.18,1.41-.12.44-.3.82-.54,1.15s-.54.59-.89.78c-.35.19-.76.28-1.22.28ZM420.81,263.61c.36,0,.64-.2.82-.61.18-.41.28-1.03.28-1.86,0-.47-.03-.91-.1-1.31-.06-.41-.16-.77-.29-1.08-.13-.31-.28-.56-.47-.73-.18-.17-.4-.26-.66-.26-.22,0-.41.08-.58.24-.16.16-.29.43-.38.8s-.14.89-.14,1.54c0,.61.06,1.17.18,1.66.12.49.29.89.52,1.18.22.29.49.44.81.44Z"/><path class="uuid-bfb7af1a-8f27-45c4-a243-d530e3613afc" d="M426.69,264.15c-.46,0-.84-.09-1.16-.28-.32-.19-.58-.45-.77-.77s-.34-.67-.42-1.05-.13-.76-.13-1.14c0-.69.1-1.31.31-1.87.21-.56.53-1,.95-1.33s.95-.5,1.59-.5c.54,0,1,.14,1.36.43s.64.69.83,1.19.28,1.07.28,1.7c0,.5-.06.97-.18,1.41-.12.44-.3.82-.54,1.15s-.54.59-.89.78c-.35.19-.76.28-1.22.28ZM427.08,263.61c.36,0,.64-.2.82-.61.18-.41.28-1.03.28-1.86,0-.47-.03-.91-.1-1.31-.06-.41-.16-.77-.29-1.08-.13-.31-.28-.56-.47-.73-.18-.17-.4-.26-.66-.26-.22,0-.41.08-.58.24-.16.16-.29.43-.38.8s-.14.89-.14,1.54c0,.61.06,1.17.18,1.66.12.49.29.89.52,1.18.22.29.49.44.81.44Z"/><path class="uuid-bfb7af1a-8f27-45c4-a243-d530e3613afc" d="M432.83,261.52v-.78h7.93v.78h-7.93Z"/><path class="uuid-bfb7af1a-8f27-45c4-a243-d530e3613afc" d="M444,262.32h.51l.32,1.05c.11.07.24.12.41.17s.32.08.47.08c.25,0,.45-.06.6-.17.15-.11.23-.25.23-.44,0-.09-.03-.18-.09-.28-.06-.1-.17-.21-.33-.34-.16-.13-.4-.27-.7-.42-.27-.14-.51-.28-.71-.43s-.36-.32-.48-.51c-.11-.19-.17-.42-.17-.68,0-.33.09-.6.28-.82.18-.22.42-.39.72-.5.3-.11.61-.17.96-.17.17,0,.36.01.55.04s.37.07.53.1c.16.04.28.07.35.1v1.3s-.08.03-.13.04c-.05.02-.1.03-.14.03-.08,0-.14-.02-.19-.06-.05-.04-.08-.09-.1-.17l-.17-.63c-.08-.05-.21-.09-.38-.14-.17-.05-.34-.08-.49-.08-.11,0-.21.02-.31.05-.1.03-.18.09-.25.16-.06.07-.1.18-.1.31,0,.15.05.28.15.39.1.12.23.23.41.33.17.1.38.21.6.33.27.15.51.29.71.44.2.15.36.31.47.5.11.19.17.41.17.67,0,.29-.08.55-.25.78-.17.24-.41.42-.72.56s-.68.21-1.1.21c-.19,0-.39-.02-.6-.05-.21-.04-.41-.08-.59-.13-.18-.05-.32-.09-.42-.13v-1.53Z"/><path class="uuid-bfb7af1a-8f27-45c4-a243-d530e3613afc" d="M448.48,259.63l-.52-.12v-.47h2.81v.27c0,.1-.02.17-.07.21-.05.04-.12.07-.21.07h-.6l.84,2.28c.08.21.15.43.21.65.06.22.12.42.18.61l1.09-3.43-.78-.21v-.45h2v.26c0,.09-.02.16-.06.21-.04.05-.11.08-.22.08h-.25c-.06.16-.14.39-.25.68-.1.3-.22.62-.35.97-.13.35-.25.69-.38,1.02-.12.33-.24.62-.33.88s-.17.42-.22.52c-.09.15-.2.26-.33.33-.13.07-.29.11-.49.11-.07,0-.14,0-.21,0-.07,0-.15-.02-.23-.03l-1.64-4.43Z"/><path class="uuid-bfb7af1a-8f27-45c4-a243-d530e3613afc" d="M456.88,264.06l-.3-.97c-.18.35-.42.62-.7.79s-.58.26-.87.26-.53-.06-.73-.18-.34-.28-.44-.47c-.1-.2-.15-.41-.15-.64s.04-.42.11-.59c.07-.17.13-.31.18-.4l2.49-.78v-.78c0-.28-.08-.49-.23-.63s-.35-.21-.59-.21c-.08,0-.17,0-.27.02-.1.01-.18.03-.26.04l-.09,1.13h-.38c-.26,0-.45-.05-.56-.15-.11-.1-.17-.22-.17-.35,0-.18.07-.34.22-.49.15-.15.32-.27.5-.38.27-.15.55-.25.84-.32s.55-.1.79-.1c.25,0,.46.03.63.08.17.05.31.12.43.23.16.13.28.29.34.49.07.2.1.46.1.78v2.97h.67s.01.07.02.12c0,.04,0,.08,0,.12,0,.13-.04.21-.13.25s-.17.06-.25.07l-1.23.11ZM456.48,261.58l-.77.2c-.3.07-.5.2-.61.37s-.17.35-.17.54c0,.18.06.34.18.48.12.14.27.21.47.21.15,0,.28-.04.39-.12.1-.08.19-.17.26-.28.07-.11.12-.21.16-.3.05-.12.08-.25.09-.41.01-.15.02-.27.02-.35v-.33Z"/><path class="uuid-bfb7af1a-8f27-45c4-a243-d530e3613afc" d="M459.54,259.62h-.67v-.53l.71-.19.46-1.22s.1-.01.15-.02c.05,0,.1-.01.15-.01.15,0,.27.04.34.12s.11.2.11.36v.91h1.51v.23c0,.13-.03.23-.08.28s-.13.08-.25.08h-1.14v2.85c0,.24.03.42.1.55.06.13.15.21.25.25.1.04.2.07.31.07.14,0,.28-.02.41-.07.13-.05.27-.1.42-.16.07.08.11.15.11.22,0,.13-.1.26-.3.4-.15.11-.33.2-.56.29-.22.09-.46.13-.7.13-.12,0-.25-.01-.4-.04-.14-.03-.28-.08-.41-.17-.13-.09-.24-.22-.34-.39-.07-.13-.12-.28-.15-.45-.03-.17-.05-.39-.05-.66v-2.82Z"/><path class="uuid-bfb7af1a-8f27-45c4-a243-d530e3613afc" d="M463.93,261.32c.01.42.1.78.25,1.07.15.29.36.52.62.67s.55.23.86.23c.14,0,.3-.02.48-.06.18-.04.41-.12.68-.25.03.03.05.07.07.12.02.04.03.08.03.12,0,.07-.02.12-.05.17-.03.05-.08.1-.14.16-.04.03-.13.1-.28.2-.14.1-.34.19-.58.27-.25.08-.54.12-.88.12-.47,0-.88-.11-1.23-.32-.35-.21-.63-.51-.82-.89-.19-.38-.29-.81-.29-1.3,0-.37.06-.71.18-1.04.12-.33.3-.62.52-.88s.5-.46.81-.61c.31-.15.66-.22,1.05-.22.46,0,.84.11,1.14.32.3.21.49.5.58.87.04.12.07.25.08.4.01.14.02.32.02.53v.33h-3.11ZM465.76,260.84c0-.18-.02-.35-.05-.51-.03-.16-.08-.31-.16-.43-.07-.13-.17-.22-.28-.29-.11-.07-.24-.1-.39-.1-.22,0-.4.07-.54.21-.14.14-.24.31-.31.51-.07.2-.1.41-.11.62h1.82Z"/><path class="uuid-bfb7af1a-8f27-45c4-a243-d530e3613afc" d="M468.2,257.09l-.68-.09v-.15c0-.11.03-.2.08-.26.05-.06.13-.09.24-.1l1.67-.08v3.27c.14-.23.35-.43.62-.58.27-.16.57-.24.89-.24.35,0,.65.07.91.2.25.13.46.31.62.53.16.22.28.46.36.74.08.27.12.54.12.81,0,.53-.11,1.03-.33,1.49-.22.46-.53.83-.94,1.1-.41.28-.88.42-1.43.42-.16,0-.35-.02-.55-.07-.21-.05-.44-.13-.69-.25l-.38.24-.49-.07v-6.91ZM469.51,263.32c.1.04.22.09.35.14s.3.08.51.08c.3,0,.54-.09.73-.27.19-.18.33-.42.41-.72s.13-.65.13-1.03c0-.4-.05-.75-.14-1.05-.09-.3-.22-.53-.38-.7-.16-.17-.35-.25-.57-.25-.15,0-.29.04-.42.11-.12.07-.23.18-.33.31-.1.13-.17.3-.22.5-.05.2-.07.42-.07.66v2.23Z"/><path class="uuid-bfb7af1a-8f27-45c4-a243-d530e3613afc" d="M476.96,264v-.41l.66-.19v-2.39c0-.13,0-.27-.02-.44-.01-.17-.04-.31-.08-.42-.06-.18-.15-.33-.28-.45-.13-.12-.29-.18-.47-.18-.14,0-.28.04-.41.12s-.25.19-.36.34c-.13.19-.22.41-.25.65s-.05.51-.05.8v2.05h.6v.24c0,.09-.02.16-.06.21-.04.05-.12.08-.23.08h-2.32v-.41l.69-.19v-3.78h-.69v-.27c0-.09.03-.17.08-.21s.13-.08.24-.08l1.44-.1.15.85c.17-.29.4-.51.69-.68.3-.17.61-.26.95-.26.28,0,.53.05.77.15s.43.25.57.46c.12.17.21.36.26.57.05.21.08.49.08.82v2.63h.63v.24c0,.09-.02.16-.06.21-.04.05-.11.08-.22.08h-2.33Z"/><path class="uuid-bfb7af1a-8f27-45c4-a243-d530e3613afc" d="M480.14,264v-.41l.76-.19v-3.78h-.75v-.27c0-.09.02-.15.07-.2.05-.05.11-.07.2-.08l1.77-.1v4.51h.73v.24c0,.09-.02.16-.06.21-.04.05-.12.08-.23.08h-2.49ZM480.78,258.47l-.35-.26.78-1.51c.1-.2.22-.36.35-.49s.29-.19.48-.19c.13,0,.24.03.34.08.1.06.19.14.28.24l.16.17-2.03,1.96Z"/><path class="uuid-bfb7af1a-8f27-45c4-a243-d530e3613afc" d="M488.17,264.18c-.52,0-.96-.12-1.32-.35-.36-.23-.62-.55-.8-.94s-.27-.83-.27-1.32c0-.52.11-.98.33-1.39.22-.41.52-.73.91-.97.39-.24.84-.36,1.34-.36.54,0,.98.12,1.33.34.35.23.62.54.8.94s.27.83.27,1.32c0,.53-.11,1-.33,1.41-.22.41-.53.74-.92.97-.39.23-.84.35-1.34.35ZM488.33,263.6c.26,0,.47-.09.63-.26s.27-.41.34-.72c.07-.31.1-.65.1-1.04,0-.36-.04-.7-.12-1.03-.08-.33-.2-.59-.38-.8-.17-.21-.41-.32-.71-.32-.26,0-.47.09-.62.26-.15.17-.27.41-.33.71-.07.3-.1.64-.1,1.02,0,.28.02.55.07.81.04.26.11.49.21.7.1.21.22.37.37.49.15.12.33.18.54.18Z"/><path class="uuid-bfb7af1a-8f27-45c4-a243-d530e3613afc" d="M491.96,257.09l-.68-.09v-.15c0-.11.03-.2.08-.26.05-.06.13-.09.24-.1l1.67-.08v3.27c.14-.23.35-.43.62-.58.27-.16.57-.24.89-.24.35,0,.65.07.91.2.25.13.46.31.62.53.16.22.28.46.36.74.08.27.12.54.12.81,0,.53-.11,1.03-.33,1.49-.22.46-.53.83-.94,1.1-.41.28-.88.42-1.43.42-.16,0-.35-.02-.55-.07-.21-.05-.44-.13-.69-.25l-.38.24-.49-.07v-6.91ZM493.26,263.32c.1.04.22.09.35.14s.3.08.51.08c.3,0,.54-.09.73-.27.19-.18.33-.42.41-.72s.13-.65.13-1.03c0-.4-.05-.75-.14-1.05-.09-.3-.22-.53-.38-.7-.16-.17-.35-.25-.57-.25-.15,0-.29.04-.42.11-.12.07-.23.18-.33.31-.1.13-.17.3-.22.5-.05.2-.07.42-.07.66v2.23Z"/><path class="uuid-bfb7af1a-8f27-45c4-a243-d530e3613afc" d="M497.45,264v-.41l.69-.19v-3.78h-.69v-.27c0-.09.03-.17.08-.21s.13-.08.23-.08l1.41-.1.15,1.01c.14-.33.34-.6.6-.81.26-.2.52-.3.8-.3.22,0,.4.04.54.13.14.09.24.2.31.34.07.14.1.27.1.39,0,.23-.08.42-.23.54s-.34.2-.56.2h-.22l-.46-.85c-.12.07-.24.18-.35.33-.11.16-.2.32-.25.5-.03.1-.06.21-.09.33-.02.12-.04.27-.05.43-.01.16-.02.36-.02.59v1.67h.99v.23c0,.09-.02.16-.07.21-.04.06-.12.08-.23.08h-2.7ZM498.99,258.26l-.77-1.21c-.07-.11-.13-.2-.18-.28-.04-.08-.07-.15-.07-.22,0-.09.04-.17.11-.21.07-.05.16-.08.26-.11l1.22,1.14,1.21-1.14c.11.02.2.06.27.11.07.05.11.13.11.22,0,.07-.02.14-.07.22-.04.08-.1.17-.18.28l-.79,1.2h-1.14Z"/><path class="uuid-bfb7af1a-8f27-45c4-a243-d530e3613afc" d="M505.21,264.06l-.3-.97c-.18.35-.42.62-.7.79s-.58.26-.87.26-.53-.06-.73-.18-.34-.28-.44-.47c-.1-.2-.15-.41-.15-.64s.04-.42.11-.59c.07-.17.13-.31.18-.4l2.49-.78v-.78c0-.28-.08-.49-.23-.63s-.35-.21-.59-.21c-.08,0-.17,0-.27.02-.1.01-.18.03-.26.04l-.09,1.13h-.38c-.26,0-.45-.05-.56-.15-.11-.1-.17-.22-.17-.35,0-.18.07-.34.22-.49.15-.15.32-.27.5-.38.27-.15.55-.25.84-.32s.55-.1.79-.1c.25,0,.46.03.63.08.17.05.31.12.43.23.16.13.28.29.34.49.07.2.1.46.1.78v2.97h.67s.01.07.02.12c0,.04,0,.08,0,.12,0,.13-.04.21-.13.25s-.17.06-.25.07l-1.23.11ZM504.81,261.58l-.77.2c-.3.07-.5.2-.61.37s-.17.35-.17.54c0,.18.06.34.18.48.12.14.27.21.47.21.15,0,.28-.04.39-.12.1-.08.19-.17.26-.28.07-.11.12-.21.16-.3.05-.12.08-.25.09-.41.01-.15.02-.27.02-.35v-.33Z"/><path class="uuid-bfb7af1a-8f27-45c4-a243-d530e3613afc" d="M510.84,257.09l-.67-.09v-.16c0-.11.02-.19.08-.25.05-.06.13-.09.24-.1l1.67-.08v6.99h.67s.01.08.02.13c0,.05,0,.08,0,.1,0,.11-.03.18-.1.23-.07.05-.16.08-.27.09l-1.23.11-.24-.93c-.15.3-.38.54-.68.74-.3.19-.63.28-.99.28s-.65-.07-.91-.2c-.26-.13-.46-.31-.62-.53s-.28-.46-.36-.74c-.08-.27-.12-.54-.12-.81,0-.55.11-1.05.33-1.5.22-.45.53-.82.94-1.1.41-.28.88-.42,1.43-.42.11,0,.23.01.37.04.14.02.29.07.45.12v-1.93ZM510.84,259.71c-.11-.05-.23-.09-.37-.15-.14-.05-.3-.07-.48-.07-.29,0-.53.09-.72.27-.19.18-.33.42-.42.72-.09.3-.13.65-.13,1.03,0,.4.05.75.14,1.05.09.3.22.53.38.7.16.17.36.25.58.25.16,0,.3-.04.42-.12.12-.08.23-.18.32-.3.09-.14.16-.31.21-.5s.07-.42.07-.67v-2.21Z"/><path class="uuid-bfb7af1a-8f27-45c4-a243-d530e3613afc" d="M393.92,280v-.41l1.32-.18v-4.82l-1.23.18c-.03-.05-.05-.1-.08-.14s-.04-.08-.04-.11c0-.04,0-.08.03-.11.02-.03.07-.07.14-.1l1.92-1.01h.53v6.18h1.26v.24c0,.09-.02.16-.06.21-.04.05-.11.08-.22.08h-3.58Z"/><path class="uuid-bfb7af1a-8f27-45c4-a243-d530e3613afc" d="M398.66,280v-.41l1.32-.18v-4.82l-1.23.18c-.03-.05-.05-.1-.08-.14s-.04-.08-.04-.11c0-.04,0-.08.03-.11.02-.03.07-.07.14-.1l1.92-1.01h.53v6.18h1.26v.24c0,.09-.02.16-.06.21-.04.05-.11.08-.22.08h-3.58Z"/><path class="uuid-bfb7af1a-8f27-45c4-a243-d530e3613afc" d="M405.01,275.88c0,.21-.08.38-.23.53-.15.15-.34.22-.54.22s-.4-.07-.55-.22c-.15-.15-.23-.32-.23-.53,0-.13.04-.26.11-.38s.16-.21.28-.28c.11-.07.24-.1.38-.1.15,0,.28.03.39.1.11.07.21.16.28.28.07.12.11.24.11.38ZM405.01,279.19c0,.2-.08.38-.23.53-.15.15-.34.22-.54.22s-.4-.07-.55-.22c-.15-.15-.23-.33-.23-.53,0-.13.04-.26.11-.38.07-.12.16-.21.28-.28.11-.07.24-.11.38-.11.15,0,.28.04.39.11.11.07.21.16.28.28.07.12.11.24.11.38Z"/><path class="uuid-bfb7af1a-8f27-45c4-a243-d530e3613afc" d="M407.37,276.87s-.02-.07-.03-.1c0-.03-.01-.07-.01-.11,0-.11.03-.2.1-.26.06-.06.16-.1.3-.11.28-.02.51-.07.71-.16.2-.08.35-.21.45-.39.1-.18.16-.41.16-.69,0-.25-.05-.47-.15-.66s-.23-.34-.41-.46c-.17-.11-.38-.17-.61-.17-.13,0-.24,0-.33.02s-.17.03-.25.04l-.06,1.15h-.38c-.19,0-.34-.04-.46-.12-.12-.08-.18-.21-.18-.4,0-.24.11-.46.33-.65.22-.19.51-.35.86-.46.35-.11.72-.17,1.09-.17.42,0,.76.07,1.04.21.28.14.48.32.61.54.13.22.2.46.2.72,0,.34-.1.65-.31.93s-.47.52-.79.71c.27.05.51.14.73.29.22.15.39.33.52.56s.2.48.2.77c0,.43-.11.82-.34,1.16s-.54.61-.94.8c-.4.2-.85.29-1.36.29-.42,0-.77-.05-1.06-.17-.29-.11-.52-.26-.67-.44s-.24-.38-.24-.61c0-.13.03-.25.09-.35.06-.11.14-.2.25-.27.11-.07.25-.1.41-.1.06,0,.14.01.25.04.1.02.17.04.2.06v1.16c.14.06.29.1.43.12.15.02.28.03.38.03.24,0,.46-.05.65-.14.19-.09.35-.24.47-.43.12-.2.18-.45.18-.76,0-.25-.05-.48-.16-.71-.1-.22-.26-.41-.47-.54-.21-.14-.47-.21-.8-.21h-.62Z"/><path class="uuid-bfb7af1a-8f27-45c4-a243-d530e3613afc" d="M412.77,276.87s-.02-.07-.03-.1c0-.03-.01-.07-.01-.11,0-.11.03-.2.1-.26.06-.06.16-.1.3-.11.28-.02.51-.07.71-.16.2-.08.35-.21.45-.39.1-.18.16-.41.16-.69,0-.25-.05-.47-.15-.66s-.23-.34-.41-.46c-.17-.11-.38-.17-.61-.17-.13,0-.24,0-.33.02s-.17.03-.25.04l-.06,1.15h-.38c-.19,0-.34-.04-.46-.12-.12-.08-.18-.21-.18-.4,0-.24.11-.46.33-.65.22-.19.51-.35.86-.46.35-.11.72-.17,1.09-.17.42,0,.76.07,1.04.21.28.14.48.32.61.54.13.22.2.46.2.72,0,.34-.1.65-.31.93s-.47.52-.79.71c.27.05.51.14.73.29.22.15.39.33.52.56s.2.48.2.77c0,.43-.11.82-.34,1.16s-.54.61-.94.8c-.4.2-.85.29-1.36.29-.42,0-.77-.05-1.06-.17-.29-.11-.52-.26-.67-.44s-.24-.38-.24-.61c0-.13.03-.25.09-.35.06-.11.14-.2.25-.27.11-.07.25-.1.41-.1.06,0,.14.01.25.04.1.02.17.04.2.06v1.16c.14.06.29.1.43.12.15.02.28.03.38.03.24,0,.46-.05.65-.14.19-.09.35-.24.47-.43.12-.2.18-.45.18-.76,0-.25-.05-.48-.16-.71-.1-.22-.26-.41-.47-.54-.21-.14-.47-.21-.8-.21h-.62Z"/><path class="uuid-bfb7af1a-8f27-45c4-a243-d530e3613afc" d="M422.42,280.06l-.3-.97c-.18.35-.42.62-.7.79s-.58.26-.87.26-.53-.06-.73-.18-.34-.28-.44-.47c-.1-.2-.15-.41-.15-.64s.04-.42.11-.59c.07-.17.13-.31.18-.4l2.49-.78v-.78c0-.28-.08-.49-.23-.63s-.35-.21-.59-.21c-.08,0-.17,0-.27.02-.1.01-.18.03-.26.04l-.09,1.13h-.38c-.26,0-.45-.05-.56-.15-.11-.1-.17-.22-.17-.35,0-.18.07-.34.22-.49.15-.15.32-.27.5-.38.27-.15.55-.25.84-.32s.55-.1.79-.1c.25,0,.46.03.63.08.17.05.31.12.43.23.16.13.28.29.34.49.07.2.1.46.1.78v2.97h.67s.01.07.02.12c0,.04,0,.08,0,.12,0,.13-.04.21-.13.25s-.17.06-.25.07l-1.23.11ZM422.02,277.58l-.77.2c-.3.07-.5.2-.61.37s-.17.35-.17.54c0,.18.06.34.18.48.12.14.27.21.47.21.15,0,.28-.04.39-.12.1-.08.19-.17.26-.28.07-.11.12-.21.16-.3.05-.12.08-.25.09-.41.01-.15.02-.27.02-.35v-.33Z"/><path class="uuid-bfb7af1a-8f27-45c4-a243-d530e3613afc" d="M430.4,273.09l-.67-.09v-.16c0-.11.02-.19.08-.25.05-.06.13-.09.24-.1l1.67-.08v6.99h.67s.01.08.02.13c0,.05,0,.08,0,.1,0,.11-.03.18-.1.23-.07.05-.16.08-.27.09l-1.23.11-.24-.93c-.15.3-.38.54-.68.74-.3.19-.63.28-.99.28s-.65-.07-.91-.2c-.26-.13-.46-.31-.62-.53s-.28-.46-.36-.74c-.08-.27-.12-.54-.12-.81,0-.55.11-1.05.33-1.5.22-.45.53-.82.94-1.1.41-.28.88-.42,1.43-.42.11,0,.23.01.37.04.14.02.29.07.45.12v-1.93ZM430.4,275.71c-.11-.05-.23-.09-.37-.15-.14-.05-.3-.07-.48-.07-.29,0-.53.09-.72.27-.19.18-.33.42-.42.72-.09.3-.13.65-.13,1.03,0,.4.05.75.14,1.05.09.3.22.53.38.7.16.17.36.25.58.25.16,0,.3-.04.42-.12.12-.08.23-.18.32-.3.09-.14.16-.31.21-.5s.07-.42.07-.67v-2.21Z"/><path class="uuid-bfb7af1a-8f27-45c4-a243-d530e3613afc" d="M436.15,280.06l-.3-.97c-.18.35-.42.62-.7.79s-.58.26-.87.26-.53-.06-.73-.18-.34-.28-.44-.47c-.1-.2-.15-.41-.15-.64s.04-.42.11-.59c.07-.17.13-.31.18-.4l2.49-.78v-.78c0-.28-.08-.49-.23-.63s-.35-.21-.59-.21c-.08,0-.17,0-.27.02-.1.01-.18.03-.26.04l-.09,1.13h-.38c-.26,0-.45-.05-.56-.15-.11-.1-.17-.22-.17-.35,0-.18.07-.34.22-.49.15-.15.32-.27.5-.38.27-.15.55-.25.84-.32s.55-.1.79-.1c.25,0,.46.03.63.08.17.05.31.12.43.23.16.13.28.29.34.49.07.2.1.46.1.78v2.97h.67s.01.07.02.12c0,.04,0,.08,0,.12,0,.13-.04.21-.13.25s-.17.06-.25.07l-1.23.11ZM435.75,277.58l-.77.2c-.3.07-.5.2-.61.37s-.17.35-.17.54c0,.18.06.34.18.48.12.14.27.21.47.21.15,0,.28-.04.39-.12.1-.08.19-.17.26-.28.07-.11.12-.21.16-.3.05-.12.08-.25.09-.41.01-.15.02-.27.02-.35v-.33ZM434.65,274.47l-.35-.26.77-1.51c.1-.2.22-.36.35-.49s.29-.19.48-.19c.13,0,.24.03.34.08.1.06.19.14.28.24l.16.17-2.03,1.96Z"/><path class="uuid-bfb7af1a-8f27-45c4-a243-d530e3613afc" d="M438.26,280v-.41l.69-.19v-6.31l-.68-.09v-.15c0-.11.03-.2.08-.26.05-.06.13-.09.24-.1l1.67-.08v7.07h.62v.24c0,.09-.02.16-.06.21-.04.05-.11.08-.22.08h-2.35Z"/><path class="uuid-bfb7af1a-8f27-45c4-a243-d530e3613afc" d="M444.03,277.52v-.78h7.93v.78h-7.93Z"/><path class="uuid-bfb7af1a-8f27-45c4-a243-d530e3613afc" d="M457.66,275.52h-1.76l-.22,1.06h-.51v-1.59c.15,0,.29,0,.42,0s.3.01.5.02c.2.01.47.02.81.02h2.17s.02.08.02.12,0,.08,0,.12c0,.11-.02.21-.06.32-.04.11-.11.24-.21.39-.14.23-.31.49-.52.79-.21.3-.42.61-.63.92-.22.31-.42.6-.61.88-.19.27-.4.57-.64.9h1.82l.25-.9c.03-.09.07-.16.12-.2.05-.04.11-.05.19-.05.03,0,.07,0,.12.02.05.01.09.03.13.04v1.61h-4s-.02-.09-.03-.15c-.01-.06-.02-.11-.02-.17,0-.09.02-.19.06-.3.04-.12.11-.25.21-.4l2.41-3.46Z"/><path class="uuid-bfb7af1a-8f27-45c4-a243-d530e3613afc" d="M462.95,280.06l-.3-.97c-.18.35-.42.62-.7.79s-.58.26-.87.26-.53-.06-.73-.18-.34-.28-.44-.47c-.1-.2-.15-.41-.15-.64s.04-.42.11-.59c.07-.17.13-.31.18-.4l2.49-.78v-.78c0-.28-.08-.49-.23-.63s-.35-.21-.59-.21c-.08,0-.17,0-.27.02-.1.01-.18.03-.26.04l-.09,1.13h-.38c-.26,0-.45-.05-.56-.15-.11-.1-.17-.22-.17-.35,0-.18.07-.34.22-.49.15-.15.32-.27.5-.38.27-.15.55-.25.84-.32s.55-.1.79-.1c.25,0,.46.03.63.08.17.05.31.12.43.23.16.13.28.29.34.49.07.2.1.46.1.78v2.97h.67s.01.07.02.12c0,.04,0,.08,0,.12,0,.13-.04.21-.13.25s-.17.06-.25.07l-1.23.11ZM462.55,277.58l-.77.2c-.3.07-.5.2-.61.37s-.17.35-.17.54c0,.18.06.34.18.48.12.14.27.21.47.21.15,0,.28-.04.39-.12.1-.08.19-.17.26-.28.07-.11.12-.21.16-.3.05-.12.08-.25.09-.41.01-.15.02-.27.02-.35v-.33Z"/><path class="uuid-bfb7af1a-8f27-45c4-a243-d530e3613afc" d="M465.75,273.09l-.68-.09v-.15c0-.11.03-.2.08-.26.05-.06.13-.09.24-.1l1.67-.08v2.21c0,.19,0,.38,0,.55,0,.17,0,.36,0,.55.16-.26.39-.47.67-.62.29-.16.6-.24.93-.24.17,0,.33.02.49.06s.31.1.45.2c.14.09.26.2.35.34.12.17.21.36.26.57.05.21.08.49.08.82v2.63h.63v.24c0,.09-.02.16-.06.21-.04.05-.11.08-.22.08h-2.33v-.41l.66-.19v-2.39c0-.13,0-.27-.02-.44-.01-.17-.04-.31-.08-.42-.06-.18-.15-.33-.28-.45-.13-.12-.29-.18-.47-.18-.14,0-.28.04-.41.12s-.25.19-.36.34c-.13.19-.21.39-.25.61-.04.22-.06.46-.06.73v2.16h.6v.24c0,.09-.02.16-.06.21s-.12.08-.23.08h-2.33v-.41l.7-.19v-6.31Z"/><path class="uuid-bfb7af1a-8f27-45c4-a243-d530e3613afc" d="M471.55,280v-.41l.69-.19v-3.78h-.69v-.27c0-.09.03-.17.08-.21s.13-.08.23-.08l1.41-.1.15,1.01c.14-.33.34-.6.6-.81.26-.2.52-.3.8-.3.22,0,.4.04.54.13.14.09.24.2.31.34.07.14.1.27.1.39,0,.23-.08.42-.23.54s-.34.2-.56.2h-.22l-.46-.85c-.12.07-.24.18-.35.33-.11.16-.2.32-.25.5-.03.1-.06.21-.09.33-.02.12-.04.27-.05.43-.01.16-.02.36-.02.59v1.67h.99v.23c0,.09-.02.16-.07.21-.04.06-.12.08-.23.08h-2.7Z"/><path class="uuid-bfb7af1a-8f27-45c4-a243-d530e3613afc" d="M479.14,280.06l-.3-.97c-.18.35-.42.62-.7.79s-.58.26-.87.26-.53-.06-.73-.18-.34-.28-.44-.47c-.1-.2-.15-.41-.15-.64s.04-.42.11-.59c.07-.17.13-.31.18-.4l2.49-.78v-.78c0-.28-.08-.49-.23-.63s-.35-.21-.59-.21c-.08,0-.17,0-.27.02-.1.01-.18.03-.26.04l-.09,1.13h-.38c-.26,0-.45-.05-.56-.15-.11-.1-.17-.22-.17-.35,0-.18.07-.34.22-.49.15-.15.32-.27.5-.38.27-.15.55-.25.84-.32s.55-.1.79-.1c.25,0,.46.03.63.08.17.05.31.12.43.23.16.13.28.29.34.49.07.2.1.46.1.78v2.97h.67s.01.07.02.12c0,.04,0,.08,0,.12,0,.13-.04.21-.13.25s-.17.06-.25.07l-1.23.11ZM478.74,277.58l-.77.2c-.3.07-.5.2-.61.37s-.17.35-.17.54c0,.18.06.34.18.48.12.14.27.21.47.21.15,0,.28-.04.39-.12.1-.08.19-.17.26-.28.07-.11.12-.21.16-.3.05-.12.08-.25.09-.41.01-.15.02-.27.02-.35v-.33Z"/><path class="uuid-bfb7af1a-8f27-45c4-a243-d530e3613afc" d="M484.77,273.09l-.67-.09v-.16c0-.11.02-.19.08-.25.05-.06.13-.09.24-.1l1.67-.08v6.99h.67s.01.08.02.13c0,.05,0,.08,0,.1,0,.11-.03.18-.1.23-.07.05-.16.08-.27.09l-1.23.11-.24-.93c-.15.3-.38.54-.68.74-.3.19-.63.28-.99.28s-.65-.07-.91-.2c-.26-.13-.46-.31-.62-.53s-.28-.46-.36-.74c-.08-.27-.12-.54-.12-.81,0-.55.11-1.05.33-1.5.22-.45.53-.82.94-1.1.41-.28.88-.42,1.43-.42.11,0,.23.01.37.04.14.02.29.07.45.12v-1.93ZM484.77,275.71c-.11-.05-.23-.09-.37-.15-.14-.05-.3-.07-.48-.07-.29,0-.53.09-.72.27-.19.18-.33.42-.42.72-.09.3-.13.65-.13,1.03,0,.4.05.75.14,1.05.09.3.22.53.38.7.16.17.36.25.58.25.16,0,.3-.04.42-.12.12-.08.23-.18.32-.3.09-.14.16-.31.21-.5s.07-.42.07-.67v-2.21Z"/><path class="uuid-bfb7af1a-8f27-45c4-a243-d530e3613afc" d="M490.58,280v-.41l.66-.19v-2.39c0-.13,0-.27-.02-.44-.01-.17-.04-.31-.08-.42-.06-.18-.15-.33-.28-.45-.13-.12-.29-.18-.47-.18-.14,0-.28.04-.41.12s-.25.19-.36.34c-.13.19-.22.41-.25.65s-.05.51-.05.8v2.05h.6v.24c0,.09-.02.16-.06.21-.04.05-.12.08-.23.08h-2.32v-.41l.69-.19v-3.78h-.69v-.27c0-.09.03-.17.08-.21s.13-.08.24-.08l1.44-.1.15.85c.17-.29.4-.51.69-.68.3-.17.61-.26.95-.26.28,0,.53.05.77.15s.43.25.57.46c.12.17.21.36.26.57.05.21.08.49.08.82v2.63h.63v.24c0,.09-.02.16-.06.21-.04.05-.11.08-.22.08h-2.33Z"/><path class="uuid-bfb7af1a-8f27-45c4-a243-d530e3613afc" d="M493.75,280v-.41l.76-.19v-3.78h-.75v-.27c0-.09.02-.15.07-.2.05-.05.11-.07.2-.08l1.77-.1v4.51h.73v.24c0,.09-.02.16-.06.21-.04.05-.12.08-.23.08h-2.49ZM494.4,274.47l-.35-.26.78-1.51c.1-.2.22-.36.35-.49s.29-.19.48-.19c.13,0,.24.03.34.08.1.06.19.14.28.24l.16.17-2.03,1.96Z"/><path class="uuid-bfb7af1a-8f27-45c4-a243-d530e3613afc" d="M499.25,282.33v-.41l.69-.19v-6.11h-.67v-.27c0-.09.02-.17.07-.21s.12-.08.22-.08l1.46-.1.14.82c.14-.26.36-.48.64-.65.29-.17.61-.26.97-.26s.65.07.9.2c.25.13.46.31.62.53s.28.46.36.74c.08.27.12.54.12.81,0,.53-.11,1.03-.33,1.49s-.53.83-.94,1.1c-.4.28-.88.42-1.44.42-.11,0-.23-.01-.37-.04-.14-.03-.29-.07-.45-.12v1.81h1.05v.25c0,.09-.02.16-.07.21s-.12.08-.23.08h-2.76ZM501.25,279.32c.1.04.22.09.35.14s.3.08.5.08c.3,0,.54-.09.73-.27.19-.18.33-.42.42-.72.09-.3.14-.65.14-1.03,0-.4-.05-.75-.14-1.05-.09-.3-.22-.53-.39-.7-.17-.17-.36-.25-.57-.25-.15,0-.29.04-.42.12-.12.08-.23.18-.33.3-.09.14-.16.3-.21.49-.05.18-.07.38-.08.6v2.29Z"/><path class="uuid-bfb7af1a-8f27-45c4-a243-d530e3613afc" d="M508.65,280.06l-.3-.97c-.18.35-.42.62-.7.79s-.58.26-.87.26-.53-.06-.73-.18-.34-.28-.44-.47c-.1-.2-.15-.41-.15-.64s.04-.42.11-.59c.07-.17.13-.31.18-.4l2.49-.78v-.78c0-.28-.08-.49-.23-.63s-.35-.21-.59-.21c-.08,0-.17,0-.27.02-.1.01-.18.03-.26.04l-.09,1.13h-.38c-.26,0-.45-.05-.56-.15-.11-.1-.17-.22-.17-.35,0-.18.07-.34.22-.49.15-.15.32-.27.5-.38.27-.15.55-.25.84-.32s.55-.1.79-.1c.25,0,.46.03.63.08.17.05.31.12.43.23.16.13.28.29.34.49.07.2.1.46.1.78v2.97h.67s.01.07.02.12c0,.04,0,.08,0,.12,0,.13-.04.21-.13.25s-.17.06-.25.07l-1.23.11ZM508.25,277.58l-.77.2c-.3.07-.5.2-.61.37s-.17.35-.17.54c0,.18.06.34.18.48.12.14.27.21.47.21.15,0,.28-.04.39-.12.1-.08.19-.17.26-.28.07-.11.12-.21.16-.3.05-.12.08-.25.09-.41.01-.15.02-.27.02-.35v-.33ZM507.15,274.47l-.35-.26.77-1.51c.1-.2.22-.36.35-.49s.29-.19.48-.19c.13,0,.24.03.34.08.1.06.19.14.28.24l.16.17-2.03,1.96Z"/><path class="uuid-bfb7af1a-8f27-45c4-a243-d530e3613afc" d="M510.8,280v-.41l.69-.19v-3.78h-.69v-.27c0-.09.03-.17.08-.21s.13-.08.23-.08l1.41-.1.15,1.01c.14-.33.34-.6.6-.81.26-.2.52-.3.8-.3.22,0,.4.04.54.13.14.09.24.2.31.34.07.14.1.27.1.39,0,.23-.08.42-.23.54s-.34.2-.56.2h-.22l-.46-.85c-.12.07-.24.18-.35.33-.11.16-.2.32-.25.5-.03.1-.06.21-.09.33-.02.12-.04.27-.05.43-.01.16-.02.36-.02.59v1.67h.99v.23c0,.09-.02.16-.07.21-.04.06-.12.08-.23.08h-2.7Z"/><path class="uuid-bfb7af1a-8f27-45c4-a243-d530e3613afc" d="M516.09,275.62h-.67v-.53l.71-.19.46-1.22s.1-.01.15-.02c.05,0,.1-.01.15-.01.15,0,.27.04.34.12s.11.2.11.36v.91h1.51v.23c0,.13-.03.23-.08.28s-.13.08-.25.08h-1.14v2.85c0,.24.03.42.1.55.06.13.15.21.25.25.1.04.2.07.31.07.14,0,.28-.02.41-.07.13-.05.27-.1.42-.16.07.08.11.15.11.22,0,.13-.1.26-.3.4-.15.11-.33.2-.56.29-.22.09-.46.13-.7.13-.12,0-.25-.01-.4-.04-.14-.03-.28-.08-.41-.17-.13-.09-.24-.22-.34-.39-.07-.13-.12-.28-.15-.45-.03-.17-.05-.39-.05-.66v-2.82Z"/><path class="uuid-bfb7af1a-8f27-45c4-a243-d530e3613afc" d="M519.8,275.64l-.52-.13v-.47h2.83v.28c0,.18-.09.27-.28.27h-.6l.81,2.05c.05.13.11.27.16.42s.11.31.16.47c.05.16.1.32.14.47l1.08-3.3-.79-.21v-.45h2.01v.28c0,.08-.02.15-.06.2-.04.05-.11.08-.21.08h-.22c-.14.41-.3.86-.47,1.35-.17.49-.36,1-.55,1.52s-.38,1.02-.58,1.5-.38.92-.56,1.31c-.18.4-.37.68-.57.84-.2.16-.42.24-.64.24-.17,0-.31-.04-.42-.1-.11-.07-.2-.16-.26-.28s-.09-.23-.09-.36c0-.15.04-.28.11-.4.07-.12.13-.21.18-.25l1.14.28.58-1.33c-.15,0-.28-.04-.39-.08-.11-.05-.21-.13-.29-.23s-.15-.24-.22-.42l-1.44-3.54Z"/><path class="uuid-bfb7af1a-8f27-45c4-a243-d530e3613afc" d="M385.39,290.4h-3.04l-.12.88h-.49l.04-1.99h4.62c0,.14,0,.27-.02.39-.02.12-.05.25-.1.39-.05.14-.13.32-.23.53l-2.25,4.77c-.12.26-.24.46-.35.58s-.26.19-.46.19c-.09,0-.18-.02-.27-.05-.09-.03-.17-.07-.25-.12-.08-.05-.14-.09-.2-.12l3.11-5.46Z"/><path class="uuid-bfb7af1a-8f27-45c4-a243-d530e3613afc" d="M387.38,295.35c0,.14-.04.27-.12.39-.08.12-.18.22-.3.29-.12.07-.25.11-.4.11-.22,0-.4-.08-.56-.24-.16-.16-.24-.34-.24-.55,0-.14.04-.27.11-.39.07-.12.17-.22.3-.29.12-.08.26-.12.4-.12s.28.04.41.12c.12.08.22.17.3.29.07.12.11.25.11.39Z"/><path class="uuid-bfb7af1a-8f27-45c4-a243-d530e3613afc" d="M395.65,292.63l-.45-1.06s-.07-.02-.13-.03c-.06-.01-.11-.02-.16-.02-.17,0-.34.06-.5.17-.17.12-.31.3-.42.55-.11.25-.17.57-.17.97s.07.76.21,1.08c.14.31.33.55.57.72.24.17.52.26.83.26.14,0,.3-.02.46-.07.17-.05.38-.14.63-.27.03.04.06.08.09.12.03.04.05.1.05.16,0,.05-.02.11-.05.17-.03.06-.09.13-.18.21-.16.15-.37.28-.64.38-.27.11-.58.17-.94.17-.42,0-.81-.1-1.16-.3s-.63-.49-.84-.87c-.21-.38-.31-.81-.31-1.31,0-.37.06-.73.18-1.06.12-.33.29-.63.52-.89.22-.26.49-.46.8-.61s.65-.22,1.03-.22c.3,0,.57.04.81.13s.43.21.57.38.21.34.21.55-.06.37-.19.5-.32.2-.57.2h-.25ZM394.24,290.27l-.77-1.21c-.07-.11-.13-.2-.18-.28-.04-.08-.07-.15-.07-.22,0-.09.04-.17.11-.21.07-.05.16-.08.26-.1l1.22,1.14,1.21-1.14c.11.02.2.06.27.11.07.05.11.13.11.22,0,.07-.02.14-.07.22-.04.08-.1.17-.18.28l-.79,1.2h-1.14Z"/><path class="uuid-bfb7af1a-8f27-45c4-a243-d530e3613afc" d="M398.48,293.32c.01.42.1.78.25,1.07.15.29.36.52.62.67s.55.23.86.23c.14,0,.3-.02.48-.06.18-.04.41-.12.68-.25.03.03.05.07.07.12.02.04.03.08.03.12,0,.07-.02.12-.05.17-.03.05-.08.1-.14.16-.04.03-.13.1-.28.2-.14.1-.34.19-.58.27-.25.08-.54.12-.88.12-.47,0-.88-.11-1.23-.32-.35-.21-.63-.51-.82-.89-.19-.38-.29-.81-.29-1.3,0-.37.06-.71.18-1.04.12-.33.3-.62.52-.88s.5-.46.81-.61c.31-.15.66-.22,1.05-.22.46,0,.84.11,1.14.32.3.21.49.5.58.87.04.12.07.25.08.4.01.14.02.32.02.53v.33h-3.11ZM400.32,292.84c0-.18-.02-.35-.05-.51-.03-.16-.08-.31-.16-.43-.07-.13-.17-.22-.28-.29-.11-.07-.24-.1-.39-.1-.22,0-.4.07-.54.21-.14.14-.24.31-.31.51-.07.2-.1.41-.11.62h1.82Z"/><path class="uuid-bfb7af1a-8f27-45c4-a243-d530e3613afc" d="M402.31,296v-.41l.69-.19v-3.78h-.69v-.27c0-.09.03-.17.08-.21s.13-.08.23-.08l1.41-.1.15,1.01c.14-.33.34-.6.6-.81.26-.2.52-.3.8-.3.22,0,.4.04.54.13.14.09.24.2.31.34.07.14.1.27.1.39,0,.23-.08.42-.23.54s-.34.2-.56.2h-.22l-.46-.85c-.12.07-.24.18-.35.33-.11.16-.2.32-.25.5-.03.1-.06.21-.09.33-.02.12-.04.27-.05.43-.01.16-.02.36-.02.59v1.67h.99v.23c0,.09-.02.16-.07.21-.04.06-.12.08-.23.08h-2.7Z"/><path class="uuid-bfb7af1a-8f27-45c4-a243-d530e3613afc" d="M407.37,291.63l-.52-.12v-.47h2.81v.27c0,.1-.02.17-.07.21-.05.04-.12.07-.21.07h-.6l.84,2.28c.08.21.15.43.21.65.06.22.12.42.18.61l1.09-3.43-.78-.21v-.45h2v.26c0,.09-.02.16-.06.21-.04.05-.11.08-.22.08h-.25c-.06.16-.14.39-.25.68-.1.3-.22.62-.35.97-.13.35-.25.69-.38,1.02-.12.33-.24.62-.33.88s-.17.42-.22.52c-.09.15-.2.26-.33.33-.13.07-.29.11-.49.11-.07,0-.14,0-.21,0-.07,0-.15-.02-.23-.03l-1.64-4.43Z"/><path class="uuid-bfb7af1a-8f27-45c4-a243-d530e3613afc" d="M415.93,296v-.41l.66-.19v-2.39c0-.13,0-.27-.02-.44-.01-.17-.04-.31-.08-.42-.06-.18-.15-.33-.28-.45-.13-.12-.29-.18-.47-.18-.14,0-.28.04-.41.12s-.25.19-.36.34c-.13.19-.22.41-.25.65s-.05.51-.05.8v2.05h.6v.24c0,.09-.02.16-.06.21-.04.05-.12.08-.23.08h-2.32v-.41l.69-.19v-3.78h-.69v-.27c0-.09.03-.17.08-.21s.13-.08.24-.08l1.44-.1.15.85c.17-.29.4-.51.69-.68.3-.17.61-.26.95-.26.28,0,.53.05.77.15s.43.25.57.46c.12.17.21.36.26.57.05.21.08.49.08.82v2.63h.63v.24c0,.09-.02.16-.06.21-.04.05-.11.08-.22.08h-2.33Z"/><path class="uuid-bfb7af1a-8f27-45c4-a243-d530e3613afc" d="M422.37,296.06l-.3-.97c-.18.35-.42.62-.7.79s-.58.26-.87.26-.53-.06-.73-.18-.34-.28-.44-.47c-.1-.2-.15-.41-.15-.64s.04-.42.11-.59c.07-.17.13-.31.18-.4l2.49-.78v-.78c0-.28-.08-.49-.23-.63s-.35-.21-.59-.21c-.08,0-.17,0-.27.02-.1.01-.18.03-.26.04l-.09,1.13h-.38c-.26,0-.45-.05-.56-.15-.11-.1-.17-.22-.17-.35,0-.18.07-.34.22-.49.15-.15.32-.27.5-.38.27-.15.55-.25.84-.32s.55-.1.79-.1c.25,0,.46.03.63.08.17.05.31.12.43.23.16.13.28.29.34.49.07.2.1.46.1.78v2.97h.67s.01.07.02.12c0,.04,0,.08,0,.12,0,.13-.04.21-.13.25s-.17.06-.25.07l-1.23.11ZM421.96,293.58l-.77.2c-.3.07-.5.2-.61.37s-.17.35-.17.54c0,.18.06.34.18.48.12.14.27.21.47.21.15,0,.28-.04.39-.12.1-.08.19-.17.26-.28.07-.11.12-.21.16-.3.05-.12.08-.25.09-.41.01-.15.02-.27.02-.35v-.33Z"/><path class="uuid-bfb7af1a-8f27-45c4-a243-d530e3613afc" d="M426.78,296c0-.14,0-.26.03-.36.02-.1.06-.19.11-.27.05-.09.13-.18.22-.29l1.73-1.79c.39-.43.66-.81.8-1.14.14-.33.22-.66.22-.98,0-.3-.06-.55-.17-.76-.11-.21-.26-.36-.45-.47-.19-.1-.4-.15-.62-.15-.11,0-.23.01-.34.04s-.2.06-.27.08v1.41h-.4c-.22,0-.41-.04-.55-.12-.15-.08-.22-.24-.22-.48,0-.25.11-.49.32-.73s.5-.44.87-.59.78-.23,1.24-.23c.4,0,.75.07,1.05.21.3.14.52.34.68.6s.24.56.24.9c0,.29-.06.57-.19.85-.12.28-.32.57-.59.88s-.62.67-1.04,1.08c-.43.41-.94.89-1.56,1.44l2.86-.26.2-.89c.02-.07.05-.13.09-.19.04-.05.11-.07.2-.07.02,0,.05,0,.09,0,.04,0,.08.02.11.03v2.22h-4.67Z"/><path class="uuid-bfb7af1a-8f27-45c4-a243-d530e3613afc" d="M434.91,296.15c-.46,0-.84-.09-1.16-.28-.32-.19-.58-.45-.77-.77s-.34-.67-.42-1.05-.13-.76-.13-1.14c0-.69.1-1.31.31-1.87.21-.56.53-1,.95-1.33s.95-.5,1.59-.5c.54,0,1,.14,1.36.43s.64.69.83,1.19.28,1.07.28,1.7c0,.5-.06.97-.18,1.41-.12.44-.3.82-.54,1.15s-.54.59-.89.78c-.35.19-.76.28-1.22.28ZM435.29,295.61c.36,0,.64-.2.82-.61.18-.41.28-1.03.28-1.86,0-.47-.03-.91-.1-1.31-.06-.41-.16-.77-.29-1.08-.13-.31-.28-.56-.47-.73-.18-.17-.4-.26-.66-.26-.22,0-.41.08-.58.24-.16.16-.29.43-.38.8s-.14.89-.14,1.54c0,.61.06,1.17.18,1.66.12.49.29.89.52,1.18.22.29.49.44.81.44Z"/><path class="uuid-bfb7af1a-8f27-45c4-a243-d530e3613afc" d="M438.44,296c0-.14,0-.26.03-.36.02-.1.06-.19.11-.27.05-.09.13-.18.22-.29l1.73-1.79c.39-.43.66-.81.8-1.14.14-.33.22-.66.22-.98,0-.3-.06-.55-.17-.76-.11-.21-.26-.36-.45-.47-.19-.1-.4-.15-.62-.15-.11,0-.23.01-.34.04s-.2.06-.27.08v1.41h-.4c-.22,0-.41-.04-.55-.12-.15-.08-.22-.24-.22-.48,0-.25.11-.49.32-.73s.5-.44.87-.59.78-.23,1.24-.23c.4,0,.75.07,1.05.21.3.14.52.34.68.6s.24.56.24.9c0,.29-.06.57-.19.85-.12.28-.32.57-.59.88s-.62.67-1.04,1.08c-.43.41-.94.89-1.56,1.44l2.86-.26.2-.89c.02-.07.05-.13.09-.19.04-.05.11-.07.2-.07.02,0,.05,0,.09,0,.04,0,.08.02.11.03v2.22h-4.67Z"/><path class="uuid-bfb7af1a-8f27-45c4-a243-d530e3613afc" d="M445.44,295.57c.07.03.17.06.29.08.12.03.27.05.45.05.24,0,.46-.06.66-.17.2-.11.36-.29.48-.53.12-.24.18-.56.18-.95,0-.25-.05-.5-.16-.75-.11-.25-.27-.47-.47-.64-.21-.17-.46-.26-.76-.26-.14,0-.27.02-.4.06-.12.04-.26.11-.42.2-.07.04-.13.08-.19.1-.06.03-.15.04-.29.04h-.29l.29-3.53h3.6c0,.28-.04.5-.13.65s-.19.26-.33.32-.29.08-.45.08h-2.19v1.73c.25-.12.48-.21.71-.27.22-.06.45-.09.69-.09.48,0,.87.1,1.17.29.3.19.53.44.67.75.14.3.22.62.22.96,0,.46-.11.88-.34,1.26-.23.38-.55.68-.95.9-.41.22-.88.33-1.41.33-.38,0-.71-.05-.98-.14-.27-.09-.48-.23-.62-.41s-.22-.39-.22-.64c0-.23.07-.4.21-.53.14-.12.31-.18.51-.18.11,0,.2.01.28.04s.14.05.19.08v1.16Z"/><path class="uuid-bfb7af1a-8f27-45c4-a243-d530e3613afc" d="M449.92,297.79c.11-.22.21-.42.29-.6s.16-.37.24-.57c.08-.2.14-.4.18-.58l-.71-.34s-.01-.08-.02-.15-.02-.12-.02-.18c0-.23.07-.41.22-.54.15-.14.32-.21.52-.21.22,0,.41.08.57.23.16.16.24.39.24.69,0,.14-.02.3-.08.48-.05.18-.11.37-.19.57s-.16.38-.24.55-.16.32-.24.44c-.07.13-.13.22-.2.27-.06.05-.13.08-.2.08-.03,0-.07,0-.11-.02-.04-.01-.07-.03-.11-.04l-.16-.08Z"/><path class="uuid-bfb7af1a-8f27-45c4-a243-d530e3613afc" d="M454.33,296v-.41l.74-.19v-5.58l-.71-.19v-.41h2.83c.35,0,.69.04,1.02.11.33.07.63.19.89.35s.48.37.63.63c.16.26.24.59.24.98,0,.34-.08.65-.25.92s-.38.5-.65.69c-.27.19-.58.34-.92.44-.34.1-.69.15-1.05.15h-.63v1.99h.98v.24c0,.09-.02.16-.07.21-.04.05-.12.07-.23.07h-2.81ZM456.46,292.97c.07,0,.19,0,.35.02.16.01.31.02.45.02.31,0,.55-.08.73-.25s.3-.38.38-.62c.07-.25.11-.5.11-.75,0-.54-.09-.96-.28-1.27s-.52-.46-1-.46c-.1,0-.22,0-.36.01-.14,0-.27.02-.38.03v3.27Z"/><path class="uuid-bfb7af1a-8f27-45c4-a243-d530e3613afc" d="M460.6,296v-.41l.76-.19v-3.78h-.75v-.27c0-.09.02-.15.07-.2.05-.05.11-.07.2-.08l1.77-.1v4.51h.73v.24c0,.09-.02.16-.06.21-.04.05-.12.08-.23.08h-2.49ZM462.65,289.34c0,.19-.07.36-.22.5s-.33.21-.55.21c-.21,0-.38-.07-.53-.21-.14-.14-.22-.31-.22-.5s.08-.36.23-.5c.15-.14.34-.21.54-.21s.38.07.53.21c.14.14.22.31.22.5Z"/><path class="uuid-bfb7af1a-8f27-45c4-a243-d530e3613afc" d="M467.2,296v-.41l.66-.19v-2.39c0-.13,0-.27-.02-.44-.01-.17-.04-.31-.08-.42-.06-.18-.15-.33-.28-.45-.13-.12-.29-.18-.47-.18-.14,0-.28.04-.41.12s-.25.19-.36.34c-.13.19-.22.41-.25.65s-.05.51-.05.8v2.05h.6v.24c0,.09-.02.16-.06.21-.04.05-.12.08-.23.08h-2.32v-.41l.69-.19v-3.78h-.69v-.27c0-.09.03-.17.08-.21s.13-.08.24-.08l1.44-.1.15.85c.17-.29.4-.51.69-.68.3-.17.61-.26.95-.26.28,0,.53.05.77.15s.43.25.57.46c.12.17.21.36.26.57.05.21.08.49.08.82v2.63h.63v.24c0,.09-.02.16-.06.21-.04.05-.11.08-.22.08h-2.33ZM466.33,290.26l-.77-1.21c-.07-.11-.13-.2-.18-.28-.04-.08-.07-.15-.07-.22,0-.09.04-.17.11-.21s.16-.08.26-.11l1.22,1.14,1.21-1.14c.11.02.2.06.27.11s.11.13.11.22c0,.07-.02.14-.07.22-.04.08-.1.17-.18.28l-.79,1.2h-1.14Z"/><path class="uuid-bfb7af1a-8f27-45c4-a243-d530e3613afc" d="M472.78,296.18c-.52,0-.96-.12-1.32-.35-.36-.23-.62-.55-.8-.94s-.27-.83-.27-1.32c0-.52.11-.98.33-1.39.22-.41.52-.73.91-.97.39-.24.84-.36,1.34-.36.54,0,.98.12,1.33.34.35.23.62.54.8.94s.27.83.27,1.32c0,.53-.11,1-.33,1.41-.22.41-.53.74-.92.97-.39.23-.84.35-1.34.35ZM472.94,295.6c.26,0,.47-.09.63-.26s.27-.41.34-.72c.07-.31.1-.65.1-1.04,0-.36-.04-.7-.12-1.03-.08-.33-.2-.59-.38-.8-.17-.21-.41-.32-.71-.32-.26,0-.47.09-.62.26-.15.17-.27.41-.33.71-.07.3-.1.64-.1,1.02,0,.28.02.55.07.81.04.26.11.49.21.7.1.21.22.37.37.49.15.12.33.18.54.18Z"/><path class="uuid-bfb7af1a-8f27-45c4-a243-d530e3613afc" d="M476.14,294.32h.51l.32,1.05c.11.07.24.12.41.17s.32.08.47.08c.25,0,.45-.06.6-.17.15-.11.23-.25.23-.44,0-.09-.03-.18-.09-.28-.06-.1-.17-.21-.33-.34-.16-.13-.4-.27-.7-.42-.27-.14-.51-.28-.71-.43s-.36-.32-.48-.51c-.11-.19-.17-.42-.17-.68,0-.33.09-.6.28-.82.18-.22.42-.39.72-.5.3-.11.61-.17.96-.17.17,0,.36.01.55.04s.37.07.53.1c.16.04.28.07.35.1v1.3s-.08.03-.13.04c-.05.02-.1.03-.14.03-.08,0-.14-.02-.19-.06-.05-.04-.08-.09-.1-.17l-.17-.63c-.08-.05-.21-.09-.38-.14-.17-.05-.34-.08-.49-.08-.11,0-.21.02-.31.05-.1.03-.18.09-.25.16-.06.07-.1.18-.1.31,0,.15.05.28.15.39.1.12.23.23.41.33.17.1.38.21.6.33.27.15.51.29.71.44.2.15.36.31.47.5.11.19.17.41.17.67,0,.29-.08.55-.25.78-.17.24-.41.42-.72.56s-.68.21-1.1.21c-.19,0-.39-.02-.6-.05-.21-.04-.41-.08-.59-.13-.18-.05-.32-.09-.42-.13v-1.53Z"/><path class="uuid-bfb7af1a-8f27-45c4-a243-d530e3613afc" d="M482.91,296.18c-.52,0-.96-.12-1.32-.35-.36-.23-.62-.55-.8-.94s-.27-.83-.27-1.32c0-.52.11-.98.33-1.39.22-.41.52-.73.91-.97.39-.24.84-.36,1.34-.36.54,0,.98.12,1.33.34.35.23.62.54.8.94s.27.83.27,1.32c0,.53-.11,1-.33,1.41-.22.41-.53.74-.92.97-.39.23-.84.35-1.34.35ZM483.07,295.6c.26,0,.47-.09.63-.26s.27-.41.34-.72c.07-.31.1-.65.1-1.04,0-.36-.04-.7-.12-1.03-.08-.33-.2-.59-.38-.8-.17-.21-.41-.32-.71-.32-.26,0-.47.09-.62.26-.15.17-.27.41-.33.71-.07.3-.1.64-.1,1.02,0,.28.02.55.07.81.04.26.11.49.21.7.1.21.22.37.37.49.15.12.33.18.54.18Z"/><path class="uuid-bfb7af1a-8f27-45c4-a243-d530e3613afc" d="M486.27,291.63l-.52-.12v-.47h2.81v.27c0,.1-.02.17-.07.21-.05.04-.12.07-.21.07h-.6l.84,2.28c.08.21.15.43.21.65.06.22.12.42.18.61l1.09-3.43-.78-.21v-.45h2v.26c0,.09-.02.16-.06.21-.04.05-.11.08-.22.08h-.25c-.06.16-.14.39-.25.68-.1.3-.22.62-.35.97-.13.35-.25.69-.38,1.02-.12.33-.24.62-.33.88s-.17.42-.22.52c-.09.15-.2.26-.33.33-.13.07-.29.11-.49.11-.07,0-.14,0-.21,0-.07,0-.15-.02-.23-.03l-1.64-4.43Z"/><path class="uuid-bfb7af1a-8f27-45c4-a243-d530e3613afc" d="M494.66,296.06l-.3-.97c-.18.35-.42.62-.7.79s-.58.26-.87.26-.53-.06-.73-.18-.34-.28-.44-.47c-.1-.2-.15-.41-.15-.64s.04-.42.11-.59c.07-.17.13-.31.18-.4l2.49-.78v-.78c0-.28-.08-.49-.23-.63s-.35-.21-.59-.21c-.08,0-.17,0-.27.02-.1.01-.18.03-.26.04l-.09,1.13h-.38c-.26,0-.45-.05-.56-.15-.11-.1-.17-.22-.17-.35,0-.18.07-.34.22-.49.15-.15.32-.27.5-.38.27-.15.55-.25.84-.32s.55-.1.79-.1c.25,0,.46.03.63.08.17.05.31.12.43.23.16.13.28.29.34.49.07.2.1.46.1.78v2.97h.67s.01.07.02.12c0,.04,0,.08,0,.12,0,.13-.04.21-.13.25s-.17.06-.25.07l-1.23.11ZM494.26,293.58l-.77.2c-.3.07-.5.2-.61.37s-.17.35-.17.54c0,.18.06.34.18.48.12.14.27.21.47.21.15,0,.28-.04.39-.12.1-.08.19-.17.26-.28.07-.11.12-.21.16-.3.05-.12.08-.25.09-.41.01-.15.02-.27.02-.35v-.33Z"/><path class="uuid-bfb7af1a-8f27-45c4-a243-d530e3613afc" d="M499.27,296v-.41l1.32-.18v-4.82l-1.23.18c-.03-.05-.05-.1-.08-.14s-.04-.08-.04-.11c0-.04,0-.08.03-.11.02-.03.07-.07.14-.1l1.92-1.01h.53v6.18h1.26v.24c0,.09-.02.16-.06.21-.04.05-.11.08-.22.08h-3.58Z"/><path class="uuid-bfb7af1a-8f27-45c4-a243-d530e3613afc" d="M503.74,296c0-.14,0-.26.03-.36.02-.1.06-.19.11-.27.05-.09.13-.18.22-.29l1.73-1.79c.39-.43.66-.81.8-1.14.14-.33.22-.66.22-.98,0-.3-.06-.55-.17-.76-.11-.21-.26-.36-.45-.47-.19-.1-.4-.15-.62-.15-.11,0-.23.01-.34.04s-.2.06-.27.08v1.41h-.4c-.22,0-.41-.04-.55-.12-.15-.08-.22-.24-.22-.48,0-.25.11-.49.32-.73s.5-.44.87-.59.78-.23,1.24-.23c.4,0,.75.07,1.05.21.3.14.52.34.68.6s.24.56.24.9c0,.29-.06.57-.19.85-.12.28-.32.57-.59.88s-.62.67-1.04,1.08c-.43.41-.94.89-1.56,1.44l2.86-.26.2-.89c.02-.07.05-.13.09-.19.04-.05.11-.07.2-.07.02,0,.05,0,.09,0,.04,0,.08.02.11.03v2.22h-4.67Z"/><path class="uuid-bfb7af1a-8f27-45c4-a243-d530e3613afc" d="M509.72,297.79c.11-.22.21-.42.29-.6s.16-.37.24-.57c.08-.2.14-.4.18-.58l-.71-.34s-.01-.08-.02-.15-.02-.12-.02-.18c0-.23.07-.41.22-.54.15-.14.32-.21.52-.21.22,0,.41.08.57.23.16.16.24.39.24.69,0,.14-.02.3-.08.48-.05.18-.11.37-.19.57s-.16.38-.24.55-.16.32-.24.44c-.07.13-.13.22-.2.27-.06.05-.13.08-.2.08-.03,0-.07,0-.11-.02-.04-.01-.07-.03-.11-.04l-.16-.08Z"/><path class="uuid-bfb7af1a-8f27-45c4-a243-d530e3613afc" d="M514.15,296v-.41l.71-.19v-5.58l-.71-.19v-.41h2.84c.3,0,.59.02.9.07.3.04.58.12.84.22s.47.26.62.46.24.46.24.79c0,.36-.14.68-.41.96-.28.28-.63.47-1.06.59.36.05.68.15.97.3.29.15.53.34.7.58.17.24.26.54.26.89,0,.37-.11.69-.33.98s-.56.52-1.01.69c-.45.17-1.01.25-1.69.25h-2.87ZM517.11,292.22c.23,0,.41-.04.54-.12s.24-.19.31-.32.12-.27.14-.42c.02-.15.04-.28.04-.41,0-.25-.03-.47-.1-.66-.06-.19-.18-.35-.34-.46-.16-.11-.38-.17-.65-.17-.11,0-.25,0-.41,0s-.28.01-.38.02v2.52h.85ZM516.27,292.68v2.84c.13,0,.29.02.47.03s.36.01.52.01c.44,0,.77-.13.97-.39.2-.26.3-.59.3-1,0-.55-.12-.93-.37-1.16-.25-.22-.6-.33-1.07-.33h-.83Z"/><path class="uuid-bfb7af1a-8f27-45c4-a243-d530e3613afc" d="M520.64,296v-.41l.69-.19v-3.78h-.69v-.27c0-.09.03-.17.08-.21s.13-.08.23-.08l1.41-.1.15,1.01c.14-.33.34-.6.6-.81.26-.2.52-.3.8-.3.22,0,.4.04.54.13.14.09.24.2.31.34.07.14.1.27.1.39,0,.23-.08.42-.23.54s-.34.2-.56.2h-.22l-.46-.85c-.12.07-.24.18-.35.33-.11.16-.2.32-.25.5-.03.1-.06.21-.09.33-.02.12-.04.27-.05.43-.01.16-.02.36-.02.59v1.67h.99v.23c0,.09-.02.16-.07.21-.04.06-.12.08-.23.08h-2.7Z"/><path class="uuid-bfb7af1a-8f27-45c4-a243-d530e3613afc" d="M528.49,296v-.41l.66-.19v-2.39c0-.13,0-.27-.02-.44-.01-.17-.04-.31-.08-.42-.06-.18-.15-.33-.28-.45-.13-.12-.29-.18-.47-.18-.14,0-.28.04-.41.12s-.25.19-.36.34c-.13.19-.22.41-.25.65s-.05.51-.05.8v2.05h.6v.24c0,.09-.02.16-.06.21-.04.05-.12.08-.23.08h-2.32v-.41l.69-.19v-3.78h-.69v-.27c0-.09.03-.17.08-.21s.13-.08.24-.08l1.44-.1.15.85c.17-.29.4-.51.69-.68.3-.17.61-.26.95-.26.28,0,.53.05.77.15s.43.25.57.46c.12.17.21.36.26.57.05.21.08.49.08.82v2.63h.63v.24c0,.09-.02.16-.06.21-.04.05-.11.08-.22.08h-2.33Z"/><path class="uuid-bfb7af1a-8f27-45c4-a243-d530e3613afc" d="M534.07,296.18c-.52,0-.96-.12-1.32-.35-.36-.23-.62-.55-.8-.94s-.27-.83-.27-1.32c0-.52.11-.98.33-1.39.22-.41.52-.73.91-.97.39-.24.84-.36,1.34-.36.54,0,.98.12,1.33.34.35.23.62.54.8.94s.27.83.27,1.32c0,.53-.11,1-.33,1.41-.22.41-.53.74-.92.97-.39.23-.84.35-1.34.35ZM534.23,295.6c.26,0,.47-.09.63-.26s.27-.41.34-.72c.07-.31.1-.65.1-1.04,0-.36-.04-.7-.12-1.03-.08-.33-.2-.59-.38-.8-.17-.21-.41-.32-.71-.32-.26,0-.47.09-.62.26-.15.17-.27.41-.33.71-.07.3-.1.64-.1,1.02,0,.28.02.55.07.81.04.26.11.49.21.7.1.21.22.37.37.49.15.12.33.18.54.18Z"/><path class="uuid-bfb7af1a-8f27-45c4-a243-d530e3613afc" d="M459.86,317.97v15.48h.1c1.16-1.49,3.02-2.51,5.12-2.64l.03.36c-2.72,1.42-4.58,4.03-5.51,6.83h-.93c-.9-2.81-2.79-5.41-5.51-6.83l.07-.36c2.06.13,3.92,1.16,5.08,2.64h.1v-15.48h1.46Z"/></svg>