<?xml version="1.0" encoding="UTF-8"?><svg id="uuid-5629e716-5bed-40ab-ae93-371cca612492" xmlns="http://www.w3.org/2000/svg" viewBox="0 0 595.28 368.5"><defs><style>.uuid-511ddbed-2646-4b12-844d-0cb9c68fcf65{fill:#c1b6aa;}.uuid-256709ed-32a4-4f21-a64d-8818512766d2{fill:#fff;}</style></defs><g id="uuid-fc5c3d26-9abf-4d28-9b96-b49d07563916"><path class="uuid-511ddbed-2646-4b12-844d-0cb9c68fcf65" d="M595.28,0H0v368.5h595.28V0ZM212.59,148.8c0-20.57,16.67-37.24,37.24-37.24s37.24,16.67,37.24,37.24-16.67,37.24-37.24,37.24-37.24-16.67-37.24-37.24ZM133.14,183.45c0-20.57,16.67-37.24,37.24-37.24s37.24,16.67,37.24,37.24-16.67,37.24-37.24,37.24-37.24-16.67-37.24-37.24ZM69.46,242c0-20.57,16.67-37.24,37.24-37.24s37.24,16.67,37.24,37.24-16.67,37.24-37.24,37.24-37.24-16.67-37.24-37.24Z"/><path class="uuid-256709ed-32a4-4f21-a64d-8818512766d2" d="M287.71,184.51l-.49-.84.38-.38,2.36,2.36c.09.09.14.18.14.26s-.04.17-.14.26l-.2.2-.67-.67-5.35,5.35,2.02,1.79,1.82-.68c.25-.09.44-.06.57.08.11.11.16.25.15.41l-2.23,1.58-4.7-4.7.38-.38.83.48,5.13-5.13Z"/><path class="uuid-256709ed-32a4-4f21-a64d-8818512766d2" d="M289.7,197.97l.62-1.17c-.49.16-.95.19-1.38.08-.43-.1-.77-.29-1.04-.55-.27-.27-.43-.54-.5-.83s-.06-.57.04-.84c.09-.27.24-.51.45-.72.2-.2.42-.35.64-.44s.41-.16.53-.2l3,1.57.72-.72c.26-.26.38-.52.38-.79,0-.27-.12-.52-.34-.74-.07-.07-.16-.15-.26-.23-.1-.08-.19-.14-.27-.2l-1.12.96-.35-.35c-.24-.24-.37-.46-.38-.65,0-.2.05-.35.17-.47.17-.17.38-.25.65-.25.27,0,.54.04.81.12.38.11.73.27,1.06.47.33.21.6.41.81.63.23.23.4.44.51.65s.17.4.19.6c.03.27-.02.52-.14.77-.13.25-.33.52-.62.81l-2.73,2.73.62.62s-.06.08-.09.12c-.04.04-.07.08-.1.11-.12.12-.23.15-.35.11-.11-.04-.21-.09-.29-.16l-1.23-1.03ZM291.61,195.32l-.89-.52c-.34-.2-.64-.28-.9-.23-.26.05-.48.17-.66.34-.17.16-.26.37-.28.6-.02.23.06.44.24.62.14.14.3.22.46.25s.33.02.5-.02c.17-.04.31-.08.42-.14.15-.07.3-.17.45-.29.15-.13.26-.23.34-.31l.3-.3Z"/><path class="uuid-256709ed-32a4-4f21-a64d-8818512766d2" d="M301.28,196.73l-.54-.7.15-.15c.1-.1.2-.15.3-.16.1,0,.21.03.31.12l1.61,1.46-6.43,6.43.62.62s-.07.09-.11.13c-.04.04-.07.08-.09.1-.1.1-.2.14-.3.12-.11-.02-.22-.07-.33-.17l-1.23-1.03.63-1.08c-.42.13-.85.15-1.3.05-.45-.1-.84-.32-1.17-.65s-.54-.66-.65-1.02c-.11-.36-.14-.71-.09-1.06.05-.35.17-.69.35-1s.39-.6.64-.86c.5-.5,1.06-.86,1.68-1.08s1.24-.26,1.87-.15c.63.12,1.2.43,1.7.94.1.1.2.22.3.37.11.15.2.32.3.53l1.78-1.78ZM298.87,199.14c-.06-.14-.13-.3-.21-.47-.08-.18-.21-.35-.38-.51-.27-.27-.57-.4-.91-.41-.34,0-.69.08-1.05.28-.36.2-.71.47-1.06.82-.37.37-.65.73-.84,1.09-.19.36-.29.69-.29.99s.1.56.3.76c.15.15.31.24.49.28.18.04.37.05.58.02.21-.04.43-.13.66-.27.22-.14.45-.32.68-.55l2.03-2.03Z"/><path class="uuid-256709ed-32a4-4f21-a64d-8818512766d2" d="M301.05,209.32l.62-1.12c-.13.04-.31.07-.55.09-.24.02-.5,0-.77-.07-.26-.07-.49-.16-.68-.29-.19-.12-.36-.26-.51-.41-.25-.25-.43-.53-.52-.82-.1-.29-.13-.56-.1-.82s.12-.5.26-.76c.14-.25.39-.56.74-.91l2.29-2.29-.62-.62.24-.24c.08-.08.17-.13.27-.14s.19.04.3.13l1.63,1.44-2.82,2.82c-.15.15-.29.31-.45.5-.15.19-.25.37-.3.56-.07.2-.08.39-.03.57.05.18.14.33.27.46.2.2.45.29.76.29.31,0,.59-.07.85-.21.18-.08.36-.2.54-.36.18-.16.36-.33.54-.51l1.76-1.77-.62-.62.25-.25c.07-.07.15-.11.24-.13.09-.02.2.03.31.13l1.64,1.45-4.09,4.09.6.6s-.05.08-.09.12-.07.08-.09.1c-.13.13-.25.17-.36.13-.12-.04-.21-.09-.28-.15l-1.22-1.04Z"/><path class="uuid-256709ed-32a4-4f21-a64d-8818512766d2" d="M306.12,214.28l.38-.38.79.44,2.2-2.2c.12-.12.24-.26.39-.42.14-.17.25-.32.31-.46.11-.22.16-.45.15-.67,0-.23-.1-.43-.27-.6-.13-.13-.29-.22-.48-.26-.19-.05-.41-.05-.64-.02-.3.05-.58.18-.83.37-.25.19-.51.42-.78.69l-1.88,1.88.56.55-.22.22c-.08.08-.16.12-.24.13-.08,0-.18-.04-.28-.14l-2.13-2.13.38-.38.81.46,3.47-3.47-.63-.63.25-.25c.09-.09.17-.13.27-.13s.19.05.29.14l1.42,1.23-.64.92c.42-.11.84-.11,1.27,0s.8.33,1.1.63c.25.25.44.53.57.84.13.31.16.62.11.95-.04.26-.14.52-.28.76-.15.25-.37.52-.68.83l-2.42,2.42.58.58-.22.22c-.08.08-.16.12-.24.13-.08,0-.17-.04-.27-.13l-2.14-2.14Z"/><path class="uuid-256709ed-32a4-4f21-a64d-8818512766d2" d="M316.05,211.51l-.55-.71.14-.14c.1-.11.21-.16.31-.17.11,0,.21.04.31.13l1.61,1.46-3.5,3.5c-.21.21-.43.42-.63.62-.21.2-.41.39-.61.59l3.27-.24-.58-.9.39-.39,2.33,2.33-.24.24c-.07.07-.16.12-.24.13-.09.01-.18-.03-.27-.12l-.4-.4-2.37-.02-.7,3.92.55.56-.21.21c-.12.12-.23.17-.34.13-.1-.04-.19-.08-.27-.13l-1.4-1.08.76-3.61h-.1c-.18,0-.34.01-.49.04s-.3.09-.44.18c-.14.09-.31.24-.5.43l-.51.51.57.57-.22.22c-.08.08-.16.12-.24.13s-.17-.04-.27-.13l-2.16-2.16.38-.38.81.46,5.8-5.8Z"/><path class="uuid-256709ed-32a4-4f21-a64d-8818512766d2" d="M317.54,225.81l.61-1.17c-.49.16-.95.19-1.38.08-.43-.1-.77-.29-1.04-.55s-.43-.54-.5-.83c-.07-.29-.06-.57.03-.84.09-.27.24-.51.45-.72.2-.2.42-.35.64-.44.23-.09.4-.16.53-.2l3,1.57.72-.72c.26-.26.38-.52.38-.79,0-.27-.12-.52-.34-.74-.07-.07-.16-.15-.26-.23-.1-.08-.19-.14-.27-.2l-1.12.96-.35-.35c-.24-.24-.37-.46-.38-.65s.05-.35.17-.47c.17-.16.38-.25.65-.25.27,0,.54.04.81.11.38.11.74.27,1.06.47.33.2.6.41.81.63.23.23.4.45.51.65s.17.4.19.6c.03.26-.02.52-.14.77-.13.25-.33.52-.62.8l-2.73,2.73.62.62s-.05.08-.09.12-.07.08-.1.11c-.12.12-.23.15-.34.12-.11-.04-.21-.1-.29-.16l-1.23-1.03ZM319.44,223.16l-.89-.52c-.34-.2-.64-.28-.9-.23-.26.05-.48.17-.66.34-.16.17-.26.37-.27.6-.02.23.06.44.24.62.14.14.3.23.46.25s.33.02.5-.02.31-.08.42-.14c.15-.07.3-.17.45-.29.15-.13.26-.23.34-.31l.3-.3Z"/><path class="uuid-256709ed-32a4-4f21-a64d-8818512766d2" d="M203.15,223.62l.38-.38.83.48,5.13-5.13-.48-.83.38-.38,4.74,4.74-1.61,1.61c-.06,0-.11-.02-.18-.05-.06-.02-.11-.06-.16-.1-.07-.07-.1-.14-.1-.22,0-.08.02-.16.07-.25l.66-1.25-1.91-2.11-2.59,2.59,1.29,1.29,1.04-.41.35.35-1.68,1.68c-.06.06-.14.1-.22.12-.09.02-.17-.02-.27-.11l-.18-.18.55-.88-1.37-1.37-2.25,2.25,1.02,1.02-.22.22c-.09.09-.17.13-.26.12-.09,0-.17-.05-.25-.13l-2.7-2.7Z"/><path class="uuid-256709ed-32a4-4f21-a64d-8818512766d2" d="M208.31,228.77l.38-.38.81.46,3.48-3.47-.63-.63.25-.25c.09-.09.17-.13.27-.13.09,0,.19.04.29.13l1.39,1.2-.79,1.07c.44-.18.87-.24,1.29-.19.42.05.76.2,1.02.46.2.2.33.41.38.62.05.21.04.41-.03.6-.06.19-.15.34-.27.46-.21.21-.45.31-.71.29-.26-.02-.49-.13-.69-.34l-.2-.2.36-1.21c-.17-.05-.38-.05-.63-.02-.25.04-.48.11-.69.22-.12.06-.25.14-.39.23-.14.09-.28.21-.44.35-.16.14-.35.32-.56.54l-1.53,1.53.91.91-.21.21c-.08.08-.17.12-.26.14-.09.01-.19-.03-.29-.13l-2.48-2.48Z"/><path class="uuid-256709ed-32a4-4f21-a64d-8818512766d2" d="M215.23,235.81l.61-1.17c-.49.16-.95.19-1.38.08-.43-.1-.77-.29-1.04-.55s-.43-.54-.5-.83c-.07-.29-.06-.57.03-.84.09-.27.24-.51.45-.72.2-.2.42-.35.64-.44.23-.09.4-.16.54-.2l3,1.57.72-.72c.26-.26.38-.52.38-.79,0-.27-.12-.52-.34-.74-.07-.07-.16-.15-.26-.23-.1-.08-.19-.14-.27-.2l-1.12.96-.35-.35c-.24-.24-.37-.46-.38-.65s.05-.35.17-.47c.17-.16.38-.25.65-.25.27,0,.54.04.81.12.38.11.74.27,1.06.47.33.21.6.41.81.63.23.23.4.44.51.65.11.2.17.4.19.6.03.26-.02.52-.14.77s-.33.52-.62.8l-2.73,2.73.62.62s-.05.08-.09.12c-.04.04-.07.08-.1.11-.12.12-.23.15-.35.12-.11-.04-.21-.1-.29-.16l-1.23-1.03ZM217.14,233.16l-.89-.52c-.34-.2-.64-.28-.9-.23-.26.05-.48.17-.66.34-.16.16-.26.37-.27.6-.02.23.06.44.24.62.14.14.3.23.46.25s.33.02.5-.02.31-.08.42-.14c.15-.07.3-.17.45-.29s.26-.23.34-.31l.3-.3Z"/><path class="uuid-256709ed-32a4-4f21-a64d-8818512766d2" d="M220.25,240.72l.38-.38.79.44,2.2-2.2c.12-.12.25-.26.39-.42.14-.16.24-.32.31-.46.11-.22.16-.45.15-.67,0-.23-.1-.43-.27-.6-.13-.13-.29-.22-.48-.27-.2-.05-.41-.05-.64-.02-.3.05-.58.18-.83.37-.25.19-.51.42-.78.69l-1.88,1.88.55.55-.22.22c-.08.08-.16.12-.24.13-.08,0-.18-.04-.28-.14l-2.13-2.13.38-.38.81.46,3.48-3.48-.63-.63.25-.25c.09-.09.17-.13.27-.13.09,0,.19.05.3.14l1.41,1.23-.64.92c.42-.11.84-.11,1.27,0,.43.12.79.33,1.1.63.25.25.44.53.57.84s.16.62.11.95c-.04.26-.14.52-.28.76-.15.25-.37.52-.68.83l-2.42,2.42.58.58-.22.22c-.08.08-.16.12-.24.13-.08,0-.17-.04-.27-.13l-2.14-2.14Z"/><path class="uuid-256709ed-32a4-4f21-a64d-8818512766d2" d="M227.72,240.14l-.62-.62.49-.49.83.48,1.55-.7s.1.08.16.12c.06.04.11.09.15.13.14.14.21.29.21.43,0,.14-.08.29-.23.43l-.84.84,1.39,1.39-.21.21c-.12.12-.23.18-.32.18-.09,0-.19-.05-.3-.16l-1.04-1.05-2.62,2.62c-.22.22-.36.42-.42.59-.06.17-.06.33,0,.46s.13.25.23.35c.13.13.28.23.44.31.17.08.35.16.54.24,0,.14-.04.24-.1.3-.12.12-.33.15-.65.09-.23-.04-.49-.12-.78-.25s-.54-.3-.76-.53c-.11-.11-.22-.24-.33-.4-.11-.16-.18-.34-.22-.54s-.03-.42.05-.67c.05-.18.15-.36.27-.55.13-.19.32-.41.56-.65l2.59-2.59Z"/><path class="uuid-256709ed-32a4-4f21-a64d-8818512766d2" d="M226.71,247.17l.38-.38.87.52,3.47-3.47-.68-.69.25-.25c.08-.08.16-.12.25-.12s.17.04.26.11l1.72,1.54-4.15,4.15.67.67-.22.22c-.08.08-.16.12-.24.13-.08,0-.18-.04-.28-.14l-2.29-2.29ZM234.71,242.93c-.18.18-.4.27-.67.26s-.5-.11-.71-.31c-.19-.19-.29-.42-.29-.68,0-.26.08-.48.26-.65.18-.18.4-.26.68-.25.27,0,.51.11.7.3s.29.42.29.68c0,.27-.09.48-.26.65Z"/><path class="uuid-256709ed-32a4-4f21-a64d-8818512766d2" d="M231.41,248.78l.47.47-.67,1.26c.04.16.11.34.21.54.11.2.23.36.36.5.23.23.46.36.7.4.24.04.44-.03.61-.19.08-.08.14-.19.17-.34.04-.15.04-.35,0-.62-.03-.27-.12-.61-.26-1.04-.12-.38-.2-.72-.26-1.05-.05-.32-.04-.62.03-.91.07-.28.23-.54.47-.78.3-.3.64-.47,1.01-.5.37-.03.74.04,1.12.21.37.17.72.41,1.03.73.16.16.31.34.46.54s.28.4.39.58c.11.18.19.32.23.41l-1.2,1.2s-.1-.04-.16-.07c-.06-.03-.11-.06-.15-.1-.07-.07-.12-.15-.12-.23,0-.08,0-.16.06-.24l.42-.74c-.03-.12-.1-.28-.22-.48-.11-.21-.24-.38-.38-.52-.1-.1-.21-.18-.33-.24-.12-.06-.25-.09-.37-.08-.13,0-.25.07-.37.2-.14.13-.21.3-.23.5-.02.2,0,.42.07.68.07.26.15.54.25.86.12.39.2.74.25,1.06.05.32.04.62-.03.89s-.22.53-.46.77c-.26.26-.58.43-.95.49-.37.06-.76.02-1.18-.15-.41-.16-.81-.44-1.2-.82-.17-.17-.34-.37-.5-.6s-.3-.45-.42-.66c-.12-.21-.21-.38-.26-.51l1.41-1.41ZM236.26,246.17l.41-1.81c.03-.17.06-.31.1-.42s.08-.2.14-.26c.09-.09.19-.12.3-.1.11.02.23.07.34.14l.07,2.17,2.16.06c.08.12.13.23.14.35.01.11-.02.21-.11.3-.06.06-.15.11-.26.14-.11.03-.25.06-.42.1l-1.83.38-1.04-1.05Z"/><path class="uuid-256709ed-32a4-4f21-a64d-8818512766d2" d="M237.54,253.07c-.37.4-.62.8-.75,1.21-.13.41-.14.81-.05,1.19s.29.71.58,1c.13.13.3.26.5.39.2.13.49.26.86.4,0,.05-.02.11-.04.17-.02.06-.05.11-.09.14-.06.06-.13.1-.21.12-.08.02-.17.02-.27.01-.07,0-.21-.03-.44-.07-.22-.04-.49-.13-.79-.28-.3-.15-.61-.38-.92-.7-.43-.43-.71-.91-.84-1.43s-.11-1.04.06-1.57c.17-.53.48-1.02.93-1.46.34-.34.71-.6,1.13-.79.41-.19.84-.3,1.29-.33.45-.03.88.03,1.31.18.42.15.82.4,1.17.76.43.43.68.87.76,1.34.08.47,0,.92-.27,1.33-.07.15-.17.29-.29.44s-.27.31-.46.5l-.3.3-2.86-2.86ZM239.66,254.32c.17-.16.31-.34.43-.51.12-.18.21-.36.25-.54.05-.18.05-.36.01-.52-.04-.16-.13-.31-.26-.45-.2-.2-.43-.31-.68-.31s-.5.06-.75.19c-.25.13-.47.28-.67.46l1.67,1.67Z"/><path class="uuid-256709ed-32a4-4f21-a64d-8818512766d2" d="M245.54,253.3l-.55-.71.14-.14c.1-.11.21-.16.31-.17s.21.04.31.13l1.61,1.46-3.5,3.5c-.21.21-.43.42-.63.62s-.41.39-.61.59l3.27-.24-.58-.9.39-.39,2.33,2.33-.24.24c-.07.07-.15.12-.24.13-.09.01-.18-.03-.27-.12l-.4-.4-2.37-.02-.7,3.92.56.56-.21.21c-.12.12-.23.17-.34.13-.1-.04-.19-.08-.27-.13l-1.4-1.08.76-3.61h-.1c-.18,0-.34.01-.49.04-.15.03-.3.09-.44.18-.14.09-.31.24-.5.43l-.51.51.57.57-.22.22c-.08.08-.16.12-.24.13-.08,0-.17-.04-.27-.13l-2.16-2.16.38-.38.81.46,5.8-5.8Z"/><path class="uuid-256709ed-32a4-4f21-a64d-8818512766d2" d="M145.37,279.34l-.49-.84.38-.38,2.36,2.36c.09.09.14.18.14.26,0,.08-.05.17-.14.26l-.2.2-.67-.67-5.35,5.35,2.02,1.79,1.82-.68c.25-.09.44-.06.57.08.11.11.16.25.15.41l-2.23,1.58-4.7-4.7.38-.38.83.48,5.13-5.13Z"/><path class="uuid-256709ed-32a4-4f21-a64d-8818512766d2" d="M148.18,293.63l.62-1.12c-.13.04-.31.07-.55.09-.24.02-.49,0-.77-.07-.26-.07-.49-.16-.68-.28-.19-.12-.36-.26-.51-.41-.25-.25-.43-.53-.52-.82s-.13-.56-.1-.82c.03-.25.12-.51.26-.76.14-.26.39-.56.74-.91l2.29-2.29-.62-.62.24-.24c.08-.09.17-.13.27-.14.09,0,.19.04.29.13l1.63,1.45-2.82,2.82c-.15.15-.3.31-.45.5-.15.19-.25.37-.3.56-.07.2-.08.39-.03.57s.14.33.27.46c.2.2.45.29.76.29.31,0,.59-.07.85-.21.18-.08.36-.2.54-.36s.36-.33.54-.51l1.77-1.77-.62-.62.25-.25c.07-.07.15-.11.24-.13.09-.02.2.03.31.13l1.64,1.45-4.09,4.09.6.6s-.06.08-.09.12c-.04.04-.07.08-.09.1-.13.13-.25.17-.36.13-.12-.04-.21-.09-.28-.15l-1.22-1.04Z"/><path class="uuid-256709ed-32a4-4f21-a64d-8818512766d2" d="M156.23,295.37l.56-1.39s-.04-.09-.08-.15c-.04-.06-.09-.12-.13-.16-.15-.15-.36-.25-.62-.3-.26-.05-.56,0-.89.12-.33.13-.68.38-1.05.74-.37.38-.64.77-.79,1.18-.15.41-.2.81-.14,1.19.06.38.24.71.52,1,.13.13.29.25.49.36s.47.22.83.34c-.01.06-.02.12-.04.19-.01.07-.04.13-.1.18-.05.05-.12.09-.21.12-.09.03-.21.03-.36.02-.28-.01-.6-.09-.94-.23-.35-.14-.68-.38-1.02-.71-.39-.39-.65-.84-.78-1.35-.13-.51-.12-1.03.03-1.57.15-.54.46-1.04.92-1.49.34-.34.72-.61,1.14-.81s.85-.31,1.29-.34c.45-.03.88.03,1.3.18.42.15.8.4,1.15.74.28.28.48.57.62.87.13.3.2.59.18.87-.02.28-.12.51-.31.7-.18.18-.39.28-.63.28-.24,0-.47-.11-.71-.35l-.23-.23Z"/><path class="uuid-256709ed-32a4-4f21-a64d-8818512766d2" d="M154.56,299.89l.38-.38.87.52,3.48-3.47-.68-.69.25-.25c.08-.08.16-.12.25-.12.09,0,.17.04.26.11l1.72,1.54-4.15,4.15.67.67-.22.22c-.08.08-.16.12-.24.13-.08,0-.18-.04-.28-.14l-2.29-2.29ZM162.56,295.65c-.18.18-.4.26-.67.26s-.5-.11-.71-.31c-.19-.19-.29-.42-.29-.68,0-.27.08-.48.26-.65s.4-.26.68-.25c.27,0,.51.11.7.3.19.19.29.42.29.68,0,.26-.08.48-.26.65Z"/><path class="uuid-256709ed-32a4-4f21-a64d-8818512766d2" d="M160.62,305.96l.38-.38.78.44,2.2-2.2c.12-.12.25-.26.39-.42s.25-.32.31-.46c.11-.22.16-.45.15-.67,0-.23-.1-.43-.27-.6-.13-.13-.29-.22-.48-.26-.2-.05-.41-.05-.64-.02-.3.05-.58.18-.83.37s-.51.42-.78.69l-1.88,1.88.55.55-.22.22c-.08.08-.16.12-.24.13-.08,0-.18-.04-.28-.14l-2.13-2.13.38-.38.81.46,3.48-3.47-.63-.63.25-.25c.09-.09.17-.13.27-.13s.19.05.3.14l1.41,1.23-.64.92c.42-.11.84-.11,1.27,0,.43.12.79.33,1.1.63.25.25.44.53.57.84.13.31.16.62.11.95-.04.26-.14.52-.28.76-.15.25-.37.52-.68.83l-2.42,2.42.58.58-.22.22c-.08.08-.16.12-.24.13-.08,0-.17-.04-.27-.13l-2.14-2.14Z"/><path class="uuid-256709ed-32a4-4f21-a64d-8818512766d2" d="M170.55,303.18l-.55-.71.14-.14c.11-.11.21-.16.31-.17.1,0,.21.04.31.13l1.61,1.46-3.5,3.5c-.21.21-.43.42-.63.62-.21.2-.41.39-.61.59l3.27-.24-.57-.91.39-.39,2.33,2.33-.24.24c-.07.07-.15.12-.24.13-.09.02-.18-.02-.27-.12l-.4-.4-2.37-.02-.7,3.92.56.56-.21.21c-.12.12-.24.17-.34.13-.1-.04-.19-.08-.27-.13l-1.4-1.08.76-3.61h-.1c-.18,0-.34.01-.49.04s-.3.09-.44.18c-.14.09-.31.24-.5.43l-.51.51.57.57-.22.22c-.08.08-.16.12-.24.13-.08,0-.17-.04-.27-.13l-2.16-2.16.38-.38.81.46,5.8-5.8Z"/><path class="uuid-256709ed-32a4-4f21-a64d-8818512766d2" d="M172.03,317.48l.61-1.17c-.49.16-.95.19-1.38.08-.43-.1-.77-.29-1.04-.55-.27-.27-.43-.54-.5-.83s-.06-.57.03-.84c.09-.27.24-.51.45-.72.2-.2.42-.35.64-.44.23-.09.41-.16.54-.2l3,1.57.72-.72c.26-.26.38-.52.37-.79s-.12-.52-.34-.74c-.07-.07-.16-.15-.26-.23-.1-.08-.19-.14-.27-.2l-1.12.96-.35-.35c-.24-.24-.37-.46-.38-.65s.05-.35.17-.47c.16-.16.38-.25.65-.25.27,0,.54.04.81.12.38.11.74.27,1.06.47.33.21.6.41.81.63.23.23.4.45.51.65s.17.4.19.6c.03.26-.02.52-.14.77-.13.25-.33.52-.62.8l-2.73,2.73.62.62s-.06.08-.09.12c-.04.04-.07.08-.1.11-.12.12-.23.15-.35.12-.11-.04-.21-.1-.29-.16l-1.23-1.03ZM173.94,314.83l-.89-.52c-.34-.2-.64-.28-.9-.23s-.48.17-.66.34c-.17.17-.26.37-.28.6-.02.23.06.44.24.62.14.14.29.23.46.25s.33.02.5-.02c.17-.04.31-.08.42-.14.15-.07.3-.17.45-.29.15-.13.26-.23.34-.31l.3-.3Z"/></g></svg>