<?xml version="1.0" encoding="UTF-8"?><svg id="uuid-d03c349d-91d0-4f6d-9f31-1f5d915ab6ad" xmlns="http://www.w3.org/2000/svg" viewBox="0 0 595.28 368.5"><defs><style>.uuid-a8c2ad67-94c3-4601-87e3-5af90ba8bf29{fill:#c1b6aa;}.uuid-c8dcb474-df1a-45ce-ba2b-232fc2b4d22d{fill:#fff;}</style></defs><g id="uuid-5d36d6fd-b65b-42f1-8046-7af82e109dd6"><path class="uuid-a8c2ad67-94c3-4601-87e3-5af90ba8bf29" d="M595.28,0H0v368.5h595.28V0ZM212.59,128.8c0-20.57,16.67-37.24,37.24-37.24s37.24,16.67,37.24,37.24-16.67,37.24-37.24,37.24-37.24-16.67-37.24-37.24ZM133.14,173.45c0-20.57,16.67-37.24,37.24-37.24s37.24,16.67,37.24,37.24-16.67,37.24-37.24,37.24-37.24-16.67-37.24-37.24ZM69.46,240c0-20.57,16.67-37.24,37.24-37.24s37.24,16.67,37.24,37.24-16.67,37.24-37.24,37.24-37.24-16.67-37.24-37.24ZM380.42,86.05c0-20.57,16.67-37.24,37.24-37.24s37.24,16.67,37.24,37.24-16.67,37.24-37.24,37.24-37.24-16.67-37.24-37.24ZM474.18,94.44c0-20.57,16.67-37.24,37.24-37.24s37.24,16.67,37.24,37.24-16.67,37.24-37.24,37.24-37.24-16.67-37.24-37.24ZM307.45,208.78c0-20.57,16.67-37.24,37.24-37.24s37.24,16.67,37.24,37.24-16.67,37.24-37.24,37.24-37.24-16.67-37.24-37.24Z"/><path class="uuid-c8dcb474-df1a-45ce-ba2b-232fc2b4d22d" d="M183.6,53.81l-.49-.84.38-.38,2.36,2.36c.09.09.14.18.14.26s-.04.17-.14.26l-.2.2-.67-.67-5.35,5.35,2.02,1.8,1.82-.68c.25-.08.44-.06.57.08.11.11.16.25.15.41l-2.23,1.58-4.7-4.7.38-.38.83.48,5.13-5.13Z"/><path class="uuid-c8dcb474-df1a-45ce-ba2b-232fc2b4d22d" d="M185.58,67.26l.61-1.17c-.49.16-.95.19-1.38.08-.43-.1-.77-.29-1.04-.55s-.43-.54-.5-.83-.06-.57.04-.84c.09-.27.24-.51.45-.72.2-.2.42-.35.64-.44.23-.09.4-.16.53-.2l3,1.57.72-.72c.26-.26.38-.52.38-.79,0-.27-.12-.52-.34-.74-.07-.07-.16-.15-.26-.23s-.19-.14-.27-.2l-1.12.96-.35-.35c-.24-.24-.37-.46-.38-.65,0-.19.05-.35.17-.47.17-.17.38-.25.65-.25.27,0,.54.04.81.11.38.11.73.27,1.06.47s.6.41.81.63c.23.23.4.44.51.65s.17.4.19.6c.03.26-.02.52-.14.77s-.33.52-.62.8l-2.73,2.73.62.62s-.06.08-.09.12c-.04.04-.07.08-.1.11-.12.12-.23.15-.35.12-.11-.04-.21-.1-.29-.16l-1.23-1.03ZM187.49,64.61l-.89-.52c-.34-.2-.64-.28-.9-.23s-.48.17-.66.34c-.17.17-.26.37-.27.6-.02.23.06.44.24.62.14.14.3.23.46.25.17.03.33.02.5-.02.17-.04.31-.08.42-.14.15-.07.3-.17.45-.29.15-.13.26-.23.34-.31l.3-.3Z"/><path class="uuid-c8dcb474-df1a-45ce-ba2b-232fc2b4d22d" d="M197.16,66.03l-.54-.7.15-.15c.1-.1.2-.15.3-.16.1,0,.21.03.31.13l1.61,1.46-6.43,6.43.62.62s-.07.09-.11.13c-.04.05-.07.08-.09.1-.1.1-.2.14-.3.12-.11-.02-.22-.07-.33-.17l-1.23-1.03.63-1.08c-.42.13-.85.15-1.3.05s-.84-.32-1.17-.65-.54-.66-.65-1.02c-.11-.36-.14-.71-.09-1.06.05-.35.17-.69.35-1s.39-.6.64-.86c.5-.5,1.06-.86,1.68-1.08.62-.21,1.24-.26,1.87-.14.63.12,1.2.43,1.7.94.1.1.2.22.31.37s.2.32.3.53l1.77-1.77ZM194.75,68.44c-.06-.14-.13-.3-.21-.48s-.21-.35-.38-.51c-.26-.26-.57-.4-.91-.41s-.69.08-1.05.28c-.36.2-.71.47-1.06.82-.37.37-.65.73-.84,1.09s-.29.69-.29,1c0,.3.1.56.3.76.15.15.31.24.49.28s.37.05.58.02c.21-.04.44-.13.66-.27.22-.14.45-.32.68-.55l2.03-2.03Z"/><path class="uuid-c8dcb474-df1a-45ce-ba2b-232fc2b4d22d" d="M196.93,78.62l.62-1.12c-.13.04-.31.07-.55.09-.24.02-.49,0-.76-.07-.26-.07-.49-.16-.68-.28-.19-.12-.36-.26-.51-.41-.25-.25-.43-.53-.52-.82-.1-.29-.13-.56-.1-.82.03-.25.12-.5.26-.76s.39-.56.74-.91l2.29-2.29-.62-.62.24-.24c.09-.09.17-.13.27-.14s.19.04.3.13l1.63,1.44-2.82,2.82c-.15.15-.3.32-.45.5-.15.19-.25.37-.3.56-.07.2-.08.39-.03.57.05.18.14.33.27.46.2.2.45.29.76.29.31,0,.59-.08.85-.21.18-.08.36-.2.54-.36.18-.16.36-.33.54-.51l1.76-1.76-.62-.62.25-.25c.07-.07.15-.11.24-.13.09-.02.2.03.31.13l1.64,1.45-4.09,4.09.6.6s-.05.08-.09.12-.07.08-.09.1c-.13.13-.25.17-.36.13-.12-.04-.21-.09-.28-.15l-1.22-1.04Z"/><path class="uuid-c8dcb474-df1a-45ce-ba2b-232fc2b4d22d" d="M202.01,83.58l.38-.38.79.44,2.2-2.2c.12-.12.25-.26.39-.42.14-.17.25-.32.31-.46.11-.22.16-.45.15-.67s-.1-.43-.27-.6c-.13-.13-.29-.22-.49-.26s-.41-.05-.64-.02c-.3.05-.58.18-.83.37-.25.19-.51.42-.78.69l-1.88,1.88.56.56-.22.22c-.08.08-.16.12-.24.13-.08,0-.18-.04-.28-.14l-2.13-2.13.38-.38.81.46,3.47-3.47-.63-.63.25-.25c.09-.09.17-.13.27-.13s.19.05.29.14l1.42,1.23-.64.92c.42-.11.84-.11,1.27,0s.8.33,1.1.64c.25.25.44.53.57.84.13.31.16.62.11.95-.04.26-.14.52-.28.76-.15.25-.37.52-.68.83l-2.42,2.42.58.58-.22.22c-.08.08-.16.12-.24.13-.08,0-.17-.04-.27-.13l-2.14-2.14Z"/><path class="uuid-c8dcb474-df1a-45ce-ba2b-232fc2b4d22d" d="M211.93,80.8l-.55-.71.14-.14c.1-.11.21-.16.31-.17.11,0,.21.04.31.13l1.61,1.46-3.5,3.5c-.21.21-.43.42-.63.62-.21.2-.41.39-.61.59l3.27-.24-.58-.91.39-.39,2.33,2.33-.24.24c-.07.07-.16.12-.24.13-.09.02-.18-.02-.27-.12l-.4-.4-2.37-.02-.7,3.92.56.55-.21.21c-.12.12-.23.17-.34.13s-.19-.08-.27-.13l-1.4-1.08.76-3.61h-.1c-.18,0-.34.01-.49.04-.15.03-.3.09-.44.18-.14.09-.31.24-.5.43l-.51.52.57.57-.22.22c-.08.08-.16.12-.24.13-.08,0-.17-.04-.27-.13l-2.16-2.16.38-.38.81.46,5.8-5.8Z"/><path class="uuid-c8dcb474-df1a-45ce-ba2b-232fc2b4d22d" d="M213.42,95.1l.61-1.17c-.49.16-.95.19-1.38.08-.43-.1-.77-.29-1.04-.55s-.43-.54-.5-.83-.06-.57.03-.84c.09-.27.24-.51.45-.72.2-.2.42-.35.64-.44.23-.09.41-.16.54-.2l3,1.57.72-.72c.26-.26.38-.52.38-.79,0-.27-.12-.52-.34-.74-.07-.07-.16-.15-.26-.23-.1-.08-.19-.14-.27-.2l-1.12.96-.35-.35c-.24-.24-.37-.46-.38-.65,0-.2.05-.35.17-.48.17-.17.38-.25.65-.25.27,0,.54.04.81.11.38.11.74.27,1.06.47.33.2.6.41.81.63.23.23.4.44.51.65s.17.4.19.6c.03.27-.02.52-.14.77s-.33.52-.62.8l-2.73,2.73.62.62s-.05.08-.09.12c-.04.04-.07.08-.1.11-.12.12-.23.15-.35.11-.11-.04-.21-.09-.29-.16l-1.23-1.03ZM215.33,92.45l-.89-.52c-.34-.2-.64-.28-.9-.23-.26.05-.48.17-.66.34-.17.17-.26.36-.27.6-.02.23.06.44.24.62.14.14.3.22.46.25s.33.02.5-.02.31-.08.42-.14c.15-.07.3-.16.45-.29.15-.13.26-.23.34-.31l.3-.3Z"/><path class="uuid-c8dcb474-df1a-45ce-ba2b-232fc2b4d22d" d="M201.64,212.15l.38-.38.83.48,5.13-5.13-.48-.83.38-.38,4.74,4.74-1.61,1.61c-.05,0-.11-.02-.17-.05-.06-.02-.12-.06-.16-.1-.07-.07-.1-.14-.1-.22,0-.08.02-.16.07-.25l.66-1.25-1.91-2.11-2.59,2.59,1.29,1.29,1.04-.41.35.35-1.68,1.68c-.06.06-.14.1-.22.12-.09.02-.17-.02-.27-.11l-.18-.18.55-.88-1.37-1.37-2.25,2.25,1.02,1.02-.22.22c-.09.09-.17.13-.26.12s-.17-.05-.25-.13l-2.7-2.7Z"/><path class="uuid-c8dcb474-df1a-45ce-ba2b-232fc2b4d22d" d="M206.79,217.31l.38-.38.81.46,3.47-3.47-.63-.63.25-.25c.09-.09.17-.13.27-.13.09,0,.19.04.29.13l1.39,1.2-.79,1.07c.44-.18.87-.24,1.29-.19.42.05.76.2,1.02.46.2.2.33.41.38.62.05.21.04.41-.03.6-.06.19-.15.34-.27.46-.21.21-.45.31-.71.29-.26-.02-.49-.13-.69-.33l-.2-.2.36-1.21c-.17-.05-.38-.05-.63-.02-.25.04-.48.11-.69.22-.12.06-.25.14-.39.23-.14.09-.28.21-.44.35-.16.14-.35.32-.56.53l-1.54,1.54.91.91-.21.21c-.08.08-.17.12-.26.14-.09.01-.19-.03-.29-.13l-2.48-2.48Z"/><path class="uuid-c8dcb474-df1a-45ce-ba2b-232fc2b4d22d" d="M213.71,224.34l.61-1.17c-.49.16-.95.19-1.38.08-.43-.1-.77-.29-1.04-.55-.27-.27-.43-.54-.5-.83s-.06-.57.03-.84c.09-.27.24-.51.45-.72.2-.2.42-.35.64-.44.23-.09.41-.16.54-.2l3,1.57.72-.72c.26-.26.38-.52.38-.79,0-.27-.12-.52-.34-.74-.07-.07-.16-.15-.26-.23-.1-.08-.19-.14-.27-.2l-1.12.96-.35-.35c-.24-.24-.37-.46-.38-.65,0-.19.05-.35.17-.47.17-.17.38-.25.65-.25s.54.04.81.11c.38.11.74.27,1.06.47.33.21.6.42.81.63.23.23.4.44.51.65.11.2.17.4.19.6.03.26-.02.52-.14.77-.12.25-.33.52-.62.8l-2.73,2.73.62.62s-.05.08-.09.12c-.04.04-.07.08-.1.11-.12.12-.23.15-.35.11s-.21-.09-.29-.16l-1.23-1.03ZM215.62,221.69l-.89-.52c-.34-.2-.64-.28-.9-.23-.26.05-.48.17-.66.34-.17.17-.26.37-.27.6-.02.23.06.44.24.62.14.14.3.23.46.25s.33.02.5-.02c.17-.04.31-.08.42-.14.15-.07.3-.17.45-.29s.26-.23.34-.31l.3-.3Z"/><path class="uuid-c8dcb474-df1a-45ce-ba2b-232fc2b4d22d" d="M218.74,229.26l.38-.38.78.44,2.2-2.2c.12-.12.25-.26.39-.42.14-.17.25-.32.31-.46.11-.22.16-.45.15-.67,0-.23-.1-.43-.27-.6-.13-.13-.29-.22-.48-.26-.2-.05-.41-.05-.64-.02-.3.05-.58.18-.83.37-.25.19-.51.42-.78.69l-1.88,1.88.55.56-.22.22c-.08.08-.16.12-.24.13-.08,0-.18-.04-.28-.14l-2.13-2.13.38-.38.81.46,3.47-3.47-.63-.63.25-.25c.09-.09.17-.13.27-.13s.19.05.3.14l1.41,1.23-.64.92c.42-.11.84-.11,1.27,0s.8.33,1.1.64c.25.25.44.53.57.84.13.31.16.62.11.95-.04.26-.14.52-.28.76-.15.25-.37.52-.68.83l-2.42,2.42.58.58-.22.22c-.08.08-.16.12-.24.13s-.17-.04-.27-.13l-2.14-2.14Z"/><path class="uuid-c8dcb474-df1a-45ce-ba2b-232fc2b4d22d" d="M226.21,228.67l-.62-.62.49-.49.83.48,1.55-.7s.1.08.16.12c.06.04.11.09.15.13.14.14.21.28.2.43,0,.14-.08.29-.23.43l-.84.84,1.39,1.39-.21.21c-.12.12-.23.18-.32.18s-.19-.05-.3-.16l-1.05-1.05-2.62,2.62c-.22.22-.36.42-.42.59-.06.17-.06.33,0,.46.05.13.13.25.23.35.13.13.28.23.44.32s.34.16.54.24c0,.14-.04.24-.1.3-.12.12-.33.15-.65.09-.23-.04-.49-.12-.78-.25s-.54-.3-.76-.52c-.11-.11-.22-.24-.33-.4-.11-.16-.18-.34-.22-.54-.04-.2-.03-.42.05-.67.05-.18.15-.36.27-.55.13-.19.32-.41.56-.65l2.59-2.59Z"/><path class="uuid-c8dcb474-df1a-45ce-ba2b-232fc2b4d22d" d="M225.19,235.71l.38-.38.87.52,3.47-3.47-.69-.69.25-.25c.08-.08.16-.12.25-.12s.17.04.26.11l1.72,1.54-4.15,4.15.67.67-.22.22c-.08.08-.16.12-.24.13-.08,0-.18-.04-.28-.14l-2.29-2.29ZM233.19,231.46c-.18.18-.4.27-.67.26-.27,0-.5-.11-.71-.31-.19-.19-.29-.42-.29-.68,0-.26.08-.48.26-.65.18-.18.4-.26.68-.25.27,0,.51.11.7.3s.29.42.29.68c0,.26-.08.48-.26.65Z"/><path class="uuid-c8dcb474-df1a-45ce-ba2b-232fc2b4d22d" d="M229.89,237.32l.47.47-.67,1.26c.04.16.11.34.21.54.11.2.23.36.36.5.23.23.46.36.7.4s.44-.03.61-.19c.08-.08.14-.19.17-.34.04-.15.04-.35,0-.62s-.12-.61-.26-1.03c-.12-.38-.2-.73-.26-1.05-.05-.32-.04-.63.03-.91.07-.28.23-.54.47-.78.3-.3.64-.47,1.01-.5.37-.03.74.04,1.12.21.37.17.71.41,1.03.73.16.16.32.34.46.54.15.2.28.4.39.58.11.19.19.32.23.42l-1.2,1.2s-.1-.04-.16-.07-.11-.06-.15-.1c-.07-.07-.12-.15-.12-.23s.01-.16.06-.24l.42-.74c-.03-.12-.1-.28-.22-.49-.12-.21-.24-.38-.38-.52-.1-.1-.21-.18-.33-.24-.12-.06-.25-.09-.37-.08-.13,0-.25.07-.37.2-.13.13-.21.3-.23.5-.02.2,0,.42.07.68.06.25.15.54.25.86.12.39.2.74.25,1.06.05.32.04.62-.03.89-.07.27-.22.53-.46.77-.26.26-.58.43-.95.49-.37.06-.76.02-1.18-.15-.41-.16-.81-.44-1.2-.82-.17-.17-.34-.37-.5-.6s-.3-.45-.42-.66c-.12-.21-.21-.38-.26-.51l1.41-1.41ZM234.74,234.7l.41-1.81c.03-.17.06-.31.1-.42s.08-.2.14-.26c.09-.09.19-.12.3-.1s.23.07.34.14l.07,2.17,2.16.06c.08.12.13.23.14.35.02.11-.02.21-.1.3-.06.06-.15.11-.26.14-.11.03-.25.06-.42.09l-1.83.38-1.04-1.05Z"/><path class="uuid-c8dcb474-df1a-45ce-ba2b-232fc2b4d22d" d="M236.02,241.61c-.37.4-.62.8-.75,1.21-.13.41-.14.81-.05,1.19.1.38.29.71.58,1,.13.13.3.26.5.39.2.13.49.26.86.4,0,.05-.02.11-.04.17-.02.06-.05.11-.09.14-.06.06-.13.1-.21.12-.08.01-.17.02-.27.01-.07,0-.21-.03-.44-.07-.22-.04-.49-.13-.79-.28-.3-.15-.61-.38-.92-.7-.43-.43-.71-.91-.84-1.43s-.11-1.04.06-1.57c.17-.53.48-1.02.93-1.46.34-.34.71-.6,1.13-.79.41-.19.84-.3,1.29-.33.45-.03.88.03,1.31.18.42.15.82.4,1.17.76.43.43.68.88.76,1.34.08.47-.01.92-.27,1.33-.07.15-.17.29-.29.44-.12.14-.27.31-.46.5l-.3.3-2.86-2.86ZM238.15,242.85c.17-.17.31-.34.43-.51.12-.18.21-.36.25-.53.05-.18.05-.36.01-.52-.04-.16-.13-.31-.26-.45-.2-.2-.43-.31-.68-.31-.25,0-.5.06-.75.19-.25.13-.47.28-.67.46l1.67,1.67Z"/><path class="uuid-c8dcb474-df1a-45ce-ba2b-232fc2b4d22d" d="M244.03,241.84l-.55-.71.14-.14c.1-.1.21-.16.31-.17s.21.04.31.13l1.61,1.46-3.5,3.5c-.21.21-.43.42-.63.62-.21.2-.41.39-.61.59l3.27-.24-.58-.91.39-.39,2.33,2.33-.24.24c-.07.07-.16.12-.24.13-.09.02-.18-.02-.27-.12l-.4-.4-2.37-.02-.7,3.92.56.56-.21.21c-.12.12-.23.17-.34.13-.1-.04-.19-.08-.27-.13l-1.4-1.08.76-3.61h-.1c-.18,0-.34.01-.49.04-.15.03-.3.09-.44.18-.14.09-.31.24-.5.43l-.51.51.57.57-.22.22c-.08.08-.16.12-.24.13-.08,0-.17-.04-.27-.13l-2.16-2.16.38-.38.81.46,5.8-5.8Z"/><path class="uuid-c8dcb474-df1a-45ce-ba2b-232fc2b4d22d" d="M449.6,121.09l-.49-.84.38-.38,2.1,2.1-2.1,4.82c-.11.24-.21.48-.33.72-.11.24-.22.48-.33.71l6.33-2.68,1.69,1.69c.09.09.13.17.12.25s-.05.16-.13.24l-.23.23-.57-.56-5.28,5.28.69.69-.22.22c-.08.08-.16.12-.25.13s-.17-.04-.26-.12l-2.35-2.35.4-.4.88.53,3.23-3.23c.12-.12.26-.26.4-.4.14-.14.29-.29.44-.43.15-.14.3-.28.45-.42l-7.19,2.94c-.16-.16-.26-.31-.3-.45-.04-.14-.03-.3.03-.47.06-.17.14-.38.25-.62l1.81-4.33c.08-.21.19-.45.33-.72s.27-.55.42-.83l-4.51,4.51.68.68-.24.24c-.08.08-.16.12-.24.12s-.16-.04-.25-.13l-1.79-1.79.38-.38.84.49.84-.69,4.37-4.37Z"/><path class="uuid-c8dcb474-df1a-45ce-ba2b-232fc2b4d22d" d="M454.49,137.46l.61-1.17c-.49.16-.95.19-1.38.08-.43-.1-.77-.29-1.04-.55s-.43-.54-.5-.83c-.07-.29-.06-.57.04-.84s.24-.51.45-.72c.2-.2.42-.35.64-.44.23-.09.4-.16.53-.2l3,1.57.72-.72c.26-.26.38-.52.38-.79,0-.27-.12-.52-.34-.74-.07-.07-.16-.15-.26-.23-.1-.08-.19-.14-.27-.2l-1.12.96-.35-.35c-.24-.24-.37-.46-.38-.65,0-.2.05-.35.17-.47.17-.17.38-.25.65-.25.27,0,.54.04.81.11.38.11.73.27,1.06.47.33.2.6.41.81.63.23.23.4.44.51.65s.17.4.19.6c.03.26-.02.52-.14.77-.13.25-.33.52-.62.8l-2.73,2.73.62.62s-.05.08-.09.12-.07.08-.1.11c-.12.12-.23.15-.34.11s-.21-.09-.29-.16l-1.23-1.03ZM456.4,134.81l-.89-.52c-.34-.21-.64-.28-.9-.23-.26.05-.48.17-.66.34-.17.16-.26.36-.27.6-.02.23.06.44.24.62.14.14.3.22.46.25s.33.02.5-.02c.17-.04.31-.08.42-.14.15-.07.3-.16.45-.29.15-.13.26-.23.34-.31l.3-.3Z"/><path class="uuid-c8dcb474-df1a-45ce-ba2b-232fc2b4d22d" d="M464.19,138.63c.03.31,0,.61-.12.88-.11.28-.26.51-.45.7-.31.31-.68.51-1.09.6-.41.08-.84.05-1.29-.11s-.89-.45-1.32-.88c-.06-.06-.12-.12-.18-.2-.07-.07-.13-.14-.18-.2-.17-.03-.34-.02-.52.02-.18.04-.34.13-.48.26.09.1.25.29.49.54.23.26.55.59.96.99s.68.79.81,1.14.15.66.08.94c-.08.28-.22.53-.44.74-.29.29-.67.47-1.15.54-.48.07-1,0-1.56-.21-.56-.21-1.11-.58-1.65-1.12-.61-.61-.97-1.19-1.09-1.75-.12-.55,0-1.01.35-1.36.25-.24.54-.37.87-.36.33,0,.64.07.91.21,0-.08,0-.19.02-.34.02-.14.11-.29.25-.44.15-.15.38-.28.67-.37.29-.09.64-.16,1.05-.19-.17-.41-.22-.83-.15-1.24.07-.41.26-.78.59-1.11.31-.31.67-.5,1.09-.59.42-.09.87-.05,1.32.11.46.16.9.45,1.32.87.15.15.29.32.41.52.13.2.22.4.29.61.02-.03.04-.05.06-.07.02-.03.03-.04.04-.05.23-.23.5-.37.79-.42.29-.04.56.05.79.28.18.19.27.4.25.64-.02.24-.1.47-.24.7l-1.52-.29ZM459.09,143.62c.12-.12.19-.26.22-.43.03-.17-.03-.39-.17-.66s-.41-.61-.81-1.01l-.31-.31c-.15-.15-.31-.26-.48-.35-.18-.08-.35-.12-.53-.1-.17.02-.34.1-.5.26-.13.13-.21.3-.25.53-.04.22,0,.47.1.75.11.28.31.56.6.86.4.39.79.63,1.18.71.39.07.71,0,.94-.24ZM460.5,139.49c.24.24.51.33.82.28s.62-.24.95-.57c.24-.24.42-.49.55-.75.13-.26.19-.52.18-.77,0-.25-.12-.48-.32-.68-.17-.17-.35-.26-.54-.27s-.39.03-.59.13c-.2.1-.4.26-.61.46-.27.27-.46.54-.58.82-.12.27-.17.53-.14.76.03.24.12.43.28.59Z"/><path class="uuid-c8dcb474-df1a-45ce-ba2b-232fc2b4d22d" d="M470.85,141l-.54-.7.15-.15c.1-.1.2-.15.3-.16.1,0,.21.03.31.12l1.61,1.46-6.43,6.43.62.62s-.07.09-.11.13c-.04.04-.07.08-.09.1-.1.1-.2.14-.3.12-.11-.02-.22-.07-.33-.17l-1.23-1.03.63-1.08c-.42.13-.85.15-1.3.05-.45-.1-.84-.32-1.17-.65-.32-.32-.54-.66-.65-1.02-.11-.36-.14-.71-.09-1.06.05-.35.17-.69.35-1,.18-.32.39-.61.64-.86.5-.5,1.06-.86,1.68-1.08.62-.22,1.24-.27,1.87-.15.63.12,1.2.43,1.7.94.1.1.2.22.31.37.1.15.2.32.3.53l1.77-1.77ZM468.44,143.41c-.06-.14-.13-.3-.21-.48-.08-.17-.21-.35-.38-.51-.27-.27-.57-.4-.91-.41s-.69.08-1.05.28c-.36.2-.71.47-1.06.82-.37.37-.65.73-.84,1.09-.19.36-.29.69-.29,1s.1.56.3.76c.15.15.31.24.49.28s.37.05.58.02c.21-.04.44-.13.66-.27.22-.14.45-.32.68-.55l2.03-2.03Z"/><path class="uuid-c8dcb474-df1a-45ce-ba2b-232fc2b4d22d" d="M469.73,152.69l.61-1.17c-.49.16-.95.19-1.38.08s-.77-.29-1.04-.55c-.27-.27-.43-.54-.5-.83s-.06-.57.03-.84c.09-.27.24-.51.45-.72.2-.2.42-.35.64-.44.23-.09.41-.16.54-.2l3,1.57.72-.72c.26-.26.38-.52.38-.79,0-.27-.12-.52-.34-.74-.07-.07-.16-.15-.26-.23-.1-.08-.19-.14-.27-.2l-1.12.96-.35-.35c-.24-.24-.37-.46-.38-.65s.05-.35.17-.47c.16-.16.38-.25.65-.25.27,0,.54.04.81.11.38.11.74.27,1.06.47.33.21.6.42.81.63.23.23.4.44.51.65.11.2.17.4.19.6.03.26-.02.52-.14.77s-.33.52-.62.8l-2.73,2.73.62.62s-.06.08-.09.12c-.04.04-.07.08-.1.11-.12.12-.23.15-.35.12-.11-.04-.21-.1-.29-.16l-1.23-1.03ZM471.64,150.04l-.89-.52c-.34-.2-.64-.28-.9-.23s-.48.17-.66.34c-.17.17-.26.37-.27.6-.02.23.06.44.24.62.14.14.3.23.46.25s.33.02.5-.02c.17-.04.31-.08.42-.14.15-.07.3-.17.45-.29.15-.13.26-.23.34-.31l.3-.3Z"/><path class="uuid-c8dcb474-df1a-45ce-ba2b-232fc2b4d22d" d="M547.4,128.09l-.5-.85.38-.38,2.35,2.35c.09.09.14.18.13.26s-.05.17-.14.26l-.21.21-.65-.65-2.77,2.77,5.07-.31-.62-.97.38-.38,1.99,1.99c.08.08.12.16.12.25s-.05.18-.15.28l-.2.2-.52-.52-3.99.12-.92,5.49.41.41-.26.26c-.15.15-.3.16-.45,0l-1.5-1.5.87-4.63-.42.02c-.17.02-.31.04-.44.07-.13.03-.27.12-.44.29l-1.43,1.43.68.68-.22.22c-.09.08-.17.13-.26.12s-.17-.04-.24-.12l-2.38-2.38.38-.38.84.49,5.13-5.13Z"/><path class="uuid-c8dcb474-df1a-45ce-ba2b-232fc2b4d22d" d="M550.84,143l.62-1.12c-.13.04-.31.07-.55.09-.24.02-.49,0-.76-.07-.26-.07-.49-.16-.68-.28-.19-.12-.36-.26-.51-.41-.25-.25-.43-.53-.52-.82-.1-.29-.13-.56-.1-.82.03-.25.12-.5.26-.76s.39-.56.74-.91l2.29-2.29-.62-.62.24-.24c.09-.09.17-.13.27-.14s.19.04.3.13l1.63,1.44-2.82,2.82c-.15.15-.3.32-.45.5-.15.19-.25.37-.3.56-.07.2-.08.39-.03.57.05.18.14.33.27.46.2.2.45.29.76.29.31,0,.59-.08.85-.21.18-.08.36-.2.54-.36.18-.16.36-.33.54-.51l1.76-1.76-.62-.62.25-.25c.07-.07.15-.11.24-.13.09-.02.2.03.31.13l1.64,1.45-4.09,4.09.6.6s-.05.08-.09.12c-.04.04-.07.08-.09.1-.13.13-.25.17-.36.13-.12-.04-.21-.09-.28-.15l-1.22-1.04Z"/><path class="uuid-c8dcb474-df1a-45ce-ba2b-232fc2b4d22d" d="M559.74,139.09l-.55-.71.14-.14c.1-.11.21-.16.31-.17.11,0,.21.04.31.13l1.61,1.46-3.01,3.01c.34-.08.71-.07,1.11.03s.74.31,1.04.6c.32.32.54.66.65,1.02.11.36.14.71.09,1.06-.05.35-.17.69-.35,1-.18.32-.39.6-.64.86-.49.49-1.05.85-1.67,1.07-.62.22-1.25.27-1.88.15-.63-.12-1.19-.43-1.7-.94-.15-.15-.3-.34-.44-.57s-.28-.52-.41-.87l-.57-.13-.39-.52,6.35-6.35ZM555.22,146.02c.06.13.12.28.19.45.07.17.2.35.39.54.27.27.58.41.91.42s.69-.09,1.05-.29.71-.47,1.06-.82c.37-.37.65-.73.84-1.09.19-.36.29-.69.29-1,0-.3-.1-.55-.29-.75-.14-.14-.3-.24-.49-.28-.18-.05-.38-.05-.59-.02-.21.03-.43.11-.66.25s-.45.32-.67.54l-2.05,2.05Z"/><path class="uuid-c8dcb474-df1a-45ce-ba2b-232fc2b4d22d" d="M561.33,153.49l.61-1.17c-.49.16-.95.19-1.38.08-.43-.1-.77-.29-1.04-.55s-.43-.54-.5-.83-.06-.57.03-.84c.09-.27.24-.51.45-.72.2-.2.42-.35.64-.44.23-.09.41-.16.54-.2l3,1.57.72-.72c.26-.26.38-.52.38-.79,0-.27-.12-.52-.34-.74-.07-.07-.16-.15-.26-.23-.1-.08-.19-.14-.27-.2l-1.12.96-.35-.35c-.24-.24-.37-.46-.38-.65,0-.19.05-.35.17-.47.17-.17.38-.25.65-.25.27,0,.54.04.81.11.38.11.74.27,1.06.47.33.2.6.41.81.63.23.23.4.44.51.65s.17.4.19.6c.03.27-.02.52-.14.77s-.33.52-.62.8l-2.73,2.73.62.62s-.05.08-.09.12c-.04.04-.07.08-.1.11-.12.12-.23.15-.35.11-.11-.04-.21-.09-.29-.16l-1.23-1.03ZM563.24,150.84l-.89-.52c-.34-.2-.64-.28-.9-.23-.26.05-.48.17-.66.34-.17.17-.26.36-.27.6-.02.23.06.44.24.62.14.14.3.22.46.25s.33.02.5-.02.31-.08.42-.14c.15-.07.3-.16.45-.29.15-.13.26-.23.34-.31l.3-.3Z"/><path class="uuid-c8dcb474-df1a-45ce-ba2b-232fc2b4d22d" d="M378.85,250.37l.95-4.19-.73-.73-2.1,2.1.76.76-.22.22c-.08.08-.17.13-.25.13s-.17-.05-.27-.14l-2.44-2.44.38-.38.84.49,5.13-5.13-.48-.83.38-.38,2.71,2.71c.31.31.59.65.83.99s.41.71.52,1.08.12.74.04,1.1c-.08.37-.29.72-.63,1.05-.25.25-.53.41-.86.5-.33.09-.66.12-1.01.07-.35-.04-.68-.14-1.01-.28l-.81,4.06.45.45-.21.21c-.08.08-.16.12-.25.13-.09,0-.18-.04-.28-.14l-1.43-1.43ZM379.56,244.96c.1.11.21.24.35.39.13.15.27.29.4.43.27.27.55.42.85.46.29.03.58-.02.87-.15s.53-.31.74-.51c.49-.49.76-.95.82-1.38.05-.43-.13-.86-.56-1.28-.1-.1-.22-.21-.36-.34-.14-.13-.27-.24-.37-.33l-2.73,2.73Z"/><path class="uuid-c8dcb474-df1a-45ce-ba2b-232fc2b4d22d" d="M384.41,256.04l.62-1.12c-.13.04-.31.07-.55.09s-.5,0-.77-.07c-.26-.07-.49-.16-.68-.28-.19-.12-.36-.26-.51-.41-.25-.25-.43-.53-.52-.82-.1-.29-.13-.56-.1-.82.03-.25.12-.5.26-.76.14-.25.39-.56.74-.91l2.29-2.29-.62-.62.24-.24c.09-.09.17-.13.27-.14.09,0,.19.04.3.13l1.63,1.44-2.82,2.82c-.15.15-.3.31-.45.5-.15.19-.25.37-.3.56-.07.2-.08.39-.03.57.05.18.14.33.27.46.2.2.45.29.76.29.31,0,.59-.07.85-.21.18-.08.36-.2.54-.36.18-.16.36-.33.54-.5l1.77-1.77-.62-.62.25-.25c.07-.07.15-.11.24-.13s.2.03.31.13l1.64,1.45-4.09,4.09.6.6s-.06.08-.09.12c-.04.04-.07.08-.09.1-.13.13-.25.17-.36.13-.11-.04-.21-.09-.28-.15l-1.22-1.04Z"/><path class="uuid-c8dcb474-df1a-45ce-ba2b-232fc2b4d22d" d="M393.31,252.14l-.55-.71.14-.14c.1-.1.21-.16.31-.17.1,0,.21.04.31.13l1.61,1.46-3.01,3.01c.34-.08.71-.07,1.11.03.39.11.74.31,1.03.6.32.32.54.66.65,1.02.11.36.14.71.09,1.06-.05.35-.17.69-.35,1s-.39.6-.64.86c-.49.49-1.05.85-1.67,1.07-.62.22-1.25.27-1.88.15-.63-.12-1.19-.43-1.7-.94-.15-.15-.3-.34-.45-.57-.15-.23-.28-.52-.41-.87l-.57-.13-.39-.52,6.35-6.35ZM388.79,259.07c.06.13.12.28.19.45.07.17.2.35.39.54.27.27.58.41.91.42s.69-.09,1.05-.29c.36-.2.71-.47,1.06-.82.37-.37.65-.73.84-1.09.19-.36.29-.69.29-.99,0-.3-.1-.56-.29-.75-.14-.14-.3-.24-.48-.28-.18-.05-.38-.05-.59-.02-.21.03-.44.11-.66.25-.22.14-.45.32-.67.54l-2.05,2.05Z"/><path class="uuid-c8dcb474-df1a-45ce-ba2b-232fc2b4d22d" d="M396.11,259.62l-.36-.6.43-.43,2.6,2.6-.26.26c-.17.17-.33.16-.51-.01l-.56-.56-1.14,2.63c-.07.17-.15.34-.24.53-.09.19-.19.38-.29.58-.1.19-.2.38-.31.56l4.02-2.04-.53-.92.41-.41,1.85,1.85-.26.26c-.07.07-.15.11-.24.12-.08,0-.17-.03-.26-.12l-.2-.2c-.5.24-1.06.51-1.68.81-.61.29-1.25.59-1.9.89-.65.3-1.29.58-1.91.85-.62.26-1.2.5-1.73.69-.53.2-.97.28-1.3.25s-.6-.16-.81-.37c-.15-.15-.25-.31-.29-.48-.04-.17-.03-.33.02-.49s.13-.3.25-.42c.13-.13.29-.23.47-.27.18-.05.31-.07.39-.06l.79,1.3,1.76-.69c-.13-.14-.22-.29-.28-.44-.06-.15-.08-.31-.06-.48.02-.17.08-.36.18-.58l1.93-4.58Z"/><path class="uuid-c8dcb474-df1a-45ce-ba2b-232fc2b4d22d" d="M140.87,275.9l-.49-.84.38-.38,2.36,2.36c.09.09.14.18.14.26s-.04.17-.14.26l-.2.2-.67-.67-5.35,5.35,2.02,1.8,1.82-.68c.25-.08.44-.06.57.08.11.11.16.25.15.41l-2.23,1.58-4.7-4.7.38-.38.83.48,5.13-5.13Z"/><path class="uuid-c8dcb474-df1a-45ce-ba2b-232fc2b4d22d" d="M143.69,290.18l.62-1.12c-.13.04-.31.07-.55.09-.24.02-.49,0-.77-.07-.26-.07-.49-.16-.68-.28-.19-.12-.36-.26-.51-.41-.25-.25-.43-.53-.52-.82-.1-.29-.13-.56-.1-.82s.12-.5.26-.76c.14-.25.39-.56.74-.91l2.29-2.29-.62-.62.24-.24c.09-.09.18-.13.27-.14s.19.04.29.13l1.63,1.44-2.82,2.82c-.15.15-.3.31-.45.5-.15.19-.25.37-.3.56-.07.2-.08.39-.03.57.05.18.14.33.27.46.2.2.45.29.76.29.31,0,.59-.07.85-.21.18-.08.36-.2.54-.36.18-.16.36-.33.54-.5l1.76-1.77-.62-.62.25-.25c.07-.07.15-.11.24-.13.09-.02.2.03.31.13l1.64,1.45-4.09,4.09.6.6s-.05.08-.09.12c-.04.04-.07.08-.09.1-.13.13-.25.17-.36.13-.12-.04-.21-.09-.28-.15l-1.22-1.04Z"/><path class="uuid-c8dcb474-df1a-45ce-ba2b-232fc2b4d22d" d="M151.74,291.93l.56-1.39s-.04-.09-.08-.15c-.04-.06-.09-.11-.13-.16-.15-.15-.36-.25-.62-.3-.26-.05-.56,0-.89.12-.33.13-.68.38-1.05.74-.37.37-.64.77-.79,1.18-.15.41-.2.81-.14,1.19.06.38.24.71.52,1,.13.13.29.25.49.36.2.11.47.22.83.33-.01.06-.02.12-.04.19-.01.07-.05.13-.1.18-.05.05-.12.09-.21.12-.09.03-.21.04-.36.02-.28-.01-.6-.09-.94-.23-.35-.14-.68-.38-1.02-.71-.39-.39-.65-.84-.78-1.34-.13-.51-.12-1.03.03-1.57.15-.54.46-1.04.92-1.5.34-.34.72-.61,1.14-.81.42-.2.85-.31,1.29-.34.45-.03.88.03,1.3.17.42.15.8.4,1.15.74.28.28.49.57.62.87s.2.59.18.87c-.02.28-.12.51-.31.7s-.39.28-.63.28c-.24,0-.47-.12-.71-.35l-.23-.23Z"/><path class="uuid-c8dcb474-df1a-45ce-ba2b-232fc2b4d22d" d="M150.06,296.45l.38-.38.87.52,3.47-3.47-.68-.69.25-.25c.08-.08.16-.12.25-.12s.17.04.26.11l1.72,1.54-4.15,4.15.67.67-.22.22c-.08.08-.16.12-.24.13-.08,0-.18-.04-.28-.14l-2.29-2.29ZM158.06,292.21c-.18.18-.4.26-.67.26s-.5-.11-.71-.31c-.19-.19-.29-.42-.29-.68,0-.26.08-.48.26-.65s.4-.26.68-.25c.27,0,.51.11.7.3.19.19.29.42.29.68,0,.26-.08.48-.26.65Z"/><path class="uuid-c8dcb474-df1a-45ce-ba2b-232fc2b4d22d" d="M156.13,302.51l.38-.38.79.44,2.2-2.2c.12-.12.24-.26.38-.42.14-.16.25-.32.31-.46.11-.22.16-.45.15-.67,0-.23-.1-.43-.27-.6-.13-.13-.29-.22-.48-.26-.2-.05-.41-.05-.64-.02-.3.05-.58.18-.83.37-.25.19-.51.42-.78.69l-1.88,1.88.55.56-.22.22c-.08.08-.16.12-.24.13-.08,0-.18-.04-.28-.14l-2.13-2.13.38-.38.81.46,3.47-3.47-.63-.63.25-.25c.09-.09.17-.13.27-.13s.19.05.3.14l1.41,1.23-.64.92c.42-.11.84-.11,1.27,0s.8.33,1.1.64c.25.25.44.53.57.84s.16.62.11.95c-.04.26-.14.52-.28.76-.15.25-.37.52-.68.83l-2.42,2.42.58.58-.22.22c-.08.08-.16.12-.24.13-.08,0-.17-.04-.27-.13l-2.14-2.14Z"/><path class="uuid-c8dcb474-df1a-45ce-ba2b-232fc2b4d22d" d="M166.05,299.73l-.55-.71.14-.14c.11-.1.21-.16.31-.17.1,0,.21.04.31.13l1.61,1.46-3.5,3.5c-.21.21-.43.42-.63.62-.21.2-.41.39-.61.59l3.27-.24-.57-.91.39-.39,2.33,2.33-.24.24c-.07.07-.15.12-.24.13-.09.02-.18-.02-.27-.12l-.4-.4-2.37-.02-.7,3.92.55.55-.21.21c-.12.12-.24.17-.34.13-.1-.03-.19-.08-.27-.14l-1.4-1.08.76-3.61h-.1c-.18,0-.34.01-.49.04-.15.03-.3.09-.44.18-.14.1-.31.24-.5.43l-.52.52.57.57-.22.22c-.08.08-.16.12-.24.13-.08,0-.17-.04-.27-.13l-2.16-2.16.38-.38.81.46,5.8-5.8Z"/><path class="uuid-c8dcb474-df1a-45ce-ba2b-232fc2b4d22d" d="M167.54,314.03l.61-1.17c-.49.16-.95.19-1.38.08-.43-.1-.77-.29-1.04-.55-.27-.27-.43-.54-.5-.83-.07-.29-.06-.57.03-.84.09-.27.24-.51.45-.72.2-.2.42-.35.64-.44.23-.09.41-.16.54-.2l3,1.57.72-.72c.26-.26.38-.52.38-.79,0-.27-.12-.52-.34-.74-.07-.07-.16-.15-.26-.23s-.19-.14-.27-.2l-1.12.96-.35-.35c-.24-.24-.37-.46-.38-.65,0-.2.05-.35.17-.48.16-.17.38-.25.65-.25.27,0,.54.04.81.11.38.11.74.27,1.06.47.33.2.6.41.81.63.23.23.4.44.51.65s.17.4.19.6c.03.26-.02.52-.14.77s-.33.52-.62.8l-2.73,2.73.62.62s-.06.08-.09.12c-.04.04-.07.08-.1.11-.12.12-.23.15-.35.11-.11-.04-.21-.09-.29-.16l-1.23-1.03ZM169.45,311.38l-.89-.52c-.34-.21-.64-.28-.9-.23-.26.05-.48.17-.66.34-.17.17-.26.36-.28.6-.02.23.06.44.24.62.14.14.29.22.46.25s.33.02.5-.02c.17-.04.31-.08.42-.14.15-.07.3-.16.45-.29.15-.13.26-.23.34-.31l.3-.3Z"/></g></svg>