<?xml version="1.0" encoding="UTF-8"?><svg id="uuid-a2dc8b9e-452b-4987-bf57-4662c7073e50" xmlns="http://www.w3.org/2000/svg" viewBox="0 0 595.28 368.5"><defs><style>.uuid-a0cb922f-e43a-427d-a5dd-d68ceee8a270{fill:#c1b6aa;}.uuid-27dacf18-2fde-4615-88ff-03f57baa6743{fill:#fff;}</style></defs><g id="uuid-cbdeec93-29fd-485f-87b4-f4c5fe6c1ccc"><path class="uuid-a0cb922f-e43a-427d-a5dd-d68ceee8a270" d="M595.28,0H0v368.5h595.28V0ZM380.42,86.05c0-20.57,16.67-37.24,37.24-37.24s37.24,16.67,37.24,37.24-16.67,37.24-37.24,37.24-37.24-16.67-37.24-37.24ZM474.18,94.44c0-20.57,16.67-37.24,37.24-37.24s37.24,16.67,37.24,37.24-16.67,37.24-37.24,37.24-37.24-16.67-37.24-37.24Z"/><path class="uuid-27dacf18-2fde-4615-88ff-03f57baa6743" d="M337.81,159.76l-.94-.25v-.53h2.97l1.92,4.89c.1.24.19.49.28.74.09.25.18.5.27.74l2.58-6.37h2.4c.12,0,.21.03.26.09.05.06.08.15.08.26v.32h-.8v7.46h.98v.31c0,.11-.03.2-.08.27-.06.06-.15.1-.27.1h-3.32v-.57l.99-.25v-5.13c0-.2,0-.41,0-.62s.01-.41.02-.61l-3.01,7.16c-.23,0-.4-.04-.53-.11-.13-.07-.23-.19-.31-.35s-.17-.37-.26-.62l-1.78-4.34c-.09-.21-.18-.46-.28-.74-.1-.29-.2-.58-.29-.88v6.38h.96v.34c0,.11-.03.2-.08.25-.06.06-.15.08-.27.08h-2.53v-.53l.94-.25.1-1.08v-6.17Z"/><path class="uuid-27dacf18-2fde-4615-88ff-03f57baa6743" d="M352.85,167.88l-.39-1.26c-.24.46-.54.8-.92,1.03s-.75.34-1.13.34-.69-.08-.94-.23-.44-.36-.57-.62c-.13-.25-.19-.53-.19-.83s.05-.54.14-.77.17-.4.24-.52l3.23-1.01v-1.01c0-.36-.1-.64-.29-.83-.2-.19-.45-.28-.77-.28-.1,0-.22,0-.35.03s-.24.03-.33.05l-.12,1.47h-.5c-.34,0-.58-.06-.73-.19-.14-.13-.22-.28-.22-.46,0-.23.1-.45.29-.64.19-.19.41-.35.65-.49.35-.19.71-.33,1.09-.42.38-.09.72-.13,1.02-.13.32,0,.6.03.82.1.22.07.41.16.56.29.21.16.36.38.44.64s.13.6.13,1.01v3.86h.88s.02.09.02.15c0,.06,0,.11,0,.15,0,.17-.05.27-.16.33-.11.05-.22.08-.32.09l-1.6.14ZM352.33,164.65l-1,.26c-.38.1-.65.25-.8.47-.15.22-.22.46-.22.71,0,.23.08.44.23.62.15.18.36.27.61.27.2,0,.37-.05.5-.15s.25-.22.34-.36c.09-.14.16-.27.2-.4.06-.16.1-.33.11-.53.01-.2.02-.35.02-.46v-.43Z"/><path class="uuid-27dacf18-2fde-4615-88ff-03f57baa6743" d="M360.53,161.84c.24.2.43.44.54.71.12.27.18.54.18.81,0,.44-.12.84-.35,1.19-.23.35-.56.63-.99.83-.43.2-.95.31-1.56.31-.08,0-.17,0-.27,0-.1,0-.19-.01-.27-.02-.14.09-.26.22-.35.38-.1.16-.15.34-.16.53.14,0,.38.02.73.04.34.02.81.03,1.38.03s1.04.08,1.38.23c.34.16.58.36.72.61.14.25.22.53.22.83,0,.41-.14.8-.43,1.19-.29.39-.7.7-1.25.95s-1.2.37-1.96.37c-.86,0-1.53-.15-2.01-.46-.48-.31-.71-.71-.71-1.2,0-.35.12-.64.36-.87.24-.23.5-.4.79-.49-.06-.05-.14-.14-.22-.25-.09-.12-.13-.28-.13-.49s.07-.46.21-.73c.14-.27.34-.57.6-.88-.41-.17-.74-.43-.98-.77s-.37-.74-.37-1.2c0-.43.12-.83.36-1.19.24-.36.58-.65,1.01-.86.44-.21.95-.32,1.54-.32.21,0,.43.03.66.08.23.05.44.13.63.22,0-.04,0-.07,0-.1,0-.03,0-.05,0-.07,0-.33.09-.61.26-.85.17-.24.43-.36.76-.36.26,0,.47.09.63.27.16.18.27.4.33.66l-1.28.87ZM360.45,168.98c0-.17-.05-.32-.15-.46-.1-.14-.3-.26-.59-.35-.29-.09-.72-.14-1.29-.14h-.43c-.21,0-.41.03-.59.1-.18.07-.33.17-.44.3-.11.13-.17.31-.17.54,0,.18.07.36.2.55s.33.33.6.46c.27.12.62.18,1.03.18.56,0,1-.11,1.33-.34s.5-.5.5-.83ZM358.53,165.07c.34,0,.6-.12.78-.38.18-.25.27-.61.27-1.08,0-.34-.05-.65-.14-.92-.09-.28-.23-.5-.41-.67-.18-.17-.42-.25-.71-.25-.24,0-.43.06-.58.19s-.26.3-.33.51-.1.47-.1.75c0,.38.05.71.16.99.11.28.26.49.44.64s.39.22.61.22Z"/><path class="uuid-27dacf18-2fde-4615-88ff-03f57baa6743" d="M366.92,158.81l-.88-.12v-.21c0-.14.03-.25.1-.32.07-.08.17-.12.31-.13l2.17-.1v9.09h.88c0,.05.02.11.02.17s0,.1,0,.13c0,.14-.04.24-.13.3-.09.06-.21.1-.35.12l-1.6.14-.31-1.21c-.2.39-.5.71-.88.96s-.82.37-1.29.37-.85-.09-1.18-.26c-.33-.17-.6-.4-.81-.69s-.36-.6-.46-.96c-.1-.35-.15-.7-.15-1.06,0-.71.14-1.36.43-1.95.28-.59.69-1.06,1.22-1.42s1.15-.54,1.87-.54c.14,0,.3.02.48.05s.37.08.58.16v-2.51ZM366.92,162.22c-.14-.06-.3-.12-.48-.19-.18-.07-.39-.1-.63-.1-.38,0-.69.12-.94.35-.25.23-.43.55-.54.94-.11.39-.17.84-.17,1.33,0,.52.06.97.18,1.37.12.39.28.69.5.91.21.22.46.32.75.32.21,0,.39-.05.55-.15.16-.1.3-.23.42-.4.12-.18.21-.4.27-.66s.09-.54.09-.86v-2.87Z"/><path class="uuid-27dacf18-2fde-4615-88ff-03f57baa6743" d="M374.39,167.88l-.39-1.26c-.24.46-.54.8-.92,1.03s-.75.34-1.13.34-.69-.08-.94-.23-.44-.36-.57-.62c-.13-.25-.19-.53-.19-.83s.05-.54.14-.77.17-.4.24-.52l3.23-1.01v-1.01c0-.36-.1-.64-.29-.83-.2-.19-.45-.28-.77-.28-.1,0-.22,0-.35.03s-.24.03-.33.05l-.12,1.47h-.5c-.34,0-.58-.06-.73-.19-.14-.13-.22-.28-.22-.46,0-.23.1-.45.29-.64.19-.19.41-.35.65-.49.35-.19.71-.33,1.09-.42.38-.09.72-.13,1.02-.13.32,0,.6.03.82.1.22.07.41.16.56.29.21.16.36.38.44.64s.13.6.13,1.01v3.86h.88s.02.09.02.15c0,.06,0,.11,0,.15,0,.17-.05.27-.16.33-.11.05-.22.08-.32.09l-1.6.14ZM373.87,164.65l-1,.26c-.38.1-.65.25-.8.47-.15.22-.22.46-.22.71,0,.23.08.44.23.62.15.18.36.27.61.27.2,0,.37-.05.5-.15s.25-.22.34-.36c.09-.14.16-.27.2-.4.06-.16.1-.33.11-.53.01-.2.02-.35.02-.46v-.43Z"/><path class="uuid-27dacf18-2fde-4615-88ff-03f57baa6743" d="M381.2,159.76l-.94-.25v-.53h2.97l1.92,4.89c.1.24.19.49.28.74.09.25.18.5.27.74l2.58-6.37h2.4c.12,0,.21.03.26.09.05.06.08.15.08.26v.32h-.8v7.46h.98v.31c0,.11-.03.2-.08.27-.06.06-.15.1-.27.1h-3.32v-.57l.99-.25v-5.13c0-.2,0-.41,0-.62s.01-.41.02-.61l-3.01,7.16c-.23,0-.4-.04-.53-.11-.13-.07-.23-.19-.31-.35s-.17-.37-.26-.62l-1.78-4.34c-.09-.21-.18-.46-.28-.74-.1-.29-.2-.58-.29-.88v6.38h.96v.34c0,.11-.03.2-.08.25-.06.06-.15.08-.27.08h-2.53v-.53l.94-.25.1-1.08v-6.17Z"/><path class="uuid-27dacf18-2fde-4615-88ff-03f57baa6743" d="M396.24,167.88l-.39-1.26c-.24.46-.54.8-.92,1.03s-.75.34-1.13.34-.69-.08-.94-.23-.44-.36-.57-.62c-.13-.25-.19-.53-.19-.83s.05-.54.14-.77.17-.4.24-.52l3.23-1.01v-1.01c0-.36-.1-.64-.29-.83-.2-.19-.45-.28-.77-.28-.1,0-.22,0-.35.03s-.24.03-.33.05l-.12,1.47h-.5c-.34,0-.58-.06-.73-.19-.14-.13-.22-.28-.22-.46,0-.23.1-.45.29-.64.19-.19.41-.35.65-.49.35-.19.71-.33,1.09-.42.38-.09.72-.13,1.02-.13.32,0,.6.03.82.1.22.07.41.16.56.29.21.16.36.38.44.64s.13.6.13,1.01v3.86h.88s.02.09.02.15c0,.06,0,.11,0,.15,0,.17-.05.27-.16.33-.11.05-.22.08-.32.09l-1.6.14ZM395.71,164.65l-1,.26c-.38.1-.65.25-.8.47-.15.22-.22.46-.22.71,0,.23.08.44.23.62.15.18.36.27.61.27.2,0,.37-.05.5-.15s.25-.22.34-.36c.09-.14.16-.27.2-.4.06-.16.1-.33.11-.53.01-.2.02-.35.02-.46v-.43Z"/><path class="uuid-27dacf18-2fde-4615-88ff-03f57baa6743" d="M399.02,167.8v-.53l.9-.25v-4.91h-.89v-.35c0-.12.03-.21.1-.28.07-.06.16-.1.29-.11l1.83-.13.2,1.31c.18-.43.44-.78.78-1.05s.68-.4,1.04-.4c.29,0,.52.06.71.18s.32.26.41.44c.09.18.13.35.13.51,0,.3-.1.54-.29.71s-.44.25-.73.25h-.29l-.6-1.1c-.16.09-.31.23-.46.44-.15.2-.26.42-.33.64-.04.13-.08.28-.11.44s-.05.35-.07.56c-.01.21-.02.47-.02.77v2.17h1.28v.3c0,.11-.03.21-.08.28-.06.07-.16.11-.29.11h-3.51Z"/><path class="uuid-27dacf18-2fde-4615-88ff-03f57baa6743" d="M405.67,158.81l-.89-.12v-.19c0-.15.04-.26.1-.34.07-.08.17-.12.31-.13l2.17-.1v4.95c0,.3,0,.6-.01.88s-.01.57-.01.84l2.15-2.48-1.05-.23v-.55h3.3v.34c0,.1-.03.19-.08.27-.05.07-.14.11-.27.11h-.56l-1.69,1.66,2.28,3.26h.79v.3c0,.17-.05.28-.14.33-.1.05-.19.08-.29.1l-1.75.22-2.02-3.09-.08.06c-.12.13-.23.26-.31.38-.09.13-.15.27-.18.44-.04.17-.05.39-.05.66v.73h.81v.31c0,.11-.03.2-.08.27-.05.06-.15.1-.29.1h-3.05v-.53l.9-.25v-8.2Z"/><path class="uuid-27dacf18-2fde-4615-88ff-03f57baa6743" d="M412.96,162.12l-.68-.16v-.61h3.65v.35c0,.13-.03.22-.09.28-.06.06-.15.08-.27.08h-.79l1.09,2.96c.1.28.2.56.27.85.08.29.16.55.24.79l1.41-4.46-1.01-.27v-.58h2.6v.34c0,.11-.02.2-.07.27s-.14.1-.28.1h-.33c-.08.21-.19.5-.32.89s-.29.81-.45,1.26c-.17.46-.33.9-.49,1.33s-.31.81-.43,1.14c-.13.32-.22.55-.28.67-.11.19-.25.33-.43.43-.17.1-.38.14-.63.14-.09,0-.18,0-.27-.01-.1,0-.2-.02-.3-.04l-2.13-5.76Z"/><path class="uuid-27dacf18-2fde-4615-88ff-03f57baa6743" d="M423.88,167.88l-.39-1.26c-.24.46-.54.8-.92,1.03s-.75.34-1.13.34-.69-.08-.94-.23-.44-.36-.57-.62c-.13-.25-.19-.53-.19-.83s.05-.54.14-.77.17-.4.24-.52l3.23-1.01v-1.01c0-.36-.1-.64-.29-.83-.2-.19-.45-.28-.77-.28-.1,0-.22,0-.35.03s-.24.03-.33.05l-.12,1.47h-.5c-.34,0-.58-.06-.73-.19-.14-.13-.22-.28-.22-.46,0-.23.1-.45.29-.64.19-.19.41-.35.65-.49.35-.19.71-.33,1.09-.42.38-.09.72-.13,1.02-.13.32,0,.6.03.82.1.22.07.41.16.56.29.21.16.36.38.44.64s.13.6.13,1.01v3.86h.88s.02.09.02.15c0,.06,0,.11,0,.15,0,.17-.05.27-.16.33-.11.05-.22.08-.32.09l-1.6.14ZM423.35,164.65l-1,.26c-.38.1-.65.25-.8.47-.15.22-.22.46-.22.71,0,.23.08.44.23.62.15.18.36.27.61.27.2,0,.37-.05.5-.15s.25-.22.34-.36c.09-.14.16-.27.2-.4.06-.16.1-.33.11-.53.01-.2.02-.35.02-.46v-.43Z"/><path class="uuid-27dacf18-2fde-4615-88ff-03f57baa6743" d="M426.67,167.8v-.53l.9-.25v-4.91h-.89v-.35c0-.12.03-.21.1-.28.07-.06.16-.1.29-.11l1.83-.13.2,1.31c.18-.43.44-.78.78-1.05s.68-.4,1.04-.4c.29,0,.52.06.71.18s.32.26.41.44c.09.18.13.35.13.51,0,.3-.1.54-.29.71s-.44.25-.73.25h-.29l-.6-1.1c-.16.09-.31.23-.46.44-.15.2-.26.42-.33.64-.04.13-.08.28-.11.44s-.05.35-.07.56c-.01.21-.02.47-.02.77v2.17h1.28v.3c0,.11-.03.21-.08.28-.06.07-.16.11-.29.11h-3.51Z"/><path class="uuid-27dacf18-2fde-4615-88ff-03f57baa6743" d="M433.55,162.1h-.88v-.69l.93-.25.6-1.59c.06,0,.13-.02.2-.03s.14-.01.2-.01c.2,0,.35.05.45.16.1.1.14.26.14.47v1.18h1.96v.3c0,.17-.03.29-.1.36-.07.07-.17.1-.32.1h-1.48v3.71c0,.31.04.55.12.71.08.17.19.28.32.33.13.06.27.08.41.08.18,0,.36-.03.54-.09.17-.06.36-.13.55-.21.1.1.14.2.14.29,0,.17-.13.34-.39.52-.19.14-.43.26-.73.38-.29.11-.6.17-.91.17-.16,0-.33-.02-.52-.05-.19-.03-.37-.11-.54-.22-.17-.11-.32-.28-.44-.51-.09-.17-.15-.36-.2-.58-.04-.23-.07-.51-.07-.86v-3.67Z"/><path class="uuid-27dacf18-2fde-4615-88ff-03f57baa6743" d="M440.7,168.03c-.68,0-1.25-.15-1.71-.46-.46-.3-.81-.71-1.04-1.22-.23-.51-.35-1.08-.35-1.72,0-.68.14-1.28.43-1.81.28-.53.68-.95,1.18-1.26.51-.31,1.09-.47,1.74-.47.7,0,1.28.15,1.73.45.46.3.8.7,1.03,1.22.23.51.35,1.08.35,1.72,0,.68-.14,1.3-.43,1.83-.29.54-.69.96-1.19,1.26-.51.3-1.09.46-1.74.46ZM440.91,167.28c.34,0,.61-.11.82-.34s.35-.54.44-.94.13-.85.13-1.35c0-.47-.05-.91-.15-1.34-.1-.42-.26-.77-.49-1.05-.23-.27-.53-.41-.92-.41-.34,0-.61.11-.81.34-.2.23-.34.53-.43.92-.09.39-.13.83-.13,1.33,0,.36.03.71.08,1.05.06.34.15.64.27.91.13.27.29.48.48.64.19.16.43.23.71.23Z"/><path class="uuid-27dacf18-2fde-4615-88ff-03f57baa6743" d="M445.05,162.12l-.68-.16v-.61h3.65v.35c0,.13-.03.22-.09.28-.06.06-.15.08-.27.08h-.79l1.09,2.96c.1.28.2.56.27.85.08.29.16.55.24.79l1.41-4.46-1.01-.27v-.58h2.6v.34c0,.11-.02.2-.07.27s-.14.1-.28.1h-.33c-.08.21-.19.5-.32.89s-.29.81-.45,1.26c-.17.46-.33.9-.49,1.33s-.31.81-.43,1.14c-.13.32-.22.55-.28.67-.11.19-.25.33-.43.43-.17.1-.38.14-.63.14-.09,0-.18,0-.27-.01-.1,0-.2-.02-.3-.04l-2.13-5.76Z"/><path class="uuid-27dacf18-2fde-4615-88ff-03f57baa6743" d="M455.97,167.88l-.39-1.26c-.24.46-.54.8-.92,1.03s-.75.34-1.13.34-.69-.08-.94-.23-.44-.36-.57-.62c-.13-.25-.19-.53-.19-.83s.05-.54.14-.77.17-.4.24-.52l3.23-1.01v-1.01c0-.36-.1-.64-.29-.83-.2-.19-.45-.28-.77-.28-.1,0-.22,0-.35.03s-.24.03-.33.05l-.12,1.47h-.5c-.34,0-.58-.06-.73-.19-.14-.13-.22-.28-.22-.46,0-.23.1-.45.29-.64.19-.19.41-.35.65-.49.35-.19.71-.33,1.09-.42.38-.09.72-.13,1.02-.13.32,0,.6.03.82.1.22.07.41.16.56.29.21.16.36.38.44.64s.13.6.13,1.01v3.86h.88s.02.09.02.15c0,.06,0,.11,0,.15,0,.17-.05.27-.16.33-.11.05-.22.08-.32.09l-1.6.14ZM455.45,164.65l-1,.26c-.38.1-.65.25-.8.47-.15.22-.22.46-.22.71,0,.23.08.44.23.62.15.18.36.27.61.27.2,0,.37-.05.5-.15s.25-.22.34-.36c.09-.14.16-.27.2-.4.06-.16.1-.33.11-.53.01-.2.02-.35.02-.46v-.43ZM454.02,160.61l-.46-.34,1.01-1.96c.13-.26.28-.47.45-.64.17-.17.38-.25.62-.25.17,0,.31.04.44.11s.25.18.37.31l.21.22-2.64,2.55Z"/><path class="uuid-27dacf18-2fde-4615-88ff-03f57baa6743" d="M469.1,167.8l-.68-.61c-.39.25-.85.45-1.37.6-.52.15-1.04.22-1.56.22-.65,0-1.19-.08-1.63-.23s-.8-.36-1.07-.61-.47-.54-.6-.84c-.12-.3-.18-.6-.18-.9,0-.55.16-1.04.48-1.48.32-.44.76-.82,1.33-1.13-.21-.27-.39-.55-.54-.84-.15-.29-.22-.6-.22-.94,0-.42.12-.79.36-1.12.24-.33.57-.6.99-.8.42-.2.89-.3,1.43-.3.47,0,.87.07,1.2.2.33.13.58.31.75.53.17.22.26.46.26.71,0,.28-.1.49-.3.63-.2.14-.44.21-.71.21h-.44l-.37-1.48c-.1-.07-.22-.12-.34-.14-.12-.03-.22-.04-.29-.04-.36,0-.63.12-.81.35-.18.23-.27.49-.27.78,0,.3.09.6.27.88s.42.56.71.84l3.63,3.34c.13-.21.23-.43.31-.66.07-.23.11-.47.11-.71,0-.2-.03-.39-.08-.57-.05-.18-.11-.32-.17-.4h-1.26c-.06-.11-.11-.22-.14-.34-.04-.11-.05-.23-.05-.34,0-.28.09-.48.27-.62.18-.13.38-.2.59-.2.36,0,.65.12.88.35.23.23.41.52.52.87s.18.68.18,1.01c0,.35-.05.7-.16,1.05-.1.36-.27.7-.51,1.03l1.15,1.05h.52v.29c0,.24-.11.36-.34.36h-1.85ZM464.4,163.47c-.25.23-.42.47-.51.74s-.13.5-.13.7c0,.44.09.84.28,1.19.19.35.46.63.82.83.36.2.79.3,1.28.3.29,0,.59-.04.9-.14.31-.09.6-.22.87-.38l-3.51-3.25Z"/><path class="uuid-27dacf18-2fde-4615-88ff-03f57baa6743" d="M478.05,159.76l-1.23-.25v-.53h3.53c.14,0,.24.03.29.09.06.06.09.16.09.29v.3h-.89v4.67c0,.52-.03.97-.08,1.34-.06.37-.15.69-.29.94s-.32.49-.54.7c-.36.29-.73.48-1.11.57-.38.08-.73.12-1.04.12-.55,0-1.01-.08-1.38-.23-.37-.15-.65-.35-.82-.6-.18-.25-.27-.51-.27-.79,0-.37.11-.64.32-.81s.44-.25.67-.25c.13,0,.25.02.37.05.11.04.22.07.33.12l.09,1.74c.07.04.17.07.31.1s.27.04.41.04c.34,0,.6-.09.78-.28.18-.19.3-.43.37-.72.07-.29.1-.61.1-.95v-5.66Z"/><path class="uuid-27dacf18-2fde-4615-88ff-03f57baa6743" d="M485.65,167.88l-.39-1.26c-.24.46-.54.8-.92,1.03s-.75.34-1.13.34-.69-.08-.94-.23-.44-.36-.57-.62c-.13-.25-.19-.53-.19-.83s.05-.54.14-.77.17-.4.24-.52l3.23-1.01v-1.01c0-.36-.1-.64-.29-.83-.2-.19-.45-.28-.77-.28-.1,0-.22,0-.35.03s-.24.03-.33.05l-.12,1.47h-.5c-.34,0-.58-.06-.73-.19-.14-.13-.22-.28-.22-.46,0-.23.1-.45.29-.64.19-.19.41-.35.65-.49.35-.19.71-.33,1.09-.42.38-.09.72-.13,1.02-.13.32,0,.6.03.82.1.22.07.41.16.56.29.21.16.36.38.44.64s.13.6.13,1.01v3.86h.88s.02.09.02.15c0,.06,0,.11,0,.15,0,.17-.05.27-.16.33-.11.05-.22.08-.32.09l-1.6.14ZM485.13,164.65l-1,.26c-.38.1-.65.25-.8.47-.15.22-.22.46-.22.71,0,.23.08.44.23.62.15.18.36.27.61.27.2,0,.37-.05.5-.15s.25-.22.34-.36c.09-.14.16-.27.2-.4.06-.16.1-.33.11-.53.01-.2.02-.35.02-.46v-.43Z"/><path class="uuid-27dacf18-2fde-4615-88ff-03f57baa6743" d="M489.29,158.81l-.89-.12v-.19c0-.15.04-.26.1-.34.07-.08.17-.12.31-.13l2.17-.1v4.95c0,.3,0,.6-.01.88s-.01.57-.01.84l2.15-2.48-1.05-.23v-.55h3.3v.34c0,.1-.03.19-.08.27-.05.07-.14.11-.27.11h-.56l-1.69,1.66,2.28,3.26h.79v.3c0,.17-.05.28-.14.33-.1.05-.19.08-.29.1l-1.75.22-2.02-3.09-.08.06c-.12.13-.23.26-.31.38-.09.13-.15.27-.18.44-.04.17-.05.39-.05.66v.73h.81v.31c0,.11-.03.2-.08.27-.05.06-.15.1-.29.1h-3.05v-.53l.9-.25v-8.2Z"/><path class="uuid-27dacf18-2fde-4615-88ff-03f57baa6743" d="M501.73,167.88l-.35-1.24c-.06.12-.17.27-.33.46s-.35.35-.59.49c-.24.14-.46.23-.68.28-.22.05-.44.07-.65.07-.36,0-.67-.07-.95-.21s-.49-.31-.65-.51c-.16-.2-.27-.44-.35-.72-.08-.28-.12-.67-.12-1.16v-3.24h-.88v-.34c0-.12.03-.22.09-.29s.16-.11.3-.12l2.17-.13v3.99c0,.21.01.43.04.67.03.24.09.44.18.6.1.19.22.33.39.42.16.09.33.14.52.14.28,0,.53-.11.74-.33.21-.22.36-.47.45-.75.07-.18.11-.39.13-.64.02-.24.03-.49.03-.74v-2.5h-.88v-.35c0-.1.03-.18.08-.26.05-.08.16-.12.31-.13l2.19-.13v5.79h.85s.02.09.02.15c0,.06,0,.1,0,.14,0,.18-.05.3-.16.35-.11.05-.21.08-.31.09l-1.6.13Z"/><path class="uuid-27dacf18-2fde-4615-88ff-03f57baa6743" d="M505.26,158.81l-.89-.12v-.19c0-.15.03-.26.1-.34.07-.08.17-.12.31-.13l2.17-.1v4.25c.18-.3.45-.56.81-.76.35-.2.74-.31,1.16-.31.45,0,.85.09,1.18.26.33.17.6.4.81.69.21.29.36.6.46.96.1.35.15.7.15,1.06,0,.69-.14,1.34-.43,1.94s-.69,1.08-1.22,1.44-1.15.54-1.87.54c-.21,0-.45-.03-.72-.09s-.57-.17-.9-.33l-.5.31-.64-.09v-8.98ZM506.96,166.91c.13.05.28.11.45.18.17.07.39.1.66.1.38,0,.7-.12.94-.35.24-.23.42-.55.54-.94.11-.39.17-.84.17-1.33,0-.52-.06-.97-.18-1.36-.12-.39-.28-.69-.5-.91-.21-.22-.46-.33-.74-.33-.2,0-.38.05-.54.14-.16.1-.3.23-.43.4-.13.17-.23.39-.29.64s-.09.54-.09.85v2.9Z"/><path class="uuid-27dacf18-2fde-4615-88ff-03f57baa6743" d="M515.46,167.8v-.53l.93-.25v-7.25l-.93-.25v-.53h3.69c.38,0,.77.03,1.16.08s.76.15,1.09.29.61.34.81.6c.21.26.31.6.31,1.03,0,.47-.18.88-.54,1.24-.36.36-.82.62-1.37.77.46.07.88.2,1.26.39.38.19.68.44.91.76.23.32.34.7.34,1.15,0,.48-.14.9-.43,1.28-.29.38-.72.67-1.31.89s-1.32.33-2.2.33h-3.73ZM519.3,162.88c.3,0,.53-.05.71-.16.17-.11.31-.25.4-.42.09-.17.15-.35.18-.54.03-.19.05-.37.05-.53,0-.32-.04-.61-.12-.86-.08-.25-.23-.45-.44-.59-.21-.14-.49-.21-.85-.21-.15,0-.32,0-.53.01s-.37.02-.49.03v3.28h1.1ZM518.21,163.48v3.69c.17,0,.38.02.61.03.24.01.46.02.68.02.58,0,1-.17,1.26-.51s.39-.77.39-1.3c0-.71-.16-1.21-.48-1.5-.32-.29-.79-.44-1.39-.44h-1.07Z"/><path class="uuid-27dacf18-2fde-4615-88ff-03f57baa6743" d="M523.89,167.8v-.53l.9-.25v-4.91h-.89v-.35c0-.12.03-.21.1-.28.07-.06.16-.1.29-.11l1.83-.13.2,1.31c.18-.43.44-.78.78-1.05s.68-.4,1.04-.4c.29,0,.52.06.71.18s.32.26.41.44c.09.18.13.35.13.51,0,.3-.1.54-.29.71s-.44.25-.73.25h-.29l-.6-1.1c-.16.09-.31.23-.46.44-.15.2-.26.42-.33.64-.04.13-.08.28-.11.44s-.05.35-.07.56c-.01.21-.02.47-.02.77v2.17h1.28v.3c0,.11-.03.21-.08.28-.06.07-.16.11-.29.11h-3.51ZM525.89,160.34l-.99-1.57c-.1-.14-.17-.26-.23-.36-.06-.1-.09-.2-.09-.29,0-.12.05-.21.14-.28.1-.06.21-.11.34-.14l1.58,1.48,1.57-1.48c.14.03.26.07.35.14.09.07.14.16.14.29,0,.09-.03.18-.08.29-.06.1-.13.23-.23.36l-1.02,1.56h-1.48Z"/><path class="uuid-27dacf18-2fde-4615-88ff-03f57baa6743" d="M531.52,164.31c.02.55.13,1.01.33,1.39.2.38.47.67.8.87.34.2.71.3,1.12.3.18,0,.39-.03.63-.08.24-.05.53-.16.89-.33.03.04.07.09.09.15s.04.11.04.16c0,.09-.02.16-.07.23-.04.07-.1.13-.18.2-.05.04-.17.13-.36.26-.19.13-.44.25-.76.36s-.7.16-1.15.16c-.61,0-1.15-.14-1.6-.42-.46-.28-.81-.66-1.07-1.16-.25-.49-.38-1.06-.38-1.69,0-.48.08-.93.24-1.36.16-.43.38-.81.68-1.14.3-.33.65-.6,1.05-.79.41-.2.86-.29,1.37-.29.6,0,1.1.14,1.49.42.39.28.64.65.75,1.13.05.16.09.33.1.51.02.19.03.41.03.68v.43h-4.04ZM533.9,163.69c0-.23-.02-.46-.06-.67-.04-.21-.11-.4-.2-.55-.1-.17-.22-.29-.36-.38s-.31-.13-.5-.13c-.29,0-.52.09-.7.27-.18.18-.31.4-.4.66-.09.26-.14.53-.14.8h2.37Z"/><path class="uuid-27dacf18-2fde-4615-88ff-03f57baa6743" d="M539.9,161.97h-2.29l-.29,1.38h-.67v-2.07c.19,0,.37,0,.54.01s.39.02.65.03.61.02,1.05.02h2.81c.02.05.03.1.03.16,0,.05,0,.1,0,.16,0,.14-.03.28-.08.42-.05.14-.14.31-.27.51-.18.29-.41.64-.67,1.03-.27.39-.54.79-.82,1.2-.28.41-.55.79-.79,1.14-.24.35-.52.74-.84,1.18h2.37l.33-1.17c.04-.12.09-.21.15-.25s.15-.07.24-.07c.04,0,.1,0,.16.03.06.02.12.04.17.05v2.09h-5.2c0-.05-.02-.12-.04-.19-.02-.07-.03-.15-.03-.23,0-.11.03-.25.08-.4s.14-.32.27-.51l3.13-4.5Z"/><path class="uuid-27dacf18-2fde-4615-88ff-03f57baa6743" d="M542.55,167.8v-.53l.98-.25v-4.91h-.97v-.35c0-.11.03-.2.09-.26.06-.06.15-.09.26-.1l2.3-.13v5.86h.94v.31c0,.11-.03.2-.08.27-.05.06-.15.1-.3.1h-3.23ZM545.21,159.14c0,.25-.1.47-.29.66-.19.19-.43.28-.72.28-.27,0-.5-.09-.69-.28s-.28-.4-.28-.64.1-.47.3-.66.44-.28.71-.28.5.09.69.28.28.4.28.64Z"/><path class="uuid-27dacf18-2fde-4615-88ff-03f57baa6743" d="M551.12,167.8v-.53l.86-.25v-3.11c0-.16,0-.35-.03-.57s-.05-.4-.1-.55c-.08-.23-.2-.43-.37-.58-.17-.16-.37-.23-.62-.23-.18,0-.36.05-.53.16-.17.1-.33.25-.46.44-.17.25-.28.53-.33.85-.04.31-.07.66-.07,1.04v2.67h.79v.31c0,.11-.03.2-.08.27-.05.06-.15.1-.3.1h-3.01v-.53l.9-.25v-4.91h-.89v-.35c0-.12.03-.21.1-.28.07-.06.17-.1.31-.11l1.87-.13.2,1.11c.22-.37.52-.67.9-.89s.79-.33,1.23-.33c.36,0,.69.06.99.19.31.13.55.32.75.59.16.22.27.46.34.74s.1.63.1,1.07v3.42h.82v.31c0,.11-.03.2-.08.27-.05.06-.15.1-.29.1h-3.02Z"/><path class="uuid-27dacf18-2fde-4615-88ff-03f57baa6743" d="M559.48,167.88l-.39-1.26c-.24.46-.54.8-.92,1.03-.38.23-.75.34-1.13.34s-.69-.08-.94-.23-.44-.36-.57-.62c-.13-.25-.19-.53-.19-.83s.05-.54.14-.77c.1-.23.17-.4.24-.52l3.23-1.01v-1.01c0-.36-.1-.64-.29-.83-.2-.19-.45-.28-.77-.28-.1,0-.22,0-.35.03-.13.02-.24.03-.33.05l-.12,1.47h-.5c-.34,0-.58-.06-.73-.19-.14-.13-.22-.28-.22-.46,0-.23.1-.45.29-.64.19-.19.41-.35.65-.49.35-.19.71-.33,1.09-.42.38-.09.71-.13,1.02-.13.32,0,.6.03.82.1.22.07.41.16.56.29.21.16.36.38.45.64s.13.6.13,1.01v3.86h.88s.02.09.02.15c0,.06,0,.11,0,.15,0,.17-.05.27-.16.33-.11.05-.22.08-.32.09l-1.6.14ZM558.96,164.65l-1,.26c-.38.1-.65.25-.8.47-.15.22-.22.46-.22.71,0,.23.08.44.23.62.15.18.36.27.61.27.2,0,.37-.05.5-.15.13-.1.25-.22.34-.36.09-.14.16-.27.2-.4.06-.16.1-.33.11-.53.01-.2.02-.35.02-.46v-.43Z"/><path class="uuid-27dacf18-2fde-4615-88ff-03f57baa6743" d="M449.56,238.85l.16.08c1.93-2.8,1.93-4.76,3.58-4.76.97,0,1.89.8,1.89,1.76,0,1.68-1.93,1.6-4.79,3.64l.08.16c2.25-.4,3.87-1.32,4.75-1.32,1.09,0,1.69.88,1.69,1.8s-.56,1.72-1.69,1.72c-.89,0-2.5-.88-4.75-1.32l-.08.2c2.82,1.96,4.87,1.88,4.87,3.56,0,.92-.85,1.84-1.81,1.84-1.69,0-1.69-1.92-3.7-4.76l-.16.08c.4,2.24,1.33,3.88,1.33,4.72,0,1.08-.89,1.68-1.81,1.68s-1.73-.56-1.73-1.68c0-.84.89-2.48,1.29-4.68l-.16-.08c-1.97,2.76-1.89,4.72-3.58,4.72-.93,0-1.89-.8-1.89-1.76,0-1.68,1.93-1.6,4.79-3.6l-.08-.2c-2.21.4-3.87,1.32-4.71,1.32-1.09,0-1.69-.88-1.69-1.8s.56-1.72,1.69-1.72c.85,0,2.5.92,4.71,1.32l.08-.2c-2.78-1.92-4.83-1.88-4.83-3.52,0-.96.85-1.84,1.81-1.84,1.69,0,1.65,1.88,3.66,4.72l.16-.08c-.4-2.24-1.29-3.84-1.29-4.72,0-1.08.89-1.68,1.81-1.68s1.73.56,1.73,1.68c0,.88-.93,2.48-1.33,4.72Z"/><path class="uuid-27dacf18-2fde-4615-88ff-03f57baa6743" d="M379.63,289v-.53l1.71-.23v-6.27l-1.6.23c-.04-.07-.07-.13-.1-.18-.03-.05-.05-.1-.05-.14,0-.05.01-.1.04-.14.03-.04.09-.09.18-.13l2.5-1.31h.69v8.03h1.64v.31c0,.11-.03.2-.08.27-.05.06-.15.1-.29.1h-4.66Z"/><path class="uuid-27dacf18-2fde-4615-88ff-03f57baa6743" d="M385.8,289v-.53l1.71-.23v-6.27l-1.6.23c-.04-.07-.07-.13-.1-.18-.03-.05-.05-.1-.05-.14,0-.05.01-.1.04-.14.03-.04.09-.09.18-.13l2.5-1.31h.69v8.03h1.64v.31c0,.11-.03.2-.08.27-.05.06-.15.1-.29.1h-4.66Z"/><path class="uuid-27dacf18-2fde-4615-88ff-03f57baa6743" d="M394.06,283.65c0,.27-.1.5-.3.69s-.44.29-.71.29-.52-.1-.71-.29c-.2-.19-.29-.42-.29-.69,0-.17.05-.34.14-.49.09-.15.21-.27.36-.36s.31-.14.5-.14.36.05.51.14.27.21.37.36c.1.15.14.31.14.49ZM394.06,287.95c0,.26-.1.49-.3.68-.2.2-.44.29-.71.29s-.52-.1-.71-.29c-.2-.19-.29-.42-.29-.68,0-.17.05-.33.14-.49.09-.15.21-.27.36-.36.15-.09.31-.14.5-.14s.36.04.51.14c.15.09.27.21.37.36.1.15.14.31.14.49Z"/><path class="uuid-27dacf18-2fde-4615-88ff-03f57baa6743" d="M398.82,289.2c-.59,0-1.1-.12-1.51-.37-.41-.25-.75-.58-1-.99s-.44-.87-.55-1.37-.17-.99-.17-1.48c0-.89.14-1.7.41-2.43.27-.73.68-1.31,1.24-1.74.55-.43,1.24-.64,2.06-.64.71,0,1.3.19,1.77.57s.84.89,1.08,1.54c.24.65.37,1.39.37,2.21,0,.65-.08,1.26-.24,1.83-.16.57-.39,1.07-.71,1.5-.31.43-.7.77-1.16,1.01-.46.25-.99.37-1.59.37ZM399.32,288.5c.47,0,.83-.26,1.07-.79.24-.53.36-1.33.36-2.42,0-.61-.04-1.18-.12-1.71s-.21-1-.37-1.41c-.17-.41-.37-.72-.61-.95-.24-.23-.53-.34-.86-.34-.29,0-.54.1-.75.31s-.38.56-.5,1.05c-.12.49-.18,1.16-.18,2s.08,1.52.24,2.16.38,1.15.67,1.53c.29.38.64.57,1.05.57Z"/><path class="uuid-27dacf18-2fde-4615-88ff-03f57baa6743" d="M406.98,289.2c-.59,0-1.1-.12-1.51-.37-.41-.25-.75-.58-1-.99s-.44-.87-.55-1.37-.17-.99-.17-1.48c0-.89.14-1.7.41-2.43.27-.73.68-1.31,1.24-1.74.55-.43,1.24-.64,2.06-.64.71,0,1.3.19,1.77.57s.84.89,1.08,1.54c.24.65.37,1.39.37,2.21,0,.65-.08,1.26-.24,1.83-.16.57-.39,1.07-.71,1.5-.31.43-.7.77-1.16,1.01-.46.25-.99.37-1.59.37ZM407.47,288.5c.47,0,.83-.26,1.07-.79.24-.53.36-1.33.36-2.42,0-.61-.04-1.18-.12-1.71s-.21-1-.37-1.41c-.17-.41-.37-.72-.61-.95-.24-.23-.53-.34-.86-.34-.29,0-.54.1-.75.31s-.38.56-.5,1.05c-.12.49-.18,1.16-.18,2s.08,1.52.24,2.16.38,1.15.67,1.53c.29.38.64.57,1.05.57Z"/><path class="uuid-27dacf18-2fde-4615-88ff-03f57baa6743" d="M414.95,285.78v-1.01h10.31v1.01h-10.31Z"/><path class="uuid-27dacf18-2fde-4615-88ff-03f57baa6743" d="M429.47,286.82h.67l.42,1.37c.14.09.32.16.53.23s.42.1.61.1c.32,0,.58-.07.78-.21.2-.14.29-.33.29-.57,0-.11-.04-.23-.12-.36-.08-.13-.22-.28-.43-.44s-.52-.35-.92-.55c-.35-.18-.66-.37-.92-.56-.27-.19-.47-.41-.62-.66-.15-.25-.22-.55-.22-.88,0-.42.12-.78.36-1.07.24-.29.55-.5.94-.64.38-.14.8-.21,1.24-.21.23,0,.46.02.71.06s.48.08.69.14c.21.05.36.09.46.13v1.69s-.1.04-.16.06c-.07.02-.12.03-.18.03-.1,0-.19-.02-.25-.07-.06-.05-.1-.12-.13-.21l-.22-.82c-.1-.06-.27-.12-.5-.19-.23-.07-.44-.1-.64-.1-.14,0-.27.02-.41.07-.13.04-.24.11-.32.21-.08.09-.12.23-.12.4,0,.19.06.36.19.51.13.15.3.29.53.43.23.13.49.28.79.43.36.19.67.38.93.57.26.19.46.41.61.65.14.24.22.53.22.87,0,.37-.11.71-.33,1.02s-.53.55-.94.73-.88.27-1.43.27c-.24,0-.5-.02-.78-.07s-.53-.1-.77-.17c-.24-.07-.42-.12-.55-.18v-1.99Z"/><path class="uuid-27dacf18-2fde-4615-88ff-03f57baa6743" d="M435.3,283.32l-.68-.16v-.61h3.65v.35c0,.13-.03.22-.09.28-.06.06-.15.08-.27.08h-.79l1.09,2.96c.1.28.2.56.27.85.08.29.16.55.24.79l1.41-4.46-1.01-.27v-.58h2.6v.34c0,.11-.02.2-.07.27s-.14.1-.28.1h-.33c-.08.21-.19.5-.32.89s-.29.81-.45,1.26c-.17.46-.33.9-.49,1.33s-.31.81-.43,1.14c-.13.32-.22.55-.28.67-.11.19-.25.33-.43.43-.17.1-.38.14-.63.14-.09,0-.18,0-.27-.01-.1,0-.2-.02-.3-.04l-2.13-5.76Z"/><path class="uuid-27dacf18-2fde-4615-88ff-03f57baa6743" d="M446.21,289.08l-.39-1.26c-.24.46-.54.8-.92,1.03s-.75.34-1.13.34-.69-.08-.94-.23-.44-.36-.57-.62c-.13-.25-.19-.53-.19-.83s.05-.54.14-.77.17-.4.24-.52l3.23-1.01v-1.01c0-.36-.1-.64-.29-.83-.2-.19-.45-.28-.77-.28-.1,0-.22,0-.35.03s-.24.03-.33.05l-.12,1.47h-.5c-.34,0-.58-.06-.73-.19-.14-.13-.22-.28-.22-.46,0-.23.1-.45.29-.64.19-.19.41-.35.65-.49.35-.19.71-.33,1.09-.42.38-.09.72-.13,1.02-.13.32,0,.6.03.82.1.22.07.41.16.56.29.21.16.36.38.44.64s.13.6.13,1.01v3.86h.88s.02.09.02.15c0,.06,0,.11,0,.15,0,.17-.05.27-.16.33-.11.05-.22.08-.32.09l-1.6.14ZM445.69,285.86l-1,.26c-.38.1-.65.25-.8.47-.15.22-.22.46-.22.71,0,.23.08.44.23.62.15.18.36.27.61.27.2,0,.37-.05.5-.15s.25-.22.34-.36c.09-.14.16-.27.2-.4.06-.16.1-.33.11-.53.01-.2.02-.35.02-.46v-.43Z"/><path class="uuid-27dacf18-2fde-4615-88ff-03f57baa6743" d="M449.67,283.31h-.88v-.69l.93-.25.6-1.59c.06,0,.13-.02.2-.03s.14-.01.2-.01c.2,0,.35.05.45.16.1.1.14.26.14.47v1.18h1.96v.3c0,.17-.03.29-.1.36-.07.07-.17.1-.32.1h-1.48v3.71c0,.31.04.55.12.71.08.17.19.28.32.33.13.06.27.08.41.08.18,0,.36-.03.54-.09.17-.06.36-.13.55-.21.1.1.14.2.14.29,0,.17-.13.34-.39.52-.19.14-.43.26-.73.38-.29.11-.6.17-.91.17-.16,0-.33-.02-.52-.05-.19-.03-.37-.11-.54-.22-.17-.11-.32-.28-.44-.51-.09-.17-.15-.36-.2-.58-.04-.23-.07-.51-.07-.86v-3.67Z"/><path class="uuid-27dacf18-2fde-4615-88ff-03f57baa6743" d="M455.38,285.52c.02.55.13,1.01.33,1.39.2.38.47.67.8.87.34.2.71.3,1.12.3.18,0,.39-.03.63-.08.24-.05.53-.16.89-.33.03.04.07.09.09.15s.04.11.04.16c0,.09-.02.16-.07.23-.04.07-.1.13-.18.2-.05.04-.17.13-.36.26-.19.13-.44.25-.76.36s-.7.16-1.15.16c-.61,0-1.15-.14-1.6-.42-.46-.28-.81-.66-1.07-1.16-.25-.49-.38-1.06-.38-1.69,0-.48.08-.93.24-1.36.16-.43.38-.81.68-1.14.3-.33.65-.6,1.05-.79.41-.2.86-.29,1.37-.29.6,0,1.1.14,1.49.42.39.28.64.65.75,1.13.05.16.09.33.1.51.02.19.03.41.03.68v.43h-4.04ZM457.76,284.9c0-.23-.02-.46-.06-.67-.04-.21-.11-.4-.2-.55-.1-.17-.22-.29-.36-.38s-.31-.13-.5-.13c-.29,0-.52.09-.7.27-.18.18-.31.4-.4.66-.09.26-.14.53-.14.8h2.37Z"/><path class="uuid-27dacf18-2fde-4615-88ff-03f57baa6743" d="M460.94,280.02l-.89-.12v-.19c0-.15.03-.26.1-.34.07-.08.17-.12.31-.13l2.17-.1v4.25c.18-.3.45-.56.81-.76.35-.2.74-.31,1.16-.31.45,0,.85.09,1.18.26.33.17.6.4.81.69.21.29.36.6.46.96.1.35.15.7.15,1.06,0,.69-.14,1.34-.43,1.94s-.69,1.08-1.22,1.44-1.15.54-1.87.54c-.21,0-.45-.03-.72-.09s-.57-.17-.9-.33l-.5.31-.64-.09v-8.98ZM462.64,288.12c.13.05.28.11.45.18.17.07.39.1.66.1.38,0,.7-.12.94-.35.24-.23.42-.55.54-.94.11-.39.17-.84.17-1.33,0-.52-.06-.97-.18-1.36-.12-.39-.28-.69-.5-.91-.21-.22-.46-.33-.74-.33-.2,0-.38.05-.54.14-.16.1-.3.23-.43.4-.13.17-.23.39-.29.64s-.09.54-.09.85v2.9Z"/><path class="uuid-27dacf18-2fde-4615-88ff-03f57baa6743" d="M472.32,289v-.53l.86-.25v-3.11c0-.16,0-.35-.03-.57s-.05-.4-.1-.55c-.08-.23-.2-.43-.37-.58-.17-.16-.37-.23-.62-.23-.18,0-.36.05-.53.16-.17.1-.33.25-.46.44-.17.25-.28.53-.33.85-.04.31-.07.66-.07,1.04v2.67h.79v.31c0,.11-.03.2-.08.27-.05.06-.15.1-.3.1h-3.01v-.53l.9-.25v-4.91h-.89v-.35c0-.12.03-.21.1-.28.07-.06.17-.1.31-.11l1.87-.13.2,1.11c.22-.37.52-.67.9-.89s.79-.33,1.23-.33c.36,0,.69.06.99.19.31.13.55.32.75.59.16.22.27.46.34.74s.1.63.1,1.07v3.42h.82v.31c0,.11-.03.2-.08.27-.05.06-.15.1-.29.1h-3.02Z"/><path class="uuid-27dacf18-2fde-4615-88ff-03f57baa6743" d="M476.45,289v-.53l.98-.25v-4.91h-.97v-.35c0-.11.03-.2.09-.26.06-.06.15-.09.26-.1l2.3-.13v5.86h.94v.31c0,.11-.03.2-.08.27-.05.06-.15.1-.3.1h-3.23ZM477.28,281.81l-.46-.34,1.01-1.96c.13-.26.28-.47.45-.64.17-.17.38-.25.62-.25.17,0,.31.04.45.11s.25.18.37.31l.21.22-2.64,2.55Z"/><path class="uuid-27dacf18-2fde-4615-88ff-03f57baa6743" d="M486.89,289.24c-.68,0-1.25-.15-1.71-.46-.46-.3-.81-.71-1.04-1.22-.23-.51-.35-1.08-.35-1.72,0-.68.14-1.28.43-1.81.28-.53.68-.95,1.18-1.26.51-.31,1.09-.47,1.74-.47.7,0,1.28.15,1.73.45.46.3.8.7,1.03,1.22.23.51.35,1.08.35,1.72,0,.68-.14,1.3-.43,1.83-.29.54-.69.96-1.19,1.26-.51.3-1.09.46-1.74.46ZM487.1,288.48c.34,0,.61-.11.82-.34s.35-.54.44-.94.13-.85.13-1.35c0-.47-.05-.91-.15-1.34-.1-.42-.26-.77-.49-1.05-.23-.27-.53-.41-.92-.41-.34,0-.61.11-.81.34-.2.23-.34.53-.43.92-.09.39-.13.83-.13,1.33,0,.36.03.71.08,1.05.06.34.15.64.27.91.13.27.29.48.48.64.19.16.43.23.71.23Z"/><path class="uuid-27dacf18-2fde-4615-88ff-03f57baa6743" d="M491.81,280.02l-.89-.12v-.19c0-.15.03-.26.1-.34.07-.08.17-.12.31-.13l2.17-.1v4.25c.18-.3.45-.56.81-.76.35-.2.74-.31,1.16-.31.45,0,.85.09,1.18.26.33.17.6.4.81.69.21.29.36.6.46.96.1.35.15.7.15,1.06,0,.69-.14,1.34-.43,1.94s-.69,1.08-1.22,1.44-1.15.54-1.87.54c-.21,0-.45-.03-.72-.09s-.57-.17-.9-.33l-.5.31-.64-.09v-8.98ZM493.51,288.12c.13.05.28.11.45.18.17.07.39.1.66.1.38,0,.7-.12.94-.35.24-.23.42-.55.54-.94.11-.39.17-.84.17-1.33,0-.52-.06-.97-.18-1.36-.12-.39-.28-.69-.5-.91-.21-.22-.46-.33-.74-.33-.2,0-.38.05-.54.14-.16.1-.3.23-.43.4-.13.17-.23.39-.29.64s-.09.54-.09.85v2.9Z"/><path class="uuid-27dacf18-2fde-4615-88ff-03f57baa6743" d="M498.96,289v-.53l.9-.25v-4.91h-.89v-.35c0-.12.03-.21.1-.28.07-.06.16-.1.29-.11l1.83-.13.2,1.31c.18-.43.44-.78.78-1.05s.68-.4,1.04-.4c.29,0,.52.06.71.18s.32.26.41.44c.09.18.13.35.13.51,0,.3-.1.54-.29.71s-.44.25-.73.25h-.29l-.6-1.1c-.16.09-.31.23-.46.44-.15.2-.26.42-.33.64-.04.13-.08.28-.11.44s-.05.35-.07.56c-.01.21-.02.47-.02.77v2.17h1.28v.3c0,.11-.03.21-.08.28-.06.07-.16.11-.29.11h-3.51ZM500.96,281.54l-.99-1.57c-.1-.14-.17-.26-.23-.36-.06-.1-.09-.2-.09-.29,0-.12.05-.21.14-.28.1-.06.21-.11.34-.14l1.58,1.48,1.57-1.48c.14.03.26.07.35.14.09.07.14.16.14.29,0,.09-.03.18-.08.29-.06.1-.13.23-.23.36l-1.02,1.56h-1.48Z"/><path class="uuid-27dacf18-2fde-4615-88ff-03f57baa6743" d="M509.05,289.08l-.39-1.26c-.24.46-.54.8-.92,1.03s-.75.34-1.13.34-.69-.08-.94-.23-.44-.36-.57-.62c-.13-.25-.19-.53-.19-.83s.05-.54.14-.77.17-.4.24-.52l3.23-1.01v-1.01c0-.36-.1-.64-.29-.83-.2-.19-.45-.28-.77-.28-.1,0-.22,0-.35.03s-.24.03-.33.05l-.12,1.47h-.5c-.34,0-.58-.06-.73-.19-.14-.13-.22-.28-.22-.46,0-.23.1-.45.29-.64.19-.19.41-.35.65-.49.35-.19.71-.33,1.09-.42.38-.09.72-.13,1.02-.13.32,0,.6.03.82.1.22.07.41.16.56.29.21.16.36.38.44.64s.13.6.13,1.01v3.86h.88s.02.09.02.15c0,.06,0,.11,0,.15,0,.17-.05.27-.16.33-.11.05-.22.08-.32.09l-1.6.14ZM508.53,285.86l-1,.26c-.38.1-.65.25-.8.47-.15.22-.22.46-.22.71,0,.23.08.44.23.62.15.18.36.27.61.27.2,0,.37-.05.5-.15s.25-.22.34-.36c.09-.14.16-.27.2-.4.06-.16.1-.33.11-.53.01-.2.02-.35.02-.46v-.43Z"/><path class="uuid-27dacf18-2fde-4615-88ff-03f57baa6743" d="M516.37,280.02l-.88-.12v-.21c0-.14.03-.25.1-.32.07-.08.17-.12.31-.13l2.17-.1v9.09h.88c0,.05.02.11.02.17s0,.1,0,.13c0,.14-.04.24-.13.3-.09.06-.21.1-.35.12l-1.6.14-.31-1.21c-.2.39-.5.71-.88.96s-.82.37-1.29.37-.85-.09-1.18-.26c-.33-.17-.6-.4-.81-.69s-.36-.6-.46-.96c-.1-.35-.15-.7-.15-1.06,0-.71.14-1.36.43-1.95.28-.59.69-1.06,1.22-1.42s1.15-.54,1.87-.54c.14,0,.3.02.48.05s.37.08.58.16v-2.51ZM516.37,283.43c-.14-.06-.3-.12-.48-.19-.18-.07-.39-.1-.63-.1-.38,0-.69.12-.94.35-.25.23-.43.55-.54.94-.11.39-.17.84-.17,1.33,0,.52.06.97.18,1.37.12.39.28.69.5.91.21.22.46.32.75.32.21,0,.39-.05.55-.15.16-.1.3-.23.42-.4.12-.18.21-.4.27-.66s.09-.54.09-.86v-2.87Z"/><path class="uuid-27dacf18-2fde-4615-88ff-03f57baa6743" d="M364.37,309v-.53l1.71-.23v-6.27l-1.6.23c-.04-.07-.07-.13-.1-.18-.03-.05-.05-.1-.05-.14,0-.05.01-.1.04-.14.03-.04.09-.09.18-.13l2.5-1.31h.69v8.03h1.64v.31c0,.11-.03.2-.08.27-.05.06-.15.1-.29.1h-4.66Z"/><path class="uuid-27dacf18-2fde-4615-88ff-03f57baa6743" d="M370.53,309v-.53l1.71-.23v-6.27l-1.6.23c-.04-.07-.07-.13-.1-.18-.03-.05-.05-.1-.05-.14,0-.05.01-.1.04-.14.03-.04.09-.09.18-.13l2.5-1.31h.69v8.03h1.64v.31c0,.11-.03.2-.08.27-.05.06-.15.1-.29.1h-4.66Z"/><path class="uuid-27dacf18-2fde-4615-88ff-03f57baa6743" d="M378.79,303.65c0,.27-.1.5-.3.69s-.44.29-.71.29-.52-.1-.71-.29c-.2-.19-.29-.42-.29-.69,0-.17.05-.34.14-.49.09-.15.21-.27.36-.36s.31-.14.5-.14.36.05.51.14.27.21.37.36c.1.15.14.31.14.49ZM378.79,307.95c0,.26-.1.49-.3.68-.2.2-.44.29-.71.29s-.52-.1-.71-.29c-.2-.19-.29-.42-.29-.68,0-.17.05-.33.14-.49.09-.15.21-.27.36-.36.15-.09.31-.14.5-.14s.36.04.51.14c.15.09.27.21.37.36.1.15.14.31.14.49Z"/><path class="uuid-27dacf18-2fde-4615-88ff-03f57baa6743" d="M381.85,304.93s-.03-.09-.04-.13c0-.04-.01-.09-.01-.14,0-.15.04-.26.12-.34.08-.08.21-.12.39-.14.36-.03.67-.09.92-.2s.45-.28.59-.51c.14-.23.2-.53.2-.89,0-.32-.06-.61-.19-.86-.13-.25-.3-.45-.53-.59-.23-.14-.49-.21-.8-.21-.17,0-.32,0-.43.03-.11.02-.22.04-.32.05l-.08,1.49h-.5c-.24,0-.44-.05-.6-.16-.15-.1-.23-.28-.23-.52,0-.31.14-.59.43-.84s.66-.45,1.12-.6c.46-.15.93-.22,1.42-.22.54,0,.99.09,1.35.27.36.18.62.42.8.71.17.29.26.6.26.93,0,.44-.14.85-.41,1.22s-.61.68-1.02.93c.35.06.67.19.95.38.28.19.51.43.68.73.17.29.25.63.25,1,0,.56-.15,1.07-.44,1.51-.3.44-.7.79-1.22,1.05-.52.26-1.1.38-1.77.38-.54,0-1-.07-1.38-.21-.38-.14-.67-.33-.88-.57-.21-.24-.31-.5-.31-.79,0-.17.04-.32.11-.46.07-.14.18-.26.33-.34.14-.09.32-.13.53-.13.08,0,.19.02.32.05s.22.06.26.08v1.51c.18.08.37.13.56.16.19.03.36.04.5.04.31,0,.6-.06.85-.18s.46-.31.62-.57.24-.59.24-.99c0-.32-.07-.63-.2-.92-.14-.29-.34-.53-.61-.71-.27-.18-.62-.27-1.03-.27h-.81Z"/><path class="uuid-27dacf18-2fde-4615-88ff-03f57baa6743" d="M388.87,304.93s-.03-.09-.04-.13c0-.04-.01-.09-.01-.14,0-.15.04-.26.12-.34.08-.08.21-.12.39-.14.36-.03.67-.09.92-.2s.45-.28.59-.51c.14-.23.2-.53.2-.89,0-.32-.06-.61-.19-.86-.13-.25-.3-.45-.53-.59-.23-.14-.49-.21-.8-.21-.17,0-.32,0-.43.03-.11.02-.22.04-.32.05l-.08,1.49h-.5c-.24,0-.44-.05-.6-.16-.15-.1-.23-.28-.23-.52,0-.31.14-.59.43-.84s.66-.45,1.12-.6c.46-.15.93-.22,1.42-.22.54,0,.99.09,1.35.27.36.18.62.42.8.71.17.29.26.6.26.93,0,.44-.14.85-.41,1.22s-.61.68-1.02.93c.35.06.67.19.95.38.28.19.51.43.68.73.17.29.25.63.25,1,0,.56-.15,1.07-.44,1.51-.3.44-.7.79-1.22,1.05-.52.26-1.1.38-1.77.38-.54,0-1-.07-1.38-.21-.38-.14-.67-.33-.88-.57-.21-.24-.31-.5-.31-.79,0-.17.04-.32.11-.46.07-.14.18-.26.33-.34.14-.09.32-.13.53-.13.08,0,.19.02.32.05s.22.06.26.08v1.51c.18.08.37.13.56.16.19.03.36.04.5.04.31,0,.6-.06.85-.18s.46-.31.62-.57.24-.59.24-.99c0-.32-.07-.63-.2-.92-.14-.29-.34-.53-.61-.71-.27-.18-.62-.27-1.03-.27h-.81Z"/><path class="uuid-27dacf18-2fde-4615-88ff-03f57baa6743" d="M401.42,309.08l-.39-1.26c-.24.46-.54.8-.92,1.03s-.75.34-1.13.34-.69-.08-.94-.23-.44-.36-.57-.62c-.13-.25-.19-.53-.19-.83s.05-.54.14-.77.17-.4.24-.52l3.23-1.01v-1.01c0-.36-.1-.64-.29-.83-.2-.19-.45-.28-.77-.28-.1,0-.22,0-.35.03s-.24.03-.33.05l-.12,1.47h-.5c-.34,0-.58-.06-.73-.19-.14-.13-.22-.28-.22-.46,0-.23.1-.45.29-.64.19-.19.41-.35.65-.49.35-.19.71-.33,1.09-.42.38-.09.72-.13,1.02-.13.32,0,.6.03.82.1.22.07.41.16.56.29.21.16.36.38.44.64s.13.6.13,1.01v3.86h.88s.02.09.02.15c0,.06,0,.11,0,.15,0,.17-.05.27-.16.33-.11.05-.22.08-.32.09l-1.6.14ZM400.9,305.86l-1,.26c-.38.1-.65.25-.8.47-.15.22-.22.46-.22.71,0,.23.08.44.23.62.15.18.36.27.61.27.2,0,.37-.05.5-.15s.25-.22.34-.36c.09-.14.16-.27.2-.4.06-.16.1-.33.11-.53.01-.2.02-.35.02-.46v-.43Z"/><path class="uuid-27dacf18-2fde-4615-88ff-03f57baa6743" d="M411.8,300.02l-.88-.12v-.21c0-.14.03-.25.1-.32.07-.08.17-.12.31-.13l2.17-.1v9.09h.88c0,.05.02.11.02.17s0,.1,0,.13c0,.14-.04.24-.13.3-.09.06-.21.1-.35.12l-1.6.14-.31-1.21c-.2.39-.5.71-.88.96s-.82.37-1.29.37-.85-.09-1.18-.26c-.33-.17-.6-.4-.81-.69s-.36-.6-.46-.96c-.1-.35-.15-.7-.15-1.06,0-.71.14-1.36.43-1.95.28-.59.69-1.06,1.22-1.42s1.15-.54,1.87-.54c.14,0,.3.02.48.05s.37.08.58.16v-2.51ZM411.8,303.43c-.14-.06-.3-.12-.48-.19-.18-.07-.39-.1-.63-.1-.38,0-.69.12-.94.35-.25.23-.43.55-.54.94-.11.39-.17.84-.17,1.33,0,.52.06.97.18,1.37.12.39.28.69.5.91.21.22.46.32.75.32.21,0,.39-.05.55-.15.16-.1.3-.23.42-.4.12-.18.21-.4.27-.66s.09-.54.09-.86v-2.87Z"/><path class="uuid-27dacf18-2fde-4615-88ff-03f57baa6743" d="M419.27,309.08l-.39-1.26c-.24.46-.54.8-.92,1.03s-.75.34-1.13.34-.69-.08-.94-.23-.44-.36-.57-.62c-.13-.25-.19-.53-.19-.83s.05-.54.14-.77.17-.4.24-.52l3.23-1.01v-1.01c0-.36-.1-.64-.29-.83-.2-.19-.45-.28-.77-.28-.1,0-.22,0-.35.03s-.24.03-.33.05l-.12,1.47h-.5c-.34,0-.58-.06-.73-.19-.14-.13-.22-.28-.22-.46,0-.23.1-.45.29-.64.19-.19.41-.35.65-.49.35-.19.71-.33,1.09-.42.38-.09.72-.13,1.02-.13.32,0,.6.03.82.1.22.07.41.16.56.29.21.16.36.38.44.64s.13.6.13,1.01v3.86h.88s.02.09.02.15c0,.06,0,.11,0,.15,0,.17-.05.27-.16.33-.11.05-.22.08-.32.09l-1.6.14ZM418.75,305.86l-1,.26c-.38.1-.65.25-.8.47-.15.22-.22.46-.22.71,0,.23.08.44.23.62.15.18.36.27.61.27.2,0,.37-.05.5-.15s.25-.22.34-.36c.09-.14.16-.27.2-.4.06-.16.1-.33.11-.53.01-.2.02-.35.02-.46v-.43ZM417.32,301.81l-.46-.34,1.01-1.96c.13-.26.28-.47.45-.64.17-.17.38-.25.62-.25.17,0,.31.04.44.11s.25.18.37.31l.21.22-2.64,2.55Z"/><path class="uuid-27dacf18-2fde-4615-88ff-03f57baa6743" d="M422.01,309v-.53l.9-.25v-8.2l-.89-.12v-.19c0-.15.04-.26.1-.34.07-.08.17-.12.31-.13l2.17-.1v9.19h.81v.31c0,.11-.03.2-.08.27-.05.06-.15.1-.29.1h-3.05Z"/><path class="uuid-27dacf18-2fde-4615-88ff-03f57baa6743" d="M429.51,305.78v-1.01h10.31v1.01h-10.31Z"/><path class="uuid-27dacf18-2fde-4615-88ff-03f57baa6743" d="M447.23,303.18h-2.29l-.29,1.38h-.67v-2.07c.19,0,.37,0,.54.01s.39.02.65.03.61.02,1.05.02h2.81c.02.05.03.1.03.16,0,.05,0,.1,0,.16,0,.14-.03.28-.08.42-.05.14-.14.31-.27.51-.18.29-.41.64-.67,1.03-.27.39-.54.79-.82,1.2-.28.41-.55.79-.79,1.14-.24.35-.52.74-.84,1.18h2.37l.33-1.17c.04-.12.09-.21.15-.25s.15-.07.24-.07c.04,0,.1,0,.16.03.06.02.12.04.17.05v2.09h-5.2c0-.05-.02-.12-.04-.19-.02-.07-.03-.15-.03-.23,0-.11.03-.25.08-.4s.14-.32.27-.51l3.13-4.5Z"/><path class="uuid-27dacf18-2fde-4615-88ff-03f57baa6743" d="M454.11,309.08l-.39-1.26c-.24.46-.54.8-.92,1.03s-.75.34-1.13.34-.69-.08-.94-.23-.44-.36-.57-.62c-.13-.25-.19-.53-.19-.83s.05-.54.14-.77.17-.4.24-.52l3.23-1.01v-1.01c0-.36-.1-.64-.29-.83-.2-.19-.45-.28-.77-.28-.1,0-.22,0-.35.03s-.24.03-.33.05l-.12,1.47h-.5c-.34,0-.58-.06-.73-.19-.14-.13-.22-.28-.22-.46,0-.23.1-.45.29-.64.19-.19.41-.35.65-.49.35-.19.71-.33,1.09-.42.38-.09.72-.13,1.02-.13.32,0,.6.03.82.1.22.07.41.16.56.29.21.16.36.38.44.64s.13.6.13,1.01v3.86h.88s.02.09.02.15c0,.06,0,.11,0,.15,0,.17-.05.27-.16.33-.11.05-.22.08-.32.09l-1.6.14ZM453.59,305.86l-1,.26c-.38.1-.65.25-.8.47-.15.22-.22.46-.22.71,0,.23.08.44.23.62.15.18.36.27.61.27.2,0,.37-.05.5-.15s.25-.22.34-.36c.09-.14.16-.27.2-.4.06-.16.1-.33.11-.53.01-.2.02-.35.02-.46v-.43Z"/><path class="uuid-27dacf18-2fde-4615-88ff-03f57baa6743" d="M457.75,300.02l-.89-.12v-.19c0-.15.04-.26.1-.34.07-.08.17-.12.31-.13l2.17-.1v2.87c0,.25,0,.49,0,.71s0,.46,0,.71c.21-.34.5-.61.88-.81.38-.2.78-.31,1.2-.31.22,0,.43.03.64.08.21.05.41.14.59.25.18.12.34.27.46.45.16.22.27.46.34.74.07.28.1.63.1,1.07v3.42h.82v.31c0,.11-.03.2-.08.27-.05.06-.15.1-.29.1h-3.02v-.53l.86-.25v-3.11c0-.16,0-.35-.03-.57-.02-.22-.05-.4-.1-.55-.08-.23-.2-.43-.37-.58-.17-.16-.37-.23-.62-.23-.18,0-.36.05-.53.16-.17.1-.32.25-.46.44-.17.24-.27.51-.32.79s-.07.6-.07.95v2.81h.79v.31c0,.11-.03.2-.08.27-.05.06-.15.1-.3.1h-3.02v-.53l.92-.25v-8.2Z"/><path class="uuid-27dacf18-2fde-4615-88ff-03f57baa6743" d="M465.29,309v-.53l.9-.25v-4.91h-.89v-.35c0-.12.03-.21.1-.28.07-.06.16-.1.29-.11l1.83-.13.2,1.31c.18-.43.44-.78.78-1.05s.68-.4,1.04-.4c.29,0,.52.06.71.18s.32.26.41.44c.09.18.13.35.13.51,0,.3-.1.54-.29.71s-.44.25-.73.25h-.29l-.6-1.1c-.16.09-.31.23-.46.44-.15.2-.26.42-.33.64-.04.13-.08.28-.11.44s-.05.35-.07.56c-.01.21-.02.47-.02.77v2.17h1.28v.3c0,.11-.03.21-.08.28-.06.07-.16.11-.29.11h-3.51Z"/><path class="uuid-27dacf18-2fde-4615-88ff-03f57baa6743" d="M475.16,309.08l-.39-1.26c-.24.46-.54.8-.92,1.03s-.75.34-1.13.34-.69-.08-.94-.23-.44-.36-.57-.62c-.13-.25-.19-.53-.19-.83s.05-.54.14-.77.17-.4.24-.52l3.23-1.01v-1.01c0-.36-.1-.64-.29-.83-.2-.19-.45-.28-.77-.28-.1,0-.22,0-.35.03s-.24.03-.33.05l-.12,1.47h-.5c-.34,0-.58-.06-.73-.19-.14-.13-.22-.28-.22-.46,0-.23.1-.45.29-.64.19-.19.41-.35.65-.49.35-.19.71-.33,1.09-.42.38-.09.72-.13,1.02-.13.32,0,.6.03.82.1.22.07.41.16.56.29.21.16.36.38.44.64s.13.6.13,1.01v3.86h.88s.02.09.02.15c0,.06,0,.11,0,.15,0,.17-.05.27-.16.33-.11.05-.22.08-.32.09l-1.6.14ZM474.64,305.86l-1,.26c-.38.1-.65.25-.8.47-.15.22-.22.46-.22.71,0,.23.08.44.23.62.15.18.36.27.61.27.2,0,.37-.05.5-.15s.25-.22.34-.36c.09-.14.16-.27.2-.4.06-.16.1-.33.11-.53.01-.2.02-.35.02-.46v-.43Z"/><path class="uuid-27dacf18-2fde-4615-88ff-03f57baa6743" d="M482.48,300.02l-.88-.12v-.21c0-.14.03-.25.1-.32.07-.08.17-.12.31-.13l2.17-.1v9.09h.88c0,.05.02.11.02.17s0,.1,0,.13c0,.14-.04.24-.13.3-.09.06-.21.1-.35.12l-1.6.14-.31-1.21c-.2.39-.5.71-.88.96s-.82.37-1.29.37-.85-.09-1.18-.26c-.33-.17-.6-.4-.81-.69s-.36-.6-.46-.96c-.1-.35-.15-.7-.15-1.06,0-.71.14-1.36.43-1.95.28-.59.69-1.06,1.22-1.42s1.15-.54,1.87-.54c.14,0,.3.02.48.05s.37.08.58.16v-2.51ZM482.48,303.43c-.14-.06-.3-.12-.48-.19-.18-.07-.39-.1-.63-.1-.38,0-.69.12-.94.35-.25.23-.43.55-.54.94-.11.39-.17.84-.17,1.33,0,.52.06.97.18,1.37.12.39.28.69.5.91.21.22.46.32.75.32.21,0,.39-.05.55-.15.16-.1.3-.23.42-.4.12-.18.21-.4.27-.66s.09-.54.09-.86v-2.87Z"/><path class="uuid-27dacf18-2fde-4615-88ff-03f57baa6743" d="M490.03,309v-.53l.86-.25v-3.11c0-.16,0-.35-.03-.57s-.05-.4-.1-.55c-.08-.23-.2-.43-.37-.58-.17-.16-.37-.23-.62-.23-.18,0-.36.05-.53.16-.17.1-.33.25-.46.44-.17.25-.28.53-.33.85-.04.31-.07.66-.07,1.04v2.67h.79v.31c0,.11-.03.2-.08.27-.05.06-.15.1-.3.1h-3.01v-.53l.9-.25v-4.91h-.89v-.35c0-.12.03-.21.1-.28.07-.06.17-.1.31-.11l1.87-.13.2,1.11c.22-.37.52-.67.9-.89s.79-.33,1.23-.33c.36,0,.69.06.99.19.31.13.55.32.75.59.16.22.27.46.34.74s.1.63.1,1.07v3.42h.82v.31c0,.11-.03.2-.08.27-.05.06-.15.1-.29.1h-3.02Z"/><path class="uuid-27dacf18-2fde-4615-88ff-03f57baa6743" d="M494.15,309v-.53l.98-.25v-4.91h-.97v-.35c0-.11.03-.2.09-.26.06-.06.15-.09.26-.1l2.3-.13v5.86h.94v.31c0,.11-.03.2-.08.27-.05.06-.15.1-.3.1h-3.23ZM494.99,301.81l-.46-.34,1.01-1.96c.13-.26.28-.47.45-.64.17-.17.38-.25.62-.25.17,0,.31.04.45.11s.25.18.37.31l.21.22-2.64,2.55Z"/><path class="uuid-27dacf18-2fde-4615-88ff-03f57baa6743" d="M501.3,312.03v-.53l.9-.25v-7.94h-.88v-.35c0-.12.03-.21.09-.28.06-.06.16-.1.29-.11l1.9-.13.18,1.07c.18-.34.46-.62.84-.85.38-.22.79-.34,1.26-.34s.84.09,1.17.26c.33.17.6.4.8.69s.37.6.47.96c.1.35.16.7.16,1.06,0,.69-.14,1.34-.43,1.94s-.69,1.08-1.22,1.44-1.15.54-1.87.54c-.14,0-.3-.02-.48-.05-.18-.03-.37-.09-.58-.16v2.35h1.36v.33c0,.11-.03.2-.09.27-.06.06-.15.1-.29.1h-3.59ZM503.9,308.12c.13.05.28.11.46.18.17.07.39.1.65.1.38,0,.7-.12.94-.35s.43-.55.54-.94c.12-.39.18-.84.18-1.33,0-.52-.06-.97-.18-1.36-.12-.39-.29-.69-.5-.91-.22-.22-.47-.33-.75-.33-.2,0-.38.05-.54.15-.16.1-.3.23-.43.4-.12.18-.21.39-.27.63s-.1.5-.1.79v2.98Z"/><path class="uuid-27dacf18-2fde-4615-88ff-03f57baa6743" d="M513.52,309.08l-.39-1.26c-.24.46-.54.8-.92,1.03s-.75.34-1.13.34-.69-.08-.94-.23-.44-.36-.57-.62c-.13-.25-.19-.53-.19-.83s.05-.54.14-.77.17-.4.24-.52l3.23-1.01v-1.01c0-.36-.1-.64-.29-.83-.2-.19-.45-.28-.77-.28-.1,0-.22,0-.35.03s-.24.03-.33.05l-.12,1.47h-.5c-.34,0-.58-.06-.73-.19-.14-.13-.22-.28-.22-.46,0-.23.1-.45.29-.64.19-.19.41-.35.65-.49.35-.19.71-.33,1.09-.42.38-.09.72-.13,1.02-.13.32,0,.6.03.82.1.22.07.41.16.56.29.21.16.36.38.44.64s.13.6.13,1.01v3.86h.88s.02.09.02.15c0,.06,0,.11,0,.15,0,.17-.05.27-.16.33-.11.05-.22.08-.32.09l-1.6.14ZM513,305.86l-1,.26c-.38.1-.65.25-.8.47-.15.22-.22.46-.22.71,0,.23.08.44.23.62.15.18.36.27.61.27.2,0,.37-.05.5-.15s.25-.22.34-.36c.09-.14.16-.27.2-.4.06-.16.1-.33.11-.53.01-.2.02-.35.02-.46v-.43ZM511.57,301.81l-.46-.34,1.01-1.96c.13-.26.28-.47.45-.64.17-.17.38-.25.62-.25.17,0,.31.04.44.11s.25.18.37.31l.21.22-2.64,2.55Z"/><path class="uuid-27dacf18-2fde-4615-88ff-03f57baa6743" d="M516.31,309v-.53l.9-.25v-4.91h-.89v-.35c0-.12.03-.21.1-.28.07-.06.16-.1.29-.11l1.83-.13.2,1.31c.18-.43.44-.78.78-1.05s.68-.4,1.04-.4c.29,0,.52.06.71.18s.32.26.41.44c.09.18.13.35.13.51,0,.3-.1.54-.29.71s-.44.25-.73.25h-.29l-.6-1.1c-.16.09-.31.23-.46.44-.15.2-.26.42-.33.64-.04.13-.08.28-.11.44s-.05.35-.07.56c-.01.21-.02.47-.02.77v2.17h1.28v.3c0,.11-.03.21-.08.28-.06.07-.16.11-.29.11h-3.51Z"/><path class="uuid-27dacf18-2fde-4615-88ff-03f57baa6743" d="M523.19,303.31h-.88v-.69l.93-.25.6-1.59c.06,0,.13-.02.2-.03s.14-.01.2-.01c.2,0,.35.05.45.16.1.1.14.26.14.47v1.18h1.96v.3c0,.17-.03.29-.1.36-.07.07-.17.1-.32.1h-1.48v3.71c0,.31.04.55.12.71.08.17.19.28.32.33.13.06.27.08.41.08.18,0,.36-.03.54-.09.17-.06.36-.13.55-.21.1.1.14.2.14.29,0,.17-.13.34-.39.52-.19.14-.43.26-.73.38-.29.11-.6.17-.91.17-.16,0-.33-.02-.52-.05-.19-.03-.37-.11-.54-.22-.17-.11-.32-.28-.44-.51-.09-.17-.15-.36-.2-.58-.04-.23-.07-.51-.07-.86v-3.67Z"/><path class="uuid-27dacf18-2fde-4615-88ff-03f57baa6743" d="M528.01,303.34l-.68-.17v-.61h3.68v.36c0,.23-.12.35-.37.35h-.79l1.05,2.67c.07.17.14.35.21.55s.14.4.2.61.12.41.18.61l1.4-4.29-1.02-.27v-.58h2.62v.36c0,.1-.03.19-.08.25-.05.07-.14.1-.27.1h-.29c-.18.53-.39,1.11-.62,1.75-.23.64-.46,1.3-.71,1.97s-.5,1.32-.75,1.95c-.25.63-.5,1.2-.73,1.71-.24.52-.48.88-.75,1.09-.26.21-.54.31-.84.31-.22,0-.4-.05-.54-.14-.14-.09-.26-.21-.33-.36s-.12-.3-.12-.47c0-.19.05-.37.14-.53.09-.16.17-.27.23-.32l1.48.36.76-1.73c-.19,0-.36-.05-.51-.11-.15-.07-.27-.17-.38-.3-.1-.13-.2-.31-.29-.54l-1.87-4.6Z"/><path class="uuid-27dacf18-2fde-4615-88ff-03f57baa6743" d="M353.27,321.72h-3.95l-.16,1.14h-.64l.05-2.59h6.01c0,.18-.01.35-.03.51-.02.16-.07.32-.13.51-.07.18-.16.41-.29.69l-2.92,6.2c-.16.34-.31.59-.45.76s-.34.25-.6.25c-.12,0-.24-.02-.35-.06-.11-.04-.22-.1-.32-.16-.1-.06-.19-.11-.26-.16l4.04-7.1Z"/><path class="uuid-27dacf18-2fde-4615-88ff-03f57baa6743" d="M355.87,328.16c0,.18-.05.35-.15.51-.1.16-.23.28-.39.38-.16.09-.33.14-.52.14-.28,0-.52-.1-.73-.31-.21-.2-.31-.44-.31-.72,0-.18.05-.35.14-.51.1-.16.22-.28.39-.38s.33-.15.52-.15.37.05.53.15c.16.1.29.23.39.38.1.16.14.33.14.51Z"/><path class="uuid-27dacf18-2fde-4615-88ff-03f57baa6743" d="M366.61,324.62l-.59-1.38s-.09-.03-.16-.05c-.07-.01-.14-.02-.2-.02-.22,0-.44.08-.65.23s-.4.39-.54.71-.22.75-.22,1.27.09.99.27,1.4c.18.4.43.72.75.94.31.23.67.34,1.07.34.18,0,.38-.03.6-.09s.49-.18.82-.35c.03.05.07.11.11.16.04.06.06.12.06.2,0,.07-.02.15-.07.23-.04.08-.12.17-.24.27-.21.19-.49.36-.83.5-.34.14-.75.21-1.22.21-.55,0-1.05-.13-1.51-.4-.45-.26-.82-.64-1.09-1.13-.27-.49-.41-1.06-.41-1.71,0-.49.08-.94.24-1.38.16-.43.38-.82.67-1.16s.64-.6,1.04-.79.85-.29,1.33-.29c.39,0,.74.06,1.05.18s.56.28.74.49c.18.21.27.45.27.71s-.08.47-.25.64c-.17.17-.41.25-.75.25h-.33ZM364.78,321.55l-.99-1.57c-.1-.14-.17-.26-.23-.36-.06-.1-.08-.2-.08-.29,0-.12.05-.21.14-.28.1-.06.21-.11.34-.14l1.58,1.48,1.57-1.48c.14.03.25.07.35.14s.14.17.14.29c0,.09-.03.18-.09.29-.06.1-.13.23-.23.36l-1.02,1.56h-1.48Z"/><path class="uuid-27dacf18-2fde-4615-88ff-03f57baa6743" d="M370.3,325.52c.02.55.13,1.01.33,1.39.2.38.47.67.8.87.34.2.71.3,1.12.3.18,0,.39-.03.63-.08.24-.05.53-.16.89-.33.03.04.07.09.09.15s.04.11.04.16c0,.09-.02.16-.07.23-.04.07-.1.13-.18.2-.05.04-.17.13-.36.26-.19.13-.44.25-.76.36s-.7.16-1.15.16c-.61,0-1.15-.14-1.6-.42-.46-.28-.81-.66-1.07-1.16-.25-.49-.38-1.06-.38-1.69,0-.48.08-.93.24-1.36.16-.43.38-.81.68-1.14.3-.33.65-.6,1.05-.79.41-.2.86-.29,1.37-.29.6,0,1.1.14,1.49.42.39.28.64.65.75,1.13.05.16.09.33.1.51.02.19.03.41.03.68v.43h-4.04ZM372.68,324.9c0-.23-.02-.46-.06-.67-.04-.21-.11-.4-.2-.55-.1-.17-.22-.29-.36-.38s-.31-.13-.5-.13c-.29,0-.52.09-.7.27-.18.18-.31.4-.4.66-.09.26-.14.53-.14.8h2.37Z"/><path class="uuid-27dacf18-2fde-4615-88ff-03f57baa6743" d="M375.28,329v-.53l.9-.25v-4.91h-.89v-.35c0-.12.03-.21.1-.28.07-.06.16-.1.29-.11l1.83-.13.2,1.31c.18-.43.44-.78.78-1.05s.68-.4,1.04-.4c.29,0,.52.06.71.18s.32.26.41.44c.09.18.13.35.13.51,0,.3-.1.54-.29.71s-.44.25-.73.25h-.29l-.6-1.1c-.16.09-.31.23-.46.44-.15.2-.26.42-.33.64-.04.13-.08.28-.11.44s-.05.35-.07.56c-.01.21-.02.47-.02.77v2.17h1.28v.3c0,.11-.03.21-.08.28-.06.07-.16.11-.29.11h-3.51Z"/><path class="uuid-27dacf18-2fde-4615-88ff-03f57baa6743" d="M381.86,323.32l-.68-.16v-.61h3.65v.35c0,.13-.03.22-.09.28-.06.06-.15.08-.27.08h-.79l1.09,2.96c.1.28.2.56.27.85.08.29.16.55.24.79l1.41-4.46-1.01-.27v-.58h2.6v.34c0,.11-.02.2-.07.27s-.14.1-.28.1h-.33c-.08.21-.19.5-.32.89s-.29.81-.45,1.26c-.17.46-.33.9-.49,1.33s-.31.81-.43,1.14c-.13.32-.22.55-.28.67-.11.19-.25.33-.43.43-.17.1-.38.14-.63.14-.09,0-.18,0-.27-.01-.1,0-.2-.02-.3-.04l-2.13-5.76Z"/><path class="uuid-27dacf18-2fde-4615-88ff-03f57baa6743" d="M392.98,329v-.53l.86-.25v-3.11c0-.16,0-.35-.03-.57s-.05-.4-.1-.55c-.08-.23-.2-.43-.37-.58-.17-.16-.37-.23-.62-.23-.18,0-.36.05-.53.16-.17.1-.33.25-.46.44-.17.25-.28.53-.33.85-.04.31-.07.66-.07,1.04v2.67h.79v.31c0,.11-.03.2-.08.27-.05.06-.15.1-.3.1h-3.01v-.53l.9-.25v-4.91h-.89v-.35c0-.12.03-.21.1-.28.07-.06.17-.1.31-.11l1.87-.13.2,1.11c.22-.37.52-.67.9-.89s.79-.33,1.23-.33c.36,0,.69.06.99.19.31.13.55.32.75.59.16.22.27.46.34.74s.1.63.1,1.07v3.42h.82v.31c0,.11-.03.2-.08.27-.05.06-.15.1-.29.1h-3.02Z"/><path class="uuid-27dacf18-2fde-4615-88ff-03f57baa6743" d="M401.35,329.08l-.39-1.26c-.24.46-.54.8-.92,1.03s-.75.34-1.13.34-.69-.08-.94-.23-.44-.36-.57-.62c-.13-.25-.19-.53-.19-.83s.05-.54.14-.77.17-.4.24-.52l3.23-1.01v-1.01c0-.36-.1-.64-.29-.83-.2-.19-.45-.28-.77-.28-.1,0-.22,0-.35.03s-.24.03-.33.05l-.12,1.47h-.5c-.34,0-.58-.06-.73-.19-.14-.13-.22-.28-.22-.46,0-.23.1-.45.29-.64.19-.19.41-.35.65-.49.35-.19.71-.33,1.09-.42.38-.09.72-.13,1.02-.13.32,0,.6.03.82.1.22.07.41.16.56.29.21.16.36.38.44.64s.13.6.13,1.01v3.86h.88s.02.09.02.15c0,.06,0,.11,0,.15,0,.17-.05.27-.16.33-.11.05-.22.08-.32.09l-1.6.14ZM400.82,325.86l-1,.26c-.38.1-.65.25-.8.47-.15.22-.22.46-.22.71,0,.23.08.44.23.62.15.18.36.27.61.27.2,0,.37-.05.5-.15s.25-.22.34-.36c.09-.14.16-.27.2-.4.06-.16.1-.33.11-.53.01-.2.02-.35.02-.46v-.43Z"/><path class="uuid-27dacf18-2fde-4615-88ff-03f57baa6743" d="M407.08,329c0-.18.01-.34.04-.46.03-.12.07-.24.14-.36.07-.11.17-.24.29-.38l2.25-2.33c.51-.55.85-1.05,1.04-1.48s.28-.86.28-1.27c0-.39-.07-.72-.22-.99-.14-.27-.34-.47-.58-.6-.24-.13-.51-.2-.81-.2-.15,0-.29.02-.44.06-.14.04-.26.08-.35.11v1.83h-.52c-.29,0-.53-.05-.72-.16-.19-.11-.29-.31-.29-.62,0-.32.14-.64.41-.95.27-.31.65-.57,1.13-.77.48-.2,1.01-.3,1.62-.3.52,0,.98.09,1.36.28.38.19.68.45.89.78.21.33.31.73.31,1.18,0,.37-.08.74-.24,1.1-.16.36-.42.74-.77,1.15-.35.41-.8.88-1.35,1.4-.55.53-1.23,1.15-2.02,1.87l3.72-.34.26-1.16c.03-.09.07-.17.12-.24.05-.06.14-.1.26-.1.03,0,.07,0,.12.01.05,0,.1.02.14.04v2.89h-6.07Z"/><path class="uuid-27dacf18-2fde-4615-88ff-03f57baa6743" d="M417.65,329.2c-.59,0-1.1-.12-1.51-.37-.41-.25-.75-.58-1-.99s-.44-.87-.55-1.37-.17-.99-.17-1.48c0-.89.14-1.7.41-2.43.27-.73.68-1.31,1.24-1.74.55-.43,1.24-.64,2.06-.64.71,0,1.3.19,1.77.57s.84.89,1.08,1.54c.24.65.37,1.39.37,2.21,0,.65-.08,1.26-.24,1.83-.16.57-.39,1.07-.71,1.5-.31.43-.7.77-1.16,1.01-.46.25-.99.37-1.59.37ZM418.15,328.5c.47,0,.83-.26,1.07-.79.24-.53.36-1.33.36-2.42,0-.61-.04-1.18-.12-1.71s-.21-1-.37-1.41c-.17-.41-.37-.72-.61-.95-.24-.23-.53-.34-.86-.34-.29,0-.54.1-.75.31s-.38.56-.5,1.05c-.12.49-.18,1.16-.18,2s.08,1.52.24,2.16.38,1.15.67,1.53c.29.38.64.57,1.05.57Z"/><path class="uuid-27dacf18-2fde-4615-88ff-03f57baa6743" d="M422.25,329c0-.18.01-.34.04-.46.03-.12.07-.24.14-.36.07-.11.17-.24.29-.38l2.25-2.33c.51-.55.85-1.05,1.04-1.48s.28-.86.28-1.27c0-.39-.07-.72-.22-.99-.14-.27-.34-.47-.58-.6-.24-.13-.51-.2-.81-.2-.15,0-.29.02-.44.06-.14.04-.26.08-.35.11v1.83h-.52c-.29,0-.53-.05-.72-.16-.19-.11-.29-.31-.29-.62,0-.32.14-.64.41-.95.27-.31.65-.57,1.13-.77.48-.2,1.01-.3,1.62-.3.52,0,.98.09,1.36.28.38.19.68.45.89.78.21.33.31.73.31,1.18,0,.37-.08.74-.24,1.1-.16.36-.42.74-.77,1.15-.35.41-.8.88-1.35,1.4-.55.53-1.23,1.15-2.02,1.87l3.72-.34.26-1.16c.03-.09.07-.17.12-.24.05-.06.14-.1.26-.1.03,0,.07,0,.12.01.05,0,.1.02.14.04v2.89h-6.07Z"/><path class="uuid-27dacf18-2fde-4615-88ff-03f57baa6743" d="M431.35,328.44c.1.04.22.07.38.11.16.04.35.06.59.06.31,0,.6-.07.86-.21.26-.14.46-.37.62-.68.16-.31.24-.72.24-1.24,0-.32-.07-.65-.21-.97-.14-.33-.34-.61-.62-.83s-.6-.34-.98-.34c-.18,0-.36.03-.52.08-.16.06-.34.14-.54.25-.09.05-.17.1-.24.14-.07.04-.2.06-.37.06h-.38l.38-4.59h4.69c0,.36-.05.65-.16.85-.11.2-.25.34-.43.41-.17.07-.37.11-.59.11h-2.85v2.25c.32-.16.63-.27.92-.35.29-.08.59-.12.9-.12.62,0,1.13.13,1.52.38s.68.57.87.97c.19.39.28.81.28,1.24,0,.6-.15,1.14-.44,1.64-.3.49-.71.88-1.24,1.17-.53.29-1.14.43-1.84.43-.5,0-.92-.06-1.28-.18s-.62-.3-.81-.53c-.19-.23-.28-.51-.28-.83,0-.29.09-.52.27-.68s.4-.24.66-.24c.14,0,.26.02.37.05.1.03.19.07.25.11v1.51Z"/><path class="uuid-27dacf18-2fde-4615-88ff-03f57baa6743" d="M437.17,331.33c.15-.29.27-.54.38-.77.1-.23.21-.48.31-.74.1-.26.18-.52.23-.76l-.92-.44s-.02-.11-.03-.19c-.01-.08-.02-.16-.02-.24,0-.29.1-.53.29-.71s.42-.27.68-.27c.29,0,.53.1.74.31.21.2.31.5.31.89,0,.18-.03.39-.1.63s-.15.48-.25.73c-.1.25-.21.49-.31.72-.11.23-.21.42-.31.57-.09.17-.17.28-.26.35-.08.07-.17.1-.26.1-.04,0-.09,0-.14-.03-.05-.02-.09-.03-.14-.05l-.21-.1Z"/><path class="uuid-27dacf18-2fde-4615-88ff-03f57baa6743" d="M442.9,329v-.53l.96-.25v-7.25l-.93-.25v-.53h3.68c.45,0,.89.05,1.32.14.43.09.81.25,1.16.46s.62.48.82.83.31.76.31,1.27c0,.44-.11.84-.32,1.2s-.5.66-.85.9-.75.44-1.19.57c-.44.13-.9.19-1.37.19h-.82v2.59h1.27v.31c0,.12-.03.21-.08.27-.06.06-.16.09-.29.09h-3.65ZM445.66,325.06c.1,0,.25,0,.46.03s.41.03.59.03c.4,0,.72-.11.95-.32.23-.22.39-.49.49-.81.1-.33.14-.65.14-.97,0-.7-.12-1.25-.36-1.65-.24-.4-.67-.6-1.3-.6-.13,0-.29,0-.47.02-.18.01-.35.02-.5.03v4.25Z"/><path class="uuid-27dacf18-2fde-4615-88ff-03f57baa6743" d="M451.06,329v-.53l.98-.25v-4.91h-.97v-.35c0-.11.03-.2.09-.26.06-.06.15-.09.26-.1l2.3-.13v5.86h.94v.31c0,.11-.03.2-.08.27-.05.06-.15.1-.3.1h-3.23ZM453.71,320.35c0,.25-.1.47-.29.66-.19.19-.43.28-.72.28-.27,0-.5-.09-.69-.28s-.28-.4-.28-.64.1-.47.3-.66.44-.28.71-.28.5.09.69.28.28.4.28.64Z"/><path class="uuid-27dacf18-2fde-4615-88ff-03f57baa6743" d="M459.63,329v-.53l.86-.25v-3.11c0-.16,0-.35-.03-.57s-.05-.4-.1-.55c-.08-.23-.2-.43-.37-.58-.17-.16-.37-.23-.62-.23-.18,0-.36.05-.53.16-.17.1-.33.25-.46.44-.17.25-.28.53-.33.85-.04.31-.07.66-.07,1.04v2.67h.79v.31c0,.11-.03.2-.08.27-.05.06-.15.1-.3.1h-3.01v-.53l.9-.25v-4.91h-.89v-.35c0-.12.03-.21.1-.28.07-.06.17-.1.31-.11l1.87-.13.2,1.11c.22-.37.52-.67.9-.89s.79-.33,1.23-.33c.36,0,.69.06.99.19.31.13.55.32.75.59.16.22.27.46.34.74s.1.63.1,1.07v3.42h.82v.31c0,.11-.03.2-.08.27-.05.06-.15.1-.29.1h-3.02ZM458.5,321.54l-.99-1.57c-.1-.14-.17-.26-.23-.36-.06-.1-.08-.2-.08-.29,0-.12.05-.21.14-.28.1-.06.21-.11.34-.14l1.58,1.48,1.57-1.48c.14.03.25.07.35.14s.14.16.14.29c0,.09-.03.18-.08.29-.06.1-.13.23-.23.36l-1.02,1.56h-1.48Z"/><path class="uuid-27dacf18-2fde-4615-88ff-03f57baa6743" d="M466.88,329.24c-.68,0-1.25-.15-1.71-.46-.46-.3-.81-.71-1.04-1.22-.23-.51-.35-1.08-.35-1.72,0-.68.14-1.28.43-1.81.28-.53.68-.95,1.18-1.26.51-.31,1.09-.47,1.74-.47.7,0,1.28.15,1.73.45.46.3.8.7,1.03,1.22.23.51.35,1.08.35,1.72,0,.68-.14,1.3-.43,1.83-.29.54-.69.96-1.19,1.26-.51.3-1.09.46-1.74.46ZM467.09,328.48c.34,0,.61-.11.82-.34s.35-.54.44-.94.13-.85.13-1.35c0-.47-.05-.91-.15-1.34-.1-.42-.26-.77-.49-1.05-.23-.27-.53-.41-.92-.41-.34,0-.61.11-.81.34-.2.23-.34.53-.43.92-.09.39-.13.83-.13,1.33,0,.36.03.71.08,1.05.06.34.15.64.27.91.13.27.29.48.48.64.19.16.43.23.71.23Z"/><path class="uuid-27dacf18-2fde-4615-88ff-03f57baa6743" d="M471.25,326.82h.67l.42,1.37c.14.09.32.16.53.23s.42.1.61.1c.32,0,.58-.07.78-.21.2-.14.29-.33.29-.57,0-.11-.04-.23-.12-.36-.08-.13-.22-.28-.43-.44s-.52-.35-.92-.55c-.35-.18-.66-.37-.92-.56-.27-.19-.47-.41-.62-.66-.15-.25-.22-.55-.22-.88,0-.42.12-.78.36-1.07.24-.29.55-.5.94-.64.38-.14.8-.21,1.24-.21.23,0,.46.02.71.06s.48.08.69.14c.21.05.36.09.46.13v1.69s-.1.04-.16.06c-.07.02-.12.03-.18.03-.1,0-.19-.02-.25-.07-.06-.05-.1-.12-.13-.21l-.22-.82c-.1-.06-.27-.12-.5-.19-.23-.07-.44-.1-.64-.1-.14,0-.27.02-.41.07-.13.04-.24.11-.32.21-.08.09-.12.23-.12.4,0,.19.06.36.19.51.13.15.3.29.53.43.23.13.49.28.79.43.36.19.67.38.93.57.26.19.46.41.61.65.14.24.22.53.22.87,0,.37-.11.71-.33,1.02s-.53.55-.94.73-.88.27-1.43.27c-.24,0-.5-.02-.78-.07s-.53-.1-.77-.17c-.24-.07-.42-.12-.55-.18v-1.99Z"/><path class="uuid-27dacf18-2fde-4615-88ff-03f57baa6743" d="M480.06,329.24c-.68,0-1.25-.15-1.71-.46-.46-.3-.81-.71-1.04-1.22-.23-.51-.35-1.08-.35-1.72,0-.68.14-1.28.43-1.81.28-.53.68-.95,1.18-1.26.51-.31,1.09-.47,1.74-.47.7,0,1.28.15,1.73.45.46.3.8.7,1.03,1.22.23.51.35,1.08.35,1.72,0,.68-.14,1.3-.43,1.83-.29.54-.69.96-1.19,1.26-.51.3-1.09.46-1.74.46ZM480.27,328.48c.34,0,.61-.11.82-.34s.35-.54.44-.94.13-.85.13-1.35c0-.47-.05-.91-.15-1.34-.1-.42-.26-.77-.49-1.05-.23-.27-.53-.41-.92-.41-.34,0-.61.11-.81.34-.2.23-.34.53-.43.92-.09.39-.13.83-.13,1.33,0,.36.03.71.08,1.05.06.34.15.64.27.91.13.27.29.48.48.64.19.16.43.23.71.23Z"/><path class="uuid-27dacf18-2fde-4615-88ff-03f57baa6743" d="M484.42,323.32l-.68-.16v-.61h3.65v.35c0,.13-.03.22-.09.28-.06.06-.15.08-.27.08h-.79l1.09,2.96c.1.28.2.56.27.85.08.29.16.55.24.79l1.41-4.46-1.01-.27v-.58h2.6v.34c0,.11-.02.2-.07.27s-.14.1-.28.1h-.33c-.08.21-.19.5-.32.89s-.29.81-.45,1.26c-.17.46-.33.9-.49,1.33s-.31.81-.43,1.14c-.13.32-.22.55-.28.67-.11.19-.25.33-.43.43-.17.1-.38.14-.63.14-.09,0-.18,0-.27-.01-.1,0-.2-.02-.3-.04l-2.13-5.76Z"/><path class="uuid-27dacf18-2fde-4615-88ff-03f57baa6743" d="M495.33,329.08l-.39-1.26c-.24.46-.54.8-.92,1.03s-.75.34-1.13.34-.69-.08-.94-.23-.44-.36-.57-.62c-.13-.25-.19-.53-.19-.83s.05-.54.14-.77.17-.4.24-.52l3.23-1.01v-1.01c0-.36-.1-.64-.29-.83-.2-.19-.45-.28-.77-.28-.1,0-.22,0-.35.03s-.24.03-.33.05l-.12,1.47h-.5c-.34,0-.58-.06-.73-.19-.14-.13-.22-.28-.22-.46,0-.23.1-.45.29-.64.19-.19.41-.35.65-.49.35-.19.71-.33,1.09-.42.38-.09.72-.13,1.02-.13.32,0,.6.03.82.1.22.07.41.16.56.29.21.16.36.38.44.64s.13.6.13,1.01v3.86h.88s.02.09.02.15c0,.06,0,.11,0,.15,0,.17-.05.27-.16.33-.11.05-.22.08-.32.09l-1.6.14ZM494.81,325.86l-1,.26c-.38.1-.65.25-.8.47-.15.22-.22.46-.22.71,0,.23.08.44.23.62.15.18.36.27.61.27.2,0,.37-.05.5-.15s.25-.22.34-.36c.09-.14.16-.27.2-.4.06-.16.1-.33.11-.53.01-.2.02-.35.02-.46v-.43Z"/><path class="uuid-27dacf18-2fde-4615-88ff-03f57baa6743" d="M501.33,329v-.53l1.71-.23v-6.27l-1.6.23c-.04-.07-.07-.13-.1-.18-.03-.05-.05-.1-.05-.14,0-.05.01-.1.04-.14.03-.04.09-.09.18-.13l2.5-1.31h.69v8.03h1.64v.31c0,.11-.03.2-.08.27-.05.06-.15.1-.29.1h-4.66Z"/><path class="uuid-27dacf18-2fde-4615-88ff-03f57baa6743" d="M507.14,329c0-.18.01-.34.04-.46.03-.12.07-.24.14-.36.07-.11.17-.24.29-.38l2.25-2.33c.51-.55.85-1.05,1.04-1.48s.28-.86.28-1.27c0-.39-.07-.72-.22-.99-.14-.27-.34-.47-.58-.6-.24-.13-.51-.2-.81-.2-.15,0-.29.02-.44.06-.14.04-.26.08-.35.11v1.83h-.52c-.29,0-.53-.05-.72-.16-.19-.11-.29-.31-.29-.62,0-.32.14-.64.41-.95.27-.31.65-.57,1.13-.77.48-.2,1.01-.3,1.62-.3.52,0,.98.09,1.36.28.38.19.68.45.89.78.21.33.31.73.31,1.18,0,.37-.08.74-.24,1.1-.16.36-.42.74-.77,1.15-.35.41-.8.88-1.35,1.4-.55.53-1.23,1.15-2.02,1.87l3.72-.34.26-1.16c.03-.09.07-.17.12-.24.05-.06.14-.1.26-.1.03,0,.07,0,.12.01.05,0,.1.02.14.04v2.89h-6.07Z"/><path class="uuid-27dacf18-2fde-4615-88ff-03f57baa6743" d="M514.91,331.33c.15-.29.27-.54.38-.77.1-.23.21-.48.31-.74.1-.26.18-.52.23-.76l-.92-.44s-.02-.11-.03-.19c-.01-.08-.02-.16-.02-.24,0-.29.1-.53.29-.71s.42-.27.68-.27c.29,0,.53.1.74.31.21.2.31.5.31.89,0,.18-.03.39-.1.63s-.15.48-.25.73c-.1.25-.21.49-.31.72-.11.23-.21.42-.31.57-.09.17-.17.28-.26.35-.08.07-.17.1-.26.1-.04,0-.09,0-.14-.03-.05-.02-.09-.03-.14-.05l-.21-.1Z"/><path class="uuid-27dacf18-2fde-4615-88ff-03f57baa6743" d="M520.67,329v-.53l.93-.25v-7.25l-.93-.25v-.53h3.69c.38,0,.77.03,1.16.08s.76.15,1.09.29.61.34.81.6c.21.26.31.6.31,1.03,0,.47-.18.88-.54,1.24-.36.36-.82.62-1.37.77.46.07.88.2,1.26.39.38.19.68.44.91.76.23.32.34.7.34,1.15,0,.48-.14.9-.43,1.28-.29.38-.72.67-1.31.89s-1.32.33-2.2.33h-3.73ZM524.52,324.09c.3,0,.53-.05.71-.16.17-.11.31-.25.4-.42.09-.17.15-.35.18-.54.03-.19.05-.37.05-.53,0-.32-.04-.61-.12-.86-.08-.25-.23-.45-.44-.59-.21-.14-.49-.21-.85-.21-.15,0-.32,0-.53.01s-.37.02-.49.03v3.28h1.1ZM523.42,324.69v3.69c.17,0,.38.02.61.03.24.01.46.02.68.02.58,0,1-.17,1.26-.51s.39-.77.39-1.3c0-.71-.16-1.21-.48-1.5-.32-.29-.79-.44-1.39-.44h-1.07Z"/><path class="uuid-27dacf18-2fde-4615-88ff-03f57baa6743" d="M529.1,329v-.53l.9-.25v-4.91h-.89v-.35c0-.12.03-.21.1-.28.07-.06.16-.1.29-.11l1.83-.13.2,1.31c.18-.43.44-.78.78-1.05s.68-.4,1.04-.4c.29,0,.52.06.71.18s.32.26.41.44c.09.18.13.35.13.51,0,.3-.1.54-.29.71s-.44.25-.73.25h-.29l-.6-1.1c-.16.09-.31.23-.46.44-.15.2-.26.42-.33.64-.04.13-.08.28-.11.44s-.05.35-.07.56c-.01.21-.02.47-.02.77v2.17h1.28v.3c0,.11-.03.21-.08.28-.06.07-.16.11-.29.11h-3.51Z"/><path class="uuid-27dacf18-2fde-4615-88ff-03f57baa6743" d="M539.31,329v-.53l.86-.25v-3.11c0-.16,0-.35-.03-.57s-.05-.4-.1-.55c-.08-.23-.2-.43-.37-.58-.17-.16-.37-.23-.62-.23-.18,0-.36.05-.53.16-.17.1-.33.25-.46.44-.17.25-.28.53-.33.85-.04.31-.07.66-.07,1.04v2.67h.79v.31c0,.11-.03.2-.08.27-.05.06-.15.1-.3.1h-3.01v-.53l.9-.25v-4.91h-.89v-.35c0-.12.03-.21.1-.28.07-.06.17-.1.31-.11l1.87-.13.2,1.11c.22-.37.52-.67.9-.89s.79-.33,1.23-.33c.36,0,.69.06.99.19.31.13.55.32.75.59.16.22.27.46.34.74s.1.63.1,1.07v3.42h.82v.31c0,.11-.03.2-.08.27-.05.06-.15.1-.29.1h-3.02Z"/><path class="uuid-27dacf18-2fde-4615-88ff-03f57baa6743" d="M546.56,329.24c-.68,0-1.25-.15-1.71-.46-.46-.3-.81-.71-1.04-1.22-.23-.51-.35-1.08-.35-1.72,0-.68.14-1.28.43-1.81.28-.53.68-.95,1.18-1.26.51-.31,1.09-.47,1.74-.47.7,0,1.28.15,1.73.45.46.3.8.7,1.03,1.22.23.51.35,1.08.35,1.72,0,.68-.14,1.3-.43,1.83-.29.54-.69.96-1.19,1.26-.51.3-1.09.46-1.74.46ZM546.77,328.48c.34,0,.61-.11.82-.34s.35-.54.44-.94.13-.85.13-1.35c0-.47-.05-.91-.15-1.34-.1-.42-.26-.77-.49-1.05-.23-.27-.53-.41-.92-.41-.34,0-.61.11-.81.34-.2.23-.34.53-.43.92-.09.39-.13.83-.13,1.33,0,.36.03.71.08,1.05.06.34.15.64.27.91.13.27.29.48.48.64.19.16.43.23.71.23Z"/></g></svg>